  0
SECTION
  2
HEADER
  9
$ACADVER
  1
AC1027
  9
$ACADMAINTVER
 70
105
  9
$DWGCODEPAGE
  3
ANSI_1252
  9
$LASTSAVEDBY
  1
ezdxf
  9
$REQUIREDVERSIONS
160
0
  9
$INSBASE
 10
0.0
 20
0.0
 30
0.0
  9
$EXTMIN
 10
1e+20
 20
1e+20
 30
1e+20
  9
$EXTMAX
 10
-1e+20
 20
-1e+20
 30
-1e+20
  9
$LIMMIN
 10
0.0
 20
0.0
  9
$LIMMAX
 10
420.0
 20
297.0
  9
$ORTHOMODE
 70
0
  9
$REGENMODE
 70
1
  9
$FILLMODE
 70
1
  9
$QTEXTMODE
 70
0
  9
$MIRRTEXT
 70
1
  9
$LTSCALE
 40
1.0
  9
$ATTMODE
 70
1
  9
$TEXTSIZE
 40
2.5
  9
$TRACEWID
 40
1.0
  9
$TEXTSTYLE
  7
Standard
  9
$CLAYER
  8
0
  9
$CELTYPE
  6
ByLayer
  9
$CECOLOR
 62
256
  9
$CELTSCALE
 40
1.0
  9
$DISPSILH
 70
0
  9
$DIMSCALE
 40
1.0
  9
$DIMASZ
 40
2.5
  9
$DIMEXO
 40
0.625
  9
$DIMDLI
 40
3.75
  9
$DIMRND
 40
0.0
  9
$DIMDLE
 40
0.0
  9
$DIMEXE
 40
1.25
  9
$DIMTP
 40
0.0
  9
$DIMTM
 40
0.0
  9
$DIMTXT
 40
2.5
  9
$DIMCEN
 40
2.5
  9
$DIMTSZ
 40
0.0
  9
$DIMTOL
 70
0
  9
$DIMLIM
 70
0
  9
$DIMTIH
 70
0
  9
$DIMTOH
 70
0
  9
$DIMSE1
 70
0
  9
$DIMSE2
 70
0
  9
$DIMTAD
 70
1
  9
$DIMZIN
 70
8
  9
$DIMBLK
  1

  9
$DIMASO
 70
1
  9
$DIMSHO
 70
1
  9
$DIMPOST
  1

  9
$DIMAPOST
  1

  9
$DIMALT
 70
0
  9
$DIMALTD
 70
3
  9
$DIMALTF
 40
0.03937007874
  9
$DIMLFAC
 40
1.0
  9
$DIMTOFL
 70
1
  9
$DIMTVP
 40
0.0
  9
$DIMTIX
 70
0
  9
$DIMSOXD
 70
0
  9
$DIMSAH
 70
0
  9
$DIMBLK1
  1

  9
$DIMBLK2
  1

  9
$DIMSTYLE
  2
ISO-25
  9
$DIMCLRD
 70
0
  9
$DIMCLRE
 70
0
  9
$DIMCLRT
 70
0
  9
$DIMTFAC
 40
1.0
  9
$DIMGAP
 40
0.625
  9
$DIMJUST
 70
0
  9
$DIMSD1
 70
0
  9
$DIMSD2
 70
0
  9
$DIMTOLJ
 70
0
  9
$DIMTZIN
 70
8
  9
$DIMALTZ
 70
0
  9
$DIMALTTZ
 70
0
  9
$DIMUPT
 70
0
  9
$DIMDEC
 70
2
  9
$DIMTDEC
 70
2
  9
$DIMALTU
 70
2
  9
$DIMALTTD
 70
3
  9
$DIMTXSTY
  7
Standard
  9
$DIMAUNIT
 70
0
  9
$DIMADEC
 70
0
  9
$DIMALTRND
 40
0.0
  9
$DIMAZIN
 70
0
  9
$DIMDSEP
 70
44
  9
$DIMATFIT
 70
3
  9
$DIMFRAC
 70
0
  9
$DIMLDRBLK
  1

  9
$DIMLUNIT
 70
2
  9
$DIMLWD
 70
-2
  9
$DIMLWE
 70
-2
  9
$DIMTMOVE
 70
0
  9
$DIMFXL
 40
1.0
  9
$DIMFXLON
 70
0
  9
$DIMJOGANG
 40
0.785398163397
  9
$DIMTFILL
 70
0
  9
$DIMTFILLCLR
 70
0
  9
$DIMARCSYM
 70
0
  9
$DIMLTYPE
  6

  9
$DIMLTEX1
  6

  9
$DIMLTEX2
  6

  9
$DIMTXTDIRECTION
 70
0
  9
$LUNITS
 70
2
  9
$LUPREC
 70
4
  9
$SKETCHINC
 40
1.0
  9
$FILLETRAD
 40
10.0
  9
$AUNITS
 70
0
  9
$AUPREC
 70
2
  9
$MENU
  1
.
  9
$ELEVATION
 40
0.0
  9
$PELEVATION
 40
0.0
  9
$THICKNESS
 40
0.0
  9
$LIMCHECK
 70
0
  9
$CHAMFERA
 40
0.0
  9
$CHAMFERB
 40
0.0
  9
$CHAMFERC
 40
0.0
  9
$CHAMFERD
 40
0.0
  9
$SKPOLY
 70
0
  9
$TDCREATE
 40
2461280.5947685186
  9
$TDUCREATE
 40
2458532.153996898
  9
$TDUPDATE
 40
2461280.5947685186
  9
$TDUUPDATE
 40
2458532.1544311
  9
$TDINDWG
 40
0.0
  9
$TDUSRTIMER
 40
0.0
  9
$USRTIMER
 70
1
  9
$ANGBASE
 50
0.0
  9
$ANGDIR
 70
0
  9
$PDMODE
 70
0
  9
$PDSIZE
 40
0.0
  9
$PLINEWID
 40
0.0
  9
$SPLFRAME
 70
0
  9
$SPLINETYPE
 70
6
  9
$SPLINESEGS
 70
8
  9
$HANDSEED
  5
464
  9
$SURFTAB1
 70
6
  9
$SURFTAB2
 70
6
  9
$SURFTYPE
 70
6
  9
$SURFU
 70
6
  9
$SURFV
 70
6
  9
$UCSBASE
  2

  9
$UCSNAME
  2

  9
$UCSORG
 10
0.0
 20
0.0
 30
0.0
  9
$UCSXDIR
 10
1.0
 20
0.0
 30
0.0
  9
$UCSYDIR
 10
0.0
 20
1.0
 30
0.0
  9
$UCSORTHOREF
  2

  9
$UCSORTHOVIEW
 70
0
  9
$UCSORGTOP
 10
0.0
 20
0.0
 30
0.0
  9
$UCSORGBOTTOM
 10
0.0
 20
0.0
 30
0.0
  9
$UCSORGLEFT
 10
0.0
 20
0.0
 30
0.0
  9
$UCSORGRIGHT
 10
0.0
 20
0.0
 30
0.0
  9
$UCSORGFRONT
 10
0.0
 20
0.0
 30
0.0
  9
$UCSORGBACK
 10
0.0
 20
0.0
 30
0.0
  9
$PUCSBASE
  2

  9
$PUCSNAME
  2

  9
$PUCSORG
 10
0.0
 20
0.0
 30
0.0
  9
$PUCSXDIR
 10
1.0
 20
0.0
 30
0.0
  9
$PUCSYDIR
 10
0.0
 20
1.0
 30
0.0
  9
$PUCSORTHOREF
  2

  9
$PUCSORTHOVIEW
 70
0
  9
$PUCSORGTOP
 10
0.0
 20
0.0
 30
0.0
  9
$PUCSORGBOTTOM
 10
0.0
 20
0.0
 30
0.0
  9
$PUCSORGLEFT
 10
0.0
 20
0.0
 30
0.0
  9
$PUCSORGRIGHT
 10
0.0
 20
0.0
 30
0.0
  9
$PUCSORGFRONT
 10
0.0
 20
0.0
 30
0.0
  9
$PUCSORGBACK
 10
0.0
 20
0.0
 30
0.0
  9
$USERI1
 70
0
  9
$USERI2
 70
0
  9
$USERI3
 70
0
  9
$USERI4
 70
0
  9
$USERI5
 70
0
  9
$USERR1
 40
0.0
  9
$USERR2
 40
0.0
  9
$USERR3
 40
0.0
  9
$USERR4
 40
0.0
  9
$USERR5
 40
0.0
  9
$WORLDVIEW
 70
1
  9
$SHADEDGE
 70
3
  9
$SHADEDIF
 70
70
  9
$TILEMODE
 70
1
  9
$MAXACTVP
 70
64
  9
$PINSBASE
 10
0.0
 20
0.0
 30
0.0
  9
$PLIMCHECK
 70
0
  9
$PEXTMIN
 10
1e+20
 20
1e+20
 30
1e+20
  9
$PEXTMAX
 10
-1e+20
 20
-1e+20
 30
-1e+20
  9
$PLIMMIN
 10
0.0
 20
0.0
  9
$PLIMMAX
 10
420.0
 20
297.0
  9
$UNITMODE
 70
0
  9
$VISRETAIN
 70
1
  9
$PLINEGEN
 70
0
  9
$PSLTSCALE
 70
1
  9
$TREEDEPTH
 70
3020
  9
$CMLSTYLE
  2
Standard
  9
$CMLJUST
 70
0
  9
$CMLSCALE
 40
20.0
  9
$PROXYGRAPHICS
 70
1
  9
$MEASUREMENT
 70
1
  9
$CELWEIGHT
370
-1
  9
$ENDCAPS
280
0
  9
$JOINSTYLE
280
0
  9
$LWDISPLAY
290
0
  9
$INSUNITS
 70
6
  9
$HYPERLINKBASE
  1

  9
$STYLESHEET
  1

  9
$XEDIT
290
1
  9
$CEPSNTYPE
380
0
  9
$PSTYLEMODE
290
1
  9
$FINGERPRINTGUID
  2
{000BEE4E-8447-489D-907D-DFD462521C4C}
  9
$VERSIONGUID
  2
{E67F37BB-864E-4421-B20C-A2B5987EF456}
  9
$EXTNAMES
290
1
  9
$PSVPSCALE
 40
0.0
  9
$OLESTARTUP
290
0
  9
$SORTENTS
280
127
  9
$INDEXCTL
280
0
  9
$HIDETEXT
280
1
  9
$XCLIPFRAME
280
1
  9
$HALOGAP
280
0
  9
$OBSCOLOR
 70
257
  9
$OBSLTYPE
280
0
  9
$INTERSECTIONDISPLAY
280
0
  9
$INTERSECTIONCOLOR
 70
257
  9
$DIMASSOC
280
2
  9
$PROJECTNAME
  1

  9
$CAMERADISPLAY
290
0
  9
$LENSLENGTH
 40
50.0
  9
$CAMERAHEIGHT
 40
0.0
  9
$STEPSPERSEC
 40
24.0
  9
$STEPSIZE
 40
100.0
  9
$3DDWFPREC
 40
2.0
  9
$PSOLWIDTH
 40
0.005
  9
$PSOLHEIGHT
 40
0.08
  9
$LOFTANG1
 40
1.570796326795
  9
$LOFTANG2
 40
1.570796326795
  9
$LOFTMAG1
 40
0.0
  9
$LOFTMAG2
 40
0.0
  9
$LOFTPARAM
 70
7
  9
$LOFTNORMALS
280
1
  9
$LATITUDE
 40
37.795
  9
$LONGITUDE
 40
-122.394
  9
$NORTHDIRECTION
 40
0.0
  9
$TIMEZONE
 70
-8000
  9
$LIGHTGLYPHDISPLAY
280
1
  9
$TILEMODELIGHTSYNCH
280
1
  9
$CMATERIAL
347
20
  9
$SOLIDHIST
280
0
  9
$SHOWHIST
280
1
  9
$DWFFRAME
280
2
  9
$DGNFRAME
280
2
  9
$REALWORLDSCALE
290
1
  9
$INTERFERECOLOR
 62
256
  9
$CSHADOW
280
0
  9
$SHADOWPLANELOCATION
 40
0.0
  0
ENDSEC
  0
SECTION
  2
CLASSES
  0
CLASS
  1
ACDBDICTIONARYWDFLT
  2
AcDbDictionaryWithDefault
  3
ObjectDBX Classes
 90
0
 91
0
280
0
281
0
  0
CLASS
  1
SUN
  2
AcDbSun
  3
SCENEOE
 90
1153
 91
0
280
0
281
0
  0
CLASS
  1
VISUALSTYLE
  2
AcDbVisualStyle
  3
ObjectDBX Classes
 90
4095
 91
0
280
0
281
0
  0
CLASS
  1
MATERIAL
  2
AcDbMaterial
  3
ObjectDBX Classes
 90
1153
 91
0
280
0
281
0
  0
CLASS
  1
SCALE
  2
AcDbScale
  3
ObjectDBX Classes
 90
1153
 91
0
280
0
281
0
  0
CLASS
  1
TABLESTYLE
  2
AcDbTableStyle
  3
ObjectDBX Classes
 90
4095
 91
0
280
0
281
0
  0
CLASS
  1
MLEADERSTYLE
  2
AcDbMLeaderStyle
  3
ACDB_MLEADERSTYLE_CLASS
 90
4095
 91
0
280
0
281
0
  0
CLASS
  1
DICTIONARYVAR
  2
AcDbDictionaryVar
  3
ObjectDBX Classes
 90
0
 91
0
280
0
281
0
  0
CLASS
  1
CELLSTYLEMAP
  2
AcDbCellStyleMap
  3
ObjectDBX Classes
 90
1152
 91
0
280
0
281
0
  0
CLASS
  1
MENTALRAYRENDERSETTINGS
  2
AcDbMentalRayRenderSettings
  3
SCENEOE
 90
1024
 91
0
280
0
281
0
  0
CLASS
  1
ACDBDETAILVIEWSTYLE
  2
AcDbDetailViewStyle
  3
ObjectDBX Classes
 90
1025
 91
0
280
0
281
0
  0
CLASS
  1
ACDBSECTIONVIEWSTYLE
  2
AcDbSectionViewStyle
  3
ObjectDBX Classes
 90
1025
 91
0
280
0
281
0
  0
CLASS
  1
RASTERVARIABLES
  2
AcDbRasterVariables
  3
ISM
 90
0
 91
0
280
0
281
0
  0
CLASS
  1
LAYOUT
  2
AcDbLayout
  3
ObjectDBX Classes
 90
0
 91
0
280
0
281
0
  0
CLASS
  1
ACDBPLACEHOLDER
  2
AcDbPlaceHolder
  3
ObjectDBX Classes
 90
0
 91
0
280
0
281
0
  0
ENDSEC
  0
SECTION
  2
TABLES
  0
TABLE
  2
VPORT
  5
8
330
0
100
AcDbSymbolTable
 70
1
  0
VPORT
  5
23
330
8
100
AcDbSymbolTableRecord
100
AcDbViewportTableRecord
  2
*Active
 70
0
 10
0.0
 20
0.0
 11
1.0
 21
1.0
 12
0.0
 22
0.0
 13
0.0
 23
0.0
 14
0.5
 24
0.5
 15
0.5
 25
0.5
 16
0.0
 26
0.0
 36
1.0
 17
0.0
 27
0.0
 37
0.0
 40
1000.0
 41
1.34
 42
50.0
 43
0.0
 44
0.0
 50
0.0
 51
0.0
 71
0
 72
1000
 73
1
 74
3
 75
0
 76
0
 77
0
 78
0
281
0
 65
0
146
0.0
  0
ENDTAB
  0
TABLE
  2
LTYPE
  5
2
330
0
100
AcDbSymbolTable
 70
4
  0
LTYPE
  5
24
330
2
100
AcDbSymbolTableRecord
100
AcDbLinetypeTableRecord
  2
ByBlock
 70
0
  3

 72
65
 73
0
 40
0.0
  0
LTYPE
  5
25
330
2
100
AcDbSymbolTableRecord
100
AcDbLinetypeTableRecord
  2
ByLayer
 70
0
  3

 72
65
 73
0
 40
0.0
  0
LTYPE
  5
26
330
2
100
AcDbSymbolTableRecord
100
AcDbLinetypeTableRecord
  2
Continuous
 70
0
  3

 72
65
 73
0
 40
0.0
  0
LTYPE
  5
2F
330
2
100
AcDbSymbolTableRecord
100
AcDbLinetypeTableRecord
  2
DASHED
 70
0
  3
__ __ __ __
 72
65
 73
2
 40
0.2
 49
0.1
 74
0
 49
-0.1
 74
0
  0
ENDTAB
  0
TABLE
  2
LAYER
  5
1
330
0
100
AcDbSymbolTable
 70
21
  0
LAYER
  5
27
330
1
100
AcDbSymbolTableRecord
100
AcDbLayerTableRecord
  2
0
 70
0
 62
7
  6
Continuous
370
-3
390
13
347
21
  0
LAYER
  5
28
330
1
100
AcDbSymbolTableRecord
100
AcDbLayerTableRecord
  2
Defpoints
 70
0
 62
7
  6
Continuous
290
0
370
-3
390
13
347
21
  0
LAYER
  5
30
330
1
100
AcDbSymbolTableRecord
100
AcDbLayerTableRecord
  2
WALLS
 70
0
 62
7
  6
Continuous
370
70
390
13
347
21
  0
LAYER
  5
31
330
1
100
AcDbSymbolTableRecord
100
AcDbLayerTableRecord
  2
DOORS
 70
0
 62
7
  6
Continuous
370
25
390
13
347
21
  0
LAYER
  5
32
330
1
100
AcDbSymbolTableRecord
100
AcDbLayerTableRecord
  2
WINDOWS
 70
0
 62
7
  6
Continuous
370
25
390
13
347
21
  0
LAYER
  5
33
330
1
100
AcDbSymbolTableRecord
100
AcDbLayerTableRecord
  2
DIMENSIONS
 70
0
 62
8
  6
Continuous
370
13
390
13
347
21
  0
LAYER
  5
34
330
1
100
AcDbSymbolTableRecord
100
AcDbLayerTableRecord
  2
TEXT
 70
0
 62
7
  6
Continuous
370
13
390
13
347
21
  0
LAYER
  5
35
330
1
100
AcDbSymbolTableRecord
100
AcDbLayerTableRecord
  2
FURNITURE
 70
0
 62
9
  6
Continuous
370
13
390
13
347
21
  0
LAYER
  5
36
330
1
100
AcDbSymbolTableRecord
100
AcDbLayerTableRecord
  2
LOT
 70
0
 62
8
  6
Continuous
370
25
390
13
347
21
  0
LAYER
  5
37
330
1
100
AcDbSymbolTableRecord
100
AcDbLayerTableRecord
  2
SETBACKS
 70
0
 62
9
  6
DASHED
370
13
390
13
347
21
  0
LAYER
  5
38
330
1
100
AcDbSymbolTableRecord
100
AcDbLayerTableRecord
  2
HATCH
 70
0
 62
9
  6
Continuous
370
13
390
13
347
21
  0
LAYER
  5
39
330
1
100
AcDbSymbolTableRecord
100
AcDbLayerTableRecord
  2
TITLE
 70
0
 62
7
  6
Continuous
370
25
390
13
347
21
  0
LAYER
  5
3A
330
1
100
AcDbSymbolTableRecord
100
AcDbLayerTableRecord
  2
STRUCTURE
 70
0
 62
7
  6
Continuous
370
50
390
13
347
21
  0
LAYER
  5
3B
330
1
100
AcDbSymbolTableRecord
100
AcDbLayerTableRecord
  2
REBAR
 70
0
 62
7
  6
Continuous
370
25
390
13
347
21
  0
LAYER
  5
3C
330
1
100
AcDbSymbolTableRecord
100
AcDbLayerTableRecord
  2
MEP_WATER
 70
0
 62
5
  6
Continuous
370
25
390
13
347
21
  0
LAYER
  5
3D
330
1
100
AcDbSymbolTableRecord
100
AcDbLayerTableRecord
  2
MEP_SEWAGE
 70
0
 62
30
  6
Continuous
370
25
390
13
347
21
  0
LAYER
  5
3E
330
1
100
AcDbSymbolTableRecord
100
AcDbLayerTableRecord
  2
MEP_ELECTRIC
 70
0
 62
1
  6
Continuous
370
25
390
13
347
21
  0
LAYER
  5
3F
330
1
100
AcDbSymbolTableRecord
100
AcDbLayerTableRecord
  2
GRID
 70
0
 62
9
  6
DASHDOT
370
13
390
13
347
21
  0
LAYER
  5
40
330
1
100
AcDbSymbolTableRecord
100
AcDbLayerTableRecord
  2
NORTH
 70
0
 62
7
  6
Continuous
370
25
390
13
347
21
  0
LAYER
  5
41
330
1
100
AcDbSymbolTableRecord
100
AcDbLayerTableRecord
  2
ANNOTATIONS
 70
0
 62
8
  6
Continuous
370
13
390
13
347
21
  0
LAYER
  5
42
330
1
100
AcDbSymbolTableRecord
100
AcDbLayerTableRecord
  2
LEVELS
 70
0
 62
8
  6
Continuous
370
13
390
13
347
21
  0
ENDTAB
  0
TABLE
  2
STYLE
  5
5
330
0
100
AcDbSymbolTable
 70
1
  0
STYLE
  5
29
330
5
100
AcDbSymbolTableRecord
100
AcDbTextStyleTableRecord
  2
Standard
 70
0
 40
0.0
 41
1.0
 50
0.0
 71
0
 42
2.5
  3
txt
  4

  0
ENDTAB
  0
TABLE
  2
VIEW
  5
7
330
0
100
AcDbSymbolTable
 70
0
  0
ENDTAB
  0
TABLE
  2
UCS
  5
6
330
0
100
AcDbSymbolTable
 70
0
  0
ENDTAB
  0
TABLE
  2
APPID
  5
3
330
0
100
AcDbSymbolTable
 70
3
  0
APPID
  5
2A
330
3
100
AcDbSymbolTableRecord
100
AcDbRegAppTableRecord
  2
ACAD
 70
0
  0
APPID
  5
461
330
3
100
AcDbSymbolTableRecord
100
AcDbRegAppTableRecord
  2
HATCHBACKGROUNDCOLOR
 70
0
  0
APPID
  5
462
330
3
100
AcDbSymbolTableRecord
100
AcDbRegAppTableRecord
  2
EZDXF
 70
0
  0
ENDTAB
  0
TABLE
  2
DIMSTYLE
  5
4
330
0
100
AcDbSymbolTable
 70
1
100
AcDbDimStyleTable
  0
DIMSTYLE
105
2B
330
4
100
AcDbSymbolTableRecord
100
AcDbDimStyleTableRecord
  2
Standard
 70
0
 40
1.0
 41
2.5
 42
0.625
 43
3.75
 44
1.25
 45
0.0
 46
0.0
 47
0.0
 48
0.0
 49
2.5
140
2.5
141
2.5
142
0.0
143
0.03937007874
144
1.0
145
0.0
146
1.0
147
0.625
148
0.0
 69
0
 70
0
 71
0
 72
0
 73
0
 74
0
 75
0
 76
0
 77
1
 78
8
 79
3
170
0
171
3
172
1
173
0
174
0
175
0
176
0
177
0
178
0
179
2
271
2
272
2
273
2
274
3
275
0
276
0
277
2
278
44
279
0
280
0
281
0
282
0
283
0
284
8
285
0
286
0
288
0
289
3
290
0
371
-2
372
-2
  0
ENDTAB
  0
TABLE
  2
BLOCK_RECORD
  5
9
330
0
100
AcDbSymbolTable
 70
35
  0
BLOCK_RECORD
  5
17
330
9
100
AcDbSymbolTableRecord
100
AcDbBlockTableRecord
  2
*Model_Space
340
1A
 70
0
280
1
281
0
  0
BLOCK_RECORD
  5
1B
330
9
100
AcDbSymbolTableRecord
100
AcDbBlockTableRecord
  2
*Paper_Space
340
1E
 70
0
280
1
281
0
  0
BLOCK_RECORD
  5
259
330
9
100
AcDbSymbolTableRecord
100
AcDbBlockTableRecord
  2
*D1
340
0
 70
0
280
1
281
0
  0
BLOCK_RECORD
  5
25E
330
9
100
AcDbSymbolTableRecord
100
AcDbBlockTableRecord
  2
_CLOSEDFILLED
340
0
 70
0
280
1
281
0
  0
BLOCK_RECORD
  5
26D
330
9
100
AcDbSymbolTableRecord
100
AcDbBlockTableRecord
  2
*D2
340
0
 70
0
280
1
281
0
  0
BLOCK_RECORD
  5
27E
330
9
100
AcDbSymbolTableRecord
100
AcDbBlockTableRecord
  2
*D3
340
0
 70
0
280
1
281
0
  0
BLOCK_RECORD
  5
28F
330
9
100
AcDbSymbolTableRecord
100
AcDbBlockTableRecord
  2
*D4
340
0
 70
0
280
1
281
0
  0
BLOCK_RECORD
  5
2A0
330
9
100
AcDbSymbolTableRecord
100
AcDbBlockTableRecord
  2
*D5
340
0
 70
0
280
1
281
0
  0
BLOCK_RECORD
  5
2B1
330
9
100
AcDbSymbolTableRecord
100
AcDbBlockTableRecord
  2
*D6
340
0
 70
0
280
1
281
0
  0
BLOCK_RECORD
  5
2C2
330
9
100
AcDbSymbolTableRecord
100
AcDbBlockTableRecord
  2
*D7
340
0
 70
0
280
1
281
0
  0
BLOCK_RECORD
  5
2D3
330
9
100
AcDbSymbolTableRecord
100
AcDbBlockTableRecord
  2
*D8
340
0
 70
0
280
1
281
0
  0
BLOCK_RECORD
  5
2E2
330
9
100
AcDbSymbolTableRecord
100
AcDbBlockTableRecord
  2
*D9
340
0
 70
0
280
1
281
0
  0
BLOCK_RECORD
  5
2F1
330
9
100
AcDbSymbolTableRecord
100
AcDbBlockTableRecord
  2
*D10
340
0
 70
0
280
1
281
0
  0
BLOCK_RECORD
  5
302
330
9
100
AcDbSymbolTableRecord
100
AcDbBlockTableRecord
  2
*D11
340
0
 70
0
280
1
281
0
  0
BLOCK_RECORD
  5
313
330
9
100
AcDbSymbolTableRecord
100
AcDbBlockTableRecord
  2
*D12
340
0
 70
0
280
1
281
0
  0
BLOCK_RECORD
  5
323
330
9
100
AcDbSymbolTableRecord
100
AcDbBlockTableRecord
  2
*D13
340
0
 70
0
280
1
281
0
  0
BLOCK_RECORD
  5
333
330
9
100
AcDbSymbolTableRecord
100
AcDbBlockTableRecord
  2
*D14
340
0
 70
0
280
1
281
0
  0
BLOCK_RECORD
  5
342
330
9
100
AcDbSymbolTableRecord
100
AcDbBlockTableRecord
  2
*D15
340
0
 70
0
280
1
281
0
  0
BLOCK_RECORD
  5
351
330
9
100
AcDbSymbolTableRecord
100
AcDbBlockTableRecord
  2
*D16
340
0
 70
0
280
1
281
0
  0
BLOCK_RECORD
  5
361
330
9
100
AcDbSymbolTableRecord
100
AcDbBlockTableRecord
  2
*D17
340
0
 70
0
280
1
281
0
  0
BLOCK_RECORD
  5
372
330
9
100
AcDbSymbolTableRecord
100
AcDbBlockTableRecord
  2
*D18
340
0
 70
0
280
1
281
0
  0
BLOCK_RECORD
  5
381
330
9
100
AcDbSymbolTableRecord
100
AcDbBlockTableRecord
  2
*D19
340
0
 70
0
280
1
281
0
  0
BLOCK_RECORD
  5
38F
330
9
100
AcDbSymbolTableRecord
100
AcDbBlockTableRecord
  2
*D20
340
0
 70
0
280
1
281
0
  0
BLOCK_RECORD
  5
3A0
330
9
100
AcDbSymbolTableRecord
100
AcDbBlockTableRecord
  2
*D21
340
0
 70
0
280
1
281
0
  0
BLOCK_RECORD
  5
3AF
330
9
100
AcDbSymbolTableRecord
100
AcDbBlockTableRecord
  2
*D22
340
0
 70
0
280
1
281
0
  0
BLOCK_RECORD
  5
3BE
330
9
100
AcDbSymbolTableRecord
100
AcDbBlockTableRecord
  2
*D23
340
0
 70
0
280
1
281
0
  0
BLOCK_RECORD
  5
3CD
330
9
100
AcDbSymbolTableRecord
100
AcDbBlockTableRecord
  2
*D24
340
0
 70
0
280
1
281
0
  0
BLOCK_RECORD
  5
3DC
330
9
100
AcDbSymbolTableRecord
100
AcDbBlockTableRecord
  2
*D25
340
0
 70
0
280
1
281
0
  0
BLOCK_RECORD
  5
3ED
330
9
100
AcDbSymbolTableRecord
100
AcDbBlockTableRecord
  2
*D26
340
0
 70
0
280
1
281
0
  0
BLOCK_RECORD
  5
3FB
330
9
100
AcDbSymbolTableRecord
100
AcDbBlockTableRecord
  2
*D27
340
0
 70
0
280
1
281
0
  0
BLOCK_RECORD
  5
40B
330
9
100
AcDbSymbolTableRecord
100
AcDbBlockTableRecord
  2
*D28
340
0
 70
0
280
1
281
0
  0
BLOCK_RECORD
  5
41B
330
9
100
AcDbSymbolTableRecord
100
AcDbBlockTableRecord
  2
*D29
340
0
 70
0
280
1
281
0
  0
BLOCK_RECORD
  5
42B
330
9
100
AcDbSymbolTableRecord
100
AcDbBlockTableRecord
  2
*D30
340
0
 70
0
280
1
281
0
  0
BLOCK_RECORD
  5
43B
330
9
100
AcDbSymbolTableRecord
100
AcDbBlockTableRecord
  2
*D31
340
0
 70
0
280
1
281
0
  0
BLOCK_RECORD
  5
44B
330
9
100
AcDbSymbolTableRecord
100
AcDbBlockTableRecord
  2
*D32
340
0
 70
0
280
1
281
0
  0
ENDTAB
  0
ENDSEC
  0
SECTION
  2
BLOCKS
  0
BLOCK
  5
18
330
17
100
AcDbEntity
  8
0
100
AcDbBlockBegin
  2
*Model_Space
 70
0
 10
0.0
 20
0.0
 30
0.0
  3
*Model_Space
  1

  0
ENDBLK
  5
19
330
17
100
AcDbEntity
  8
0
100
AcDbBlockEnd
  0
BLOCK
  5
1C
330
1B
100
AcDbEntity
  8
0
100
AcDbBlockBegin
  2
*Paper_Space
 70
0
 10
0.0
 20
0.0
 30
0.0
  3
*Paper_Space
  1

  0
ENDBLK
  5
1D
330
1B
100
AcDbEntity
  8
0
100
AcDbBlockEnd
  0
BLOCK
  5
25A
330
259
100
AcDbEntity
  8
0
100
AcDbBlockBegin
  2
*D1
 70
1
 10
0.0
 20
0.0
 30
0.0
  3
*D1
  1

  0
LINE
  5
25C
330
259
100
AcDbEntity
  8
0
100
AcDbLine
 10
3.0
 20
32.120000000000005
 30
0.0
 11
3.0
 21
33.620000000000005
 31
0.0
  0
LINE
  5
25D
330
259
100
AcDbEntity
  8
0
100
AcDbLine
 10
6.0
 20
32.120000000000005
 30
0.0
 11
6.0
 21
33.620000000000005
 31
0.0
  0
INSERT
  5
262
330
259
100
AcDbEntity
  8
DIMENSIONS
100
AcDbBlockReference
  2
_CLOSEDFILLED
 10
3.0
 20
33.620000000000005
 30
0.0
 41
0.25
 42
0.25
 50
180.0
  0
INSERT
  5
264
330
259
100
AcDbEntity
  8
DIMENSIONS
100
AcDbBlockReference
  2
_CLOSEDFILLED
 10
6.0
 20
33.620000000000005
 30
0.0
 41
0.25
 42
0.25
  0
LINE
  5
266
330
259
100
AcDbEntity
  8
0
100
AcDbLine
 10
3.25
 20
33.620000000000005
 30
0.0
 11
4.0
 21
33.620000000000005
 31
0.0
  0
LINE
  5
267
330
259
100
AcDbEntity
  8
0
100
AcDbLine
 10
5.0
 20
33.620000000000005
 30
0.0
 11
5.75
 21
33.620000000000005
 31
0.0
  0
MTEXT
  5
268
330
259
100
AcDbEntity
  8
DIMENSIONS
100
AcDbMText
 10
4.5
 20
33.620000000000005
 30
0.0
 40
1.0
 71
5
  1
3
  0
POINT
  5
269
330
259
100
AcDbEntity
  8
Defpoints
100
AcDbPoint
 10
3.0
 20
33.620000000000005
 30
0.0
  0
POINT
  5
26A
330
259
100
AcDbEntity
  8
Defpoints
100
AcDbPoint
 10
3.0
 20
32.120000000000005
 30
0.0
  0
POINT
  5
26B
330
259
100
AcDbEntity
  8
Defpoints
100
AcDbPoint
 10
6.0
 20
32.120000000000005
 30
0.0
  0
ENDBLK
  5
25B
330
259
100
AcDbEntity
  8
0
100
AcDbBlockEnd
  0
BLOCK
  5
25F
330
25E
100
AcDbEntity
  8
0
100
AcDbBlockBegin
  2
_CLOSEDFILLED
 70
0
 10
0.0
 20
0.0
 30
0.0
  3
_CLOSEDFILLED
  1

  0
SOLID
  5
261
330
25E
100
AcDbEntity
  8
0
  6
BYBLOCK
 62
0
100
AcDbTrace
 10
-1.0
 20
0.16439898372402537
 30
0.0
 11
0.0
 21
0.0
 31
0.0
 12
-1.0
 22
-0.16439898372402537
 32
0.0
 13
-1.0
 23
-0.16439898372402537
 33
0.0
  0
ENDBLK
  5
260
330
25E
100
AcDbEntity
  8
0
100
AcDbBlockEnd
  0
BLOCK
  5
26E
330
26D
100
AcDbEntity
  8
0
100
AcDbBlockBegin
  2
*D2
 70
1
 10
0.0
 20
0.0
 30
0.0
  3
*D2
  1

  0
LINE
  5
270
330
26D
100
AcDbEntity
  8
0
100
AcDbLine
 10
6.0
 20
32.120000000000005
 30
0.0
 11
6.0
 21
33.620000000000005
 31
0.0
  0
LINE
  5
271
330
26D
100
AcDbEntity
  8
0
100
AcDbLine
 10
6.33
 20
32.120000000000005
 30
0.0
 11
6.33
 21
33.620000000000005
 31
0.0
  0
INSERT
  5
272
330
26D
100
AcDbEntity
  8
DIMENSIONS
100
AcDbBlockReference
  2
_CLOSEDFILLED
 10
6.0
 20
33.620000000000005
 30
0.0
 41
0.25
 42
0.25
  0
INSERT
  5
274
330
26D
100
AcDbEntity
  8
DIMENSIONS
100
AcDbBlockReference
  2
_CLOSEDFILLED
 10
6.33
 20
33.620000000000005
 30
0.0
 41
0.25
 42
0.25
 50
180.0
  0
LINE
  5
276
330
26D
100
AcDbEntity
  8
0
100
AcDbLine
 10
5.75
 20
33.620000000000005
 30
0.0
 11
5.5
 21
33.620000000000005
 31
0.0
  0
LINE
  5
277
330
26D
100
AcDbEntity
  8
0
100
AcDbLine
 10
6.58
 20
33.620000000000005
 30
0.0
 11
6.83
 21
33.620000000000005
 31
0.0
  0
LINE
  5
278
330
26D
100
AcDbEntity
  8
0
100
AcDbLine
 10
6.0
 20
33.620000000000005
 30
0.0
 11
6.33
 21
33.620000000000005
 31
0.0
  0
MTEXT
  5
279
330
26D
100
AcDbEntity
  8
DIMENSIONS
100
AcDbMText
 10
6.165
 20
34.745000000000005
 30
0.0
 40
1.0
 71
5
  1
0,33
  0
POINT
  5
27A
330
26D
100
AcDbEntity
  8
Defpoints
100
AcDbPoint
 10
6.0
 20
33.620000000000005
 30
0.0
  0
POINT
  5
27B
330
26D
100
AcDbEntity
  8
Defpoints
100
AcDbPoint
 10
6.0
 20
32.120000000000005
 30
0.0
  0
POINT
  5
27C
330
26D
100
AcDbEntity
  8
Defpoints
100
AcDbPoint
 10
6.33
 20
32.120000000000005
 30
0.0
  0
ENDBLK
  5
26F
330
26D
100
AcDbEntity
  8
0
100
AcDbBlockEnd
  0
BLOCK
  5
27F
330
27E
100
AcDbEntity
  8
0
100
AcDbBlockBegin
  2
*D3
 70
1
 10
0.0
 20
0.0
 30
0.0
  3
*D3
  1

  0
LINE
  5
281
330
27E
100
AcDbEntity
  8
0
100
AcDbLine
 10
6.33
 20
32.120000000000005
 30
0.0
 11
6.33
 21
33.620000000000005
 31
0.0
  0
LINE
  5
282
330
27E
100
AcDbEntity
  8
0
100
AcDbLine
 10
7.0
 20
32.120000000000005
 30
0.0
 11
7.0
 21
33.620000000000005
 31
0.0
  0
INSERT
  5
283
330
27E
100
AcDbEntity
  8
DIMENSIONS
100
AcDbBlockReference
  2
_CLOSEDFILLED
 10
6.33
 20
33.620000000000005
 30
0.0
 41
0.25
 42
0.25
  0
INSERT
  5
285
330
27E
100
AcDbEntity
  8
DIMENSIONS
100
AcDbBlockReference
  2
_CLOSEDFILLED
 10
7.0
 20
33.620000000000005
 30
0.0
 41
0.25
 42
0.25
 50
180.0
  0
LINE
  5
287
330
27E
100
AcDbEntity
  8
0
100
AcDbLine
 10
6.08
 20
33.620000000000005
 30
0.0
 11
5.83
 21
33.620000000000005
 31
0.0
  0
LINE
  5
288
330
27E
100
AcDbEntity
  8
0
100
AcDbLine
 10
7.25
 20
33.620000000000005
 30
0.0
 11
7.5
 21
33.620000000000005
 31
0.0
  0
LINE
  5
289
330
27E
100
AcDbEntity
  8
0
100
AcDbLine
 10
6.33
 20
33.620000000000005
 30
0.0
 11
7.0
 21
33.620000000000005
 31
0.0
  0
MTEXT
  5
28A
330
27E
100
AcDbEntity
  8
DIMENSIONS
100
AcDbMText
 10
6.665
 20
34.745000000000005
 30
0.0
 40
1.0
 71
5
  1
0,67
  0
POINT
  5
28B
330
27E
100
AcDbEntity
  8
Defpoints
100
AcDbPoint
 10
6.33
 20
33.620000000000005
 30
0.0
  0
POINT
  5
28C
330
27E
100
AcDbEntity
  8
Defpoints
100
AcDbPoint
 10
6.33
 20
32.120000000000005
 30
0.0
  0
POINT
  5
28D
330
27E
100
AcDbEntity
  8
Defpoints
100
AcDbPoint
 10
7.0
 20
32.120000000000005
 30
0.0
  0
ENDBLK
  5
280
330
27E
100
AcDbEntity
  8
0
100
AcDbBlockEnd
  0
BLOCK
  5
290
330
28F
100
AcDbEntity
  8
0
100
AcDbBlockBegin
  2
*D4
 70
1
 10
0.0
 20
0.0
 30
0.0
  3
*D4
  1

  0
LINE
  5
292
330
28F
100
AcDbEntity
  8
0
100
AcDbLine
 10
7.0
 20
32.120000000000005
 30
0.0
 11
7.0
 21
33.620000000000005
 31
0.0
  0
LINE
  5
293
330
28F
100
AcDbEntity
  8
0
100
AcDbLine
 10
7.5
 20
32.120000000000005
 30
0.0
 11
7.5
 21
33.620000000000005
 31
0.0
  0
INSERT
  5
294
330
28F
100
AcDbEntity
  8
DIMENSIONS
100
AcDbBlockReference
  2
_CLOSEDFILLED
 10
7.0
 20
33.620000000000005
 30
0.0
 41
0.25
 42
0.25
  0
INSERT
  5
296
330
28F
100
AcDbEntity
  8
DIMENSIONS
100
AcDbBlockReference
  2
_CLOSEDFILLED
 10
7.5
 20
33.620000000000005
 30
0.0
 41
0.25
 42
0.25
 50
180.0
  0
LINE
  5
298
330
28F
100
AcDbEntity
  8
0
100
AcDbLine
 10
6.75
 20
33.620000000000005
 30
0.0
 11
6.5
 21
33.620000000000005
 31
0.0
  0
LINE
  5
299
330
28F
100
AcDbEntity
  8
0
100
AcDbLine
 10
7.75
 20
33.620000000000005
 30
0.0
 11
8.0
 21
33.620000000000005
 31
0.0
  0
LINE
  5
29A
330
28F
100
AcDbEntity
  8
0
100
AcDbLine
 10
7.0
 20
33.620000000000005
 30
0.0
 11
7.5
 21
33.620000000000005
 31
0.0
  0
MTEXT
  5
29B
330
28F
100
AcDbEntity
  8
DIMENSIONS
100
AcDbMText
 10
7.25
 20
34.745000000000005
 30
0.0
 40
1.0
 71
5
  1
0,5
  0
POINT
  5
29C
330
28F
100
AcDbEntity
  8
Defpoints
100
AcDbPoint
 10
7.0
 20
33.620000000000005
 30
0.0
  0
POINT
  5
29D
330
28F
100
AcDbEntity
  8
Defpoints
100
AcDbPoint
 10
7.0
 20
32.120000000000005
 30
0.0
  0
POINT
  5
29E
330
28F
100
AcDbEntity
  8
Defpoints
100
AcDbPoint
 10
7.5
 20
32.120000000000005
 30
0.0
  0
ENDBLK
  5
291
330
28F
100
AcDbEntity
  8
0
100
AcDbBlockEnd
  0
BLOCK
  5
2A1
330
2A0
100
AcDbEntity
  8
0
100
AcDbBlockBegin
  2
*D5
 70
1
 10
0.0
 20
0.0
 30
0.0
  3
*D5
  1

  0
LINE
  5
2A3
330
2A0
100
AcDbEntity
  8
0
100
AcDbLine
 10
7.5
 20
32.120000000000005
 30
0.0
 11
7.5
 21
33.620000000000005
 31
0.0
  0
LINE
  5
2A4
330
2A0
100
AcDbEntity
  8
0
100
AcDbLine
 10
8.5
 20
32.120000000000005
 30
0.0
 11
8.5
 21
33.620000000000005
 31
0.0
  0
INSERT
  5
2A5
330
2A0
100
AcDbEntity
  8
DIMENSIONS
100
AcDbBlockReference
  2
_CLOSEDFILLED
 10
7.5
 20
33.620000000000005
 30
0.0
 41
0.25
 42
0.25
  0
INSERT
  5
2A7
330
2A0
100
AcDbEntity
  8
DIMENSIONS
100
AcDbBlockReference
  2
_CLOSEDFILLED
 10
8.5
 20
33.620000000000005
 30
0.0
 41
0.25
 42
0.25
 50
180.0
  0
LINE
  5
2A9
330
2A0
100
AcDbEntity
  8
0
100
AcDbLine
 10
7.25
 20
33.620000000000005
 30
0.0
 11
7.0
 21
33.620000000000005
 31
0.0
  0
LINE
  5
2AA
330
2A0
100
AcDbEntity
  8
0
100
AcDbLine
 10
8.75
 20
33.620000000000005
 30
0.0
 11
9.0
 21
33.620000000000005
 31
0.0
  0
LINE
  5
2AB
330
2A0
100
AcDbEntity
  8
0
100
AcDbLine
 10
7.5
 20
33.620000000000005
 30
0.0
 11
8.5
 21
33.620000000000005
 31
0.0
  0
MTEXT
  5
2AC
330
2A0
100
AcDbEntity
  8
DIMENSIONS
100
AcDbMText
 10
8.0
 20
34.745000000000005
 30
0.0
 40
1.0
 71
5
  1
1
  0
POINT
  5
2AD
330
2A0
100
AcDbEntity
  8
Defpoints
100
AcDbPoint
 10
7.5
 20
33.620000000000005
 30
0.0
  0
POINT
  5
2AE
330
2A0
100
AcDbEntity
  8
Defpoints
100
AcDbPoint
 10
7.5
 20
32.120000000000005
 30
0.0
  0
POINT
  5
2AF
330
2A0
100
AcDbEntity
  8
Defpoints
100
AcDbPoint
 10
8.5
 20
32.120000000000005
 30
0.0
  0
ENDBLK
  5
2A2
330
2A0
100
AcDbEntity
  8
0
100
AcDbBlockEnd
  0
BLOCK
  5
2B2
330
2B1
100
AcDbEntity
  8
0
100
AcDbBlockBegin
  2
*D6
 70
1
 10
0.0
 20
0.0
 30
0.0
  3
*D6
  1

  0
LINE
  5
2B4
330
2B1
100
AcDbEntity
  8
0
100
AcDbLine
 10
8.5
 20
32.120000000000005
 30
0.0
 11
8.5
 21
33.620000000000005
 31
0.0
  0
LINE
  5
2B5
330
2B1
100
AcDbEntity
  8
0
100
AcDbLine
 10
9.0
 20
32.120000000000005
 30
0.0
 11
9.0
 21
33.620000000000005
 31
0.0
  0
INSERT
  5
2B6
330
2B1
100
AcDbEntity
  8
DIMENSIONS
100
AcDbBlockReference
  2
_CLOSEDFILLED
 10
8.5
 20
33.620000000000005
 30
0.0
 41
0.25
 42
0.25
  0
INSERT
  5
2B8
330
2B1
100
AcDbEntity
  8
DIMENSIONS
100
AcDbBlockReference
  2
_CLOSEDFILLED
 10
9.0
 20
33.620000000000005
 30
0.0
 41
0.25
 42
0.25
 50
180.0
  0
LINE
  5
2BA
330
2B1
100
AcDbEntity
  8
0
100
AcDbLine
 10
8.25
 20
33.620000000000005
 30
0.0
 11
8.0
 21
33.620000000000005
 31
0.0
  0
LINE
  5
2BB
330
2B1
100
AcDbEntity
  8
0
100
AcDbLine
 10
9.25
 20
33.620000000000005
 30
0.0
 11
9.5
 21
33.620000000000005
 31
0.0
  0
LINE
  5
2BC
330
2B1
100
AcDbEntity
  8
0
100
AcDbLine
 10
8.5
 20
33.620000000000005
 30
0.0
 11
9.0
 21
33.620000000000005
 31
0.0
  0
MTEXT
  5
2BD
330
2B1
100
AcDbEntity
  8
DIMENSIONS
100
AcDbMText
 10
8.75
 20
34.745000000000005
 30
0.0
 40
1.0
 71
5
  1
0,5
  0
POINT
  5
2BE
330
2B1
100
AcDbEntity
  8
Defpoints
100
AcDbPoint
 10
8.5
 20
33.620000000000005
 30
0.0
  0
POINT
  5
2BF
330
2B1
100
AcDbEntity
  8
Defpoints
100
AcDbPoint
 10
8.5
 20
32.120000000000005
 30
0.0
  0
POINT
  5
2C0
330
2B1
100
AcDbEntity
  8
Defpoints
100
AcDbPoint
 10
9.0
 20
32.120000000000005
 30
0.0
  0
ENDBLK
  5
2B3
330
2B1
100
AcDbEntity
  8
0
100
AcDbBlockEnd
  0
BLOCK
  5
2C3
330
2C2
100
AcDbEntity
  8
0
100
AcDbBlockBegin
  2
*D7
 70
1
 10
0.0
 20
0.0
 30
0.0
  3
*D7
  1

  0
LINE
  5
2C5
330
2C2
100
AcDbEntity
  8
0
100
AcDbLine
 10
9.0
 20
32.120000000000005
 30
0.0
 11
9.0
 21
33.620000000000005
 31
0.0
  0
LINE
  5
2C6
330
2C2
100
AcDbEntity
  8
0
100
AcDbLine
 10
9.5
 20
32.120000000000005
 30
0.0
 11
9.5
 21
33.620000000000005
 31
0.0
  0
INSERT
  5
2C7
330
2C2
100
AcDbEntity
  8
DIMENSIONS
100
AcDbBlockReference
  2
_CLOSEDFILLED
 10
9.0
 20
33.620000000000005
 30
0.0
 41
0.25
 42
0.25
  0
INSERT
  5
2C9
330
2C2
100
AcDbEntity
  8
DIMENSIONS
100
AcDbBlockReference
  2
_CLOSEDFILLED
 10
9.5
 20
33.620000000000005
 30
0.0
 41
0.25
 42
0.25
 50
180.0
  0
LINE
  5
2CB
330
2C2
100
AcDbEntity
  8
0
100
AcDbLine
 10
8.75
 20
33.620000000000005
 30
0.0
 11
8.5
 21
33.620000000000005
 31
0.0
  0
LINE
  5
2CC
330
2C2
100
AcDbEntity
  8
0
100
AcDbLine
 10
9.75
 20
33.620000000000005
 30
0.0
 11
10.0
 21
33.620000000000005
 31
0.0
  0
LINE
  5
2CD
330
2C2
100
AcDbEntity
  8
0
100
AcDbLine
 10
9.0
 20
33.620000000000005
 30
0.0
 11
9.5
 21
33.620000000000005
 31
0.0
  0
MTEXT
  5
2CE
330
2C2
100
AcDbEntity
  8
DIMENSIONS
100
AcDbMText
 10
9.25
 20
34.745000000000005
 30
0.0
 40
1.0
 71
5
  1
0,5
  0
POINT
  5
2CF
330
2C2
100
AcDbEntity
  8
Defpoints
100
AcDbPoint
 10
9.0
 20
33.620000000000005
 30
0.0
  0
POINT
  5
2D0
330
2C2
100
AcDbEntity
  8
Defpoints
100
AcDbPoint
 10
9.0
 20
32.120000000000005
 30
0.0
  0
POINT
  5
2D1
330
2C2
100
AcDbEntity
  8
Defpoints
100
AcDbPoint
 10
9.5
 20
32.120000000000005
 30
0.0
  0
ENDBLK
  5
2C4
330
2C2
100
AcDbEntity
  8
0
100
AcDbBlockEnd
  0
BLOCK
  5
2D4
330
2D3
100
AcDbEntity
  8
0
100
AcDbBlockBegin
  2
*D8
 70
1
 10
0.0
 20
0.0
 30
0.0
  3
*D8
  1

  0
LINE
  5
2D6
330
2D3
100
AcDbEntity
  8
0
100
AcDbLine
 10
9.5
 20
32.120000000000005
 30
0.0
 11
9.5
 21
33.620000000000005
 31
0.0
  0
LINE
  5
2D7
330
2D3
100
AcDbEntity
  8
0
100
AcDbLine
 10
11.0
 20
32.120000000000005
 30
0.0
 11
11.0
 21
33.620000000000005
 31
0.0
  0
INSERT
  5
2D8
330
2D3
100
AcDbEntity
  8
DIMENSIONS
100
AcDbBlockReference
  2
_CLOSEDFILLED
 10
9.5
 20
33.620000000000005
 30
0.0
 41
0.25
 42
0.25
 50
180.0
  0
INSERT
  5
2DA
330
2D3
100
AcDbEntity
  8
DIMENSIONS
100
AcDbBlockReference
  2
_CLOSEDFILLED
 10
11.0
 20
33.620000000000005
 30
0.0
 41
0.25
 42
0.25
  0
LINE
  5
2DC
330
2D3
100
AcDbEntity
  8
0
100
AcDbLine
 10
9.75
 20
33.620000000000005
 30
0.0
 11
10.75
 21
33.620000000000005
 31
0.0
  0
MTEXT
  5
2DD
330
2D3
100
AcDbEntity
  8
DIMENSIONS
100
AcDbMText
 10
10.25
 20
34.745000000000005
 30
0.0
 40
1.0
 71
5
  1
1,5
  0
POINT
  5
2DE
330
2D3
100
AcDbEntity
  8
Defpoints
100
AcDbPoint
 10
9.5
 20
33.620000000000005
 30
0.0
  0
POINT
  5
2DF
330
2D3
100
AcDbEntity
  8
Defpoints
100
AcDbPoint
 10
9.5
 20
32.120000000000005
 30
0.0
  0
POINT
  5
2E0
330
2D3
100
AcDbEntity
  8
Defpoints
100
AcDbPoint
 10
11.0
 20
32.120000000000005
 30
0.0
  0
ENDBLK
  5
2D5
330
2D3
100
AcDbEntity
  8
0
100
AcDbBlockEnd
  0
BLOCK
  5
2E3
330
2E2
100
AcDbEntity
  8
0
100
AcDbBlockBegin
  2
*D9
 70
1
 10
0.0
 20
0.0
 30
0.0
  3
*D9
  1

  0
LINE
  5
2E5
330
2E2
100
AcDbEntity
  8
0
100
AcDbLine
 10
11.0
 20
32.120000000000005
 30
0.0
 11
11.0
 21
33.620000000000005
 31
0.0
  0
LINE
  5
2E6
330
2E2
100
AcDbEntity
  8
0
100
AcDbLine
 10
12.3
 20
32.120000000000005
 30
0.0
 11
12.3
 21
33.620000000000005
 31
0.0
  0
INSERT
  5
2E7
330
2E2
100
AcDbEntity
  8
DIMENSIONS
100
AcDbBlockReference
  2
_CLOSEDFILLED
 10
11.0
 20
33.620000000000005
 30
0.0
 41
0.25
 42
0.25
 50
180.0
  0
INSERT
  5
2E9
330
2E2
100
AcDbEntity
  8
DIMENSIONS
100
AcDbBlockReference
  2
_CLOSEDFILLED
 10
12.3
 20
33.620000000000005
 30
0.0
 41
0.25
 42
0.25
  0
LINE
  5
2EB
330
2E2
100
AcDbEntity
  8
0
100
AcDbLine
 10
11.25
 20
33.620000000000005
 30
0.0
 11
12.05
 21
33.620000000000005
 31
0.0
  0
MTEXT
  5
2EC
330
2E2
100
AcDbEntity
  8
DIMENSIONS
100
AcDbMText
 10
11.65
 20
34.745000000000005
 30
0.0
 40
1.0
 71
5
  1
1,3
  0
POINT
  5
2ED
330
2E2
100
AcDbEntity
  8
Defpoints
100
AcDbPoint
 10
11.0
 20
33.620000000000005
 30
0.0
  0
POINT
  5
2EE
330
2E2
100
AcDbEntity
  8
Defpoints
100
AcDbPoint
 10
11.0
 20
32.120000000000005
 30
0.0
  0
POINT
  5
2EF
330
2E2
100
AcDbEntity
  8
Defpoints
100
AcDbPoint
 10
12.3
 20
32.120000000000005
 30
0.0
  0
ENDBLK
  5
2E4
330
2E2
100
AcDbEntity
  8
0
100
AcDbBlockEnd
  0
BLOCK
  5
2F2
330
2F1
100
AcDbEntity
  8
0
100
AcDbBlockBegin
  2
*D10
 70
1
 10
0.0
 20
0.0
 30
0.0
  3
*D10
  1

  0
LINE
  5
2F4
330
2F1
100
AcDbEntity
  8
0
100
AcDbLine
 10
12.3
 20
32.120000000000005
 30
0.0
 11
12.3
 21
33.620000000000005
 31
0.0
  0
LINE
  5
2F5
330
2F1
100
AcDbEntity
  8
0
100
AcDbLine
 10
12.33
 20
32.120000000000005
 30
0.0
 11
12.33
 21
33.620000000000005
 31
0.0
  0
INSERT
  5
2F6
330
2F1
100
AcDbEntity
  8
DIMENSIONS
100
AcDbBlockReference
  2
_CLOSEDFILLED
 10
12.3
 20
33.620000000000005
 30
0.0
 41
0.25
 42
0.25
  0
INSERT
  5
2F8
330
2F1
100
AcDbEntity
  8
DIMENSIONS
100
AcDbBlockReference
  2
_CLOSEDFILLED
 10
12.33
 20
33.620000000000005
 30
0.0
 41
0.25
 42
0.25
 50
180.0
  0
LINE
  5
2FA
330
2F1
100
AcDbEntity
  8
0
100
AcDbLine
 10
12.05
 20
33.620000000000005
 30
0.0
 11
11.8
 21
33.620000000000005
 31
0.0
  0
LINE
  5
2FB
330
2F1
100
AcDbEntity
  8
0
100
AcDbLine
 10
12.58
 20
33.620000000000005
 30
0.0
 11
12.83
 21
33.620000000000005
 31
0.0
  0
LINE
  5
2FC
330
2F1
100
AcDbEntity
  8
0
100
AcDbLine
 10
12.3
 20
33.620000000000005
 30
0.0
 11
12.33
 21
33.620000000000005
 31
0.0
  0
MTEXT
  5
2FD
330
2F1
100
AcDbEntity
  8
DIMENSIONS
100
AcDbMText
 10
12.315000000000001
 20
34.745000000000005
 30
0.0
 40
1.0
 71
5
  1
0,03
  0
POINT
  5
2FE
330
2F1
100
AcDbEntity
  8
Defpoints
100
AcDbPoint
 10
12.3
 20
33.620000000000005
 30
0.0
  0
POINT
  5
2FF
330
2F1
100
AcDbEntity
  8
Defpoints
100
AcDbPoint
 10
12.3
 20
32.120000000000005
 30
0.0
  0
POINT
  5
300
330
2F1
100
AcDbEntity
  8
Defpoints
100
AcDbPoint
 10
12.33
 20
32.120000000000005
 30
0.0
  0
ENDBLK
  5
2F3
330
2F1
100
AcDbEntity
  8
0
100
AcDbBlockEnd
  0
BLOCK
  5
303
330
302
100
AcDbEntity
  8
0
100
AcDbBlockBegin
  2
*D11
 70
1
 10
0.0
 20
0.0
 30
0.0
  3
*D11
  1

  0
LINE
  5
305
330
302
100
AcDbEntity
  8
0
100
AcDbLine
 10
12.33
 20
32.120000000000005
 30
0.0
 11
12.33
 21
33.620000000000005
 31
0.0
  0
LINE
  5
306
330
302
100
AcDbEntity
  8
0
100
AcDbLine
 10
13.0
 20
32.120000000000005
 30
0.0
 11
13.0
 21
33.620000000000005
 31
0.0
  0
INSERT
  5
307
330
302
100
AcDbEntity
  8
DIMENSIONS
100
AcDbBlockReference
  2
_CLOSEDFILLED
 10
12.33
 20
33.620000000000005
 30
0.0
 41
0.25
 42
0.25
  0
INSERT
  5
309
330
302
100
AcDbEntity
  8
DIMENSIONS
100
AcDbBlockReference
  2
_CLOSEDFILLED
 10
13.0
 20
33.620000000000005
 30
0.0
 41
0.25
 42
0.25
 50
180.0
  0
LINE
  5
30B
330
302
100
AcDbEntity
  8
0
100
AcDbLine
 10
12.08
 20
33.620000000000005
 30
0.0
 11
11.83
 21
33.620000000000005
 31
0.0
  0
LINE
  5
30C
330
302
100
AcDbEntity
  8
0
100
AcDbLine
 10
13.25
 20
33.620000000000005
 30
0.0
 11
13.5
 21
33.620000000000005
 31
0.0
  0
LINE
  5
30D
330
302
100
AcDbEntity
  8
0
100
AcDbLine
 10
12.33
 20
33.620000000000005
 30
0.0
 11
13.0
 21
33.620000000000005
 31
0.0
  0
MTEXT
  5
30E
330
302
100
AcDbEntity
  8
DIMENSIONS
100
AcDbMText
 10
12.665
 20
34.745000000000005
 30
0.0
 40
1.0
 71
5
  1
0,67
  0
POINT
  5
30F
330
302
100
AcDbEntity
  8
Defpoints
100
AcDbPoint
 10
12.33
 20
33.620000000000005
 30
0.0
  0
POINT
  5
310
330
302
100
AcDbEntity
  8
Defpoints
100
AcDbPoint
 10
12.33
 20
32.120000000000005
 30
0.0
  0
POINT
  5
311
330
302
100
AcDbEntity
  8
Defpoints
100
AcDbPoint
 10
13.0
 20
32.120000000000005
 30
0.0
  0
ENDBLK
  5
304
330
302
100
AcDbEntity
  8
0
100
AcDbBlockEnd
  0
BLOCK
  5
314
330
313
100
AcDbEntity
  8
0
100
AcDbBlockBegin
  2
*D12
 70
1
 10
0.0
 20
0.0
 30
0.0
  3
*D12
  1

  0
LINE
  5
316
330
313
100
AcDbEntity
  8
0
100
AcDbLine
 10
13.0
 20
32.120000000000005
 30
0.0
 11
13.0
 21
33.620000000000005
 31
0.0
  0
LINE
  5
317
330
313
100
AcDbEntity
  8
0
100
AcDbLine
 10
16.0
 20
32.120000000000005
 30
0.0
 11
16.0
 21
33.620000000000005
 31
0.0
  0
INSERT
  5
318
330
313
100
AcDbEntity
  8
DIMENSIONS
100
AcDbBlockReference
  2
_CLOSEDFILLED
 10
13.0
 20
33.620000000000005
 30
0.0
 41
0.25
 42
0.25
 50
180.0
  0
INSERT
  5
31A
330
313
100
AcDbEntity
  8
DIMENSIONS
100
AcDbBlockReference
  2
_CLOSEDFILLED
 10
16.0
 20
33.620000000000005
 30
0.0
 41
0.25
 42
0.25
  0
LINE
  5
31C
330
313
100
AcDbEntity
  8
0
100
AcDbLine
 10
13.25
 20
33.620000000000005
 30
0.0
 11
14.0
 21
33.620000000000005
 31
0.0
  0
LINE
  5
31D
330
313
100
AcDbEntity
  8
0
100
AcDbLine
 10
15.0
 20
33.620000000000005
 30
0.0
 11
15.75
 21
33.620000000000005
 31
0.0
  0
MTEXT
  5
31E
330
313
100
AcDbEntity
  8
DIMENSIONS
100
AcDbMText
 10
14.5
 20
33.620000000000005
 30
0.0
 40
1.0
 71
5
  1
3
  0
POINT
  5
31F
330
313
100
AcDbEntity
  8
Defpoints
100
AcDbPoint
 10
13.0
 20
33.620000000000005
 30
0.0
  0
POINT
  5
320
330
313
100
AcDbEntity
  8
Defpoints
100
AcDbPoint
 10
13.0
 20
32.120000000000005
 30
0.0
  0
POINT
  5
321
330
313
100
AcDbEntity
  8
Defpoints
100
AcDbPoint
 10
16.0
 20
32.120000000000005
 30
0.0
  0
ENDBLK
  5
315
330
313
100
AcDbEntity
  8
0
100
AcDbBlockEnd
  0
BLOCK
  5
324
330
323
100
AcDbEntity
  8
0
100
AcDbBlockBegin
  2
*D13
 70
1
 10
0.0
 20
0.0
 30
0.0
  3
*D13
  1

  0
LINE
  5
326
330
323
100
AcDbEntity
  8
0
100
AcDbLine
 10
16.0
 20
5.0
 30
0.0
 11
17.5
 21
5.0
 31
0.0
  0
LINE
  5
327
330
323
100
AcDbEntity
  8
0
100
AcDbLine
 10
16.0
 20
8.8
 30
0.0
 11
17.5
 21
8.8
 31
0.0
  0
INSERT
  5
328
330
323
100
AcDbEntity
  8
DIMENSIONS
100
AcDbBlockReference
  2
_CLOSEDFILLED
 10
17.5
 20
5.0
 30
0.0
 41
0.25
 42
0.25
 50
270.0
  0
INSERT
  5
32A
330
323
100
AcDbEntity
  8
DIMENSIONS
100
AcDbBlockReference
  2
_CLOSEDFILLED
 10
17.5
 20
8.8
 30
0.0
 41
0.25
 42
0.25
 50
90.0
  0
LINE
  5
32C
330
323
100
AcDbEntity
  8
0
100
AcDbLine
 10
17.5
 20
5.25
 30
0.0
 11
17.5
 21
5.4
 31
0.0
  0
LINE
  5
32D
330
323
100
AcDbEntity
  8
0
100
AcDbLine
 10
17.5
 20
8.4
 30
0.0
 11
17.5
 21
8.55
 31
0.0
  0
MTEXT
  5
32E
330
323
100
AcDbEntity
  8
DIMENSIONS
100
AcDbMText
 10
17.5
 20
6.9
 30
0.0
 40
1.0
 71
5
  1
3,8
 50
90.0
  0
POINT
  5
32F
330
323
100
AcDbEntity
  8
Defpoints
100
AcDbPoint
 10
17.5
 20
5.0
 30
0.0
  0
POINT
  5
330
330
323
100
AcDbEntity
  8
Defpoints
100
AcDbPoint
 10
16.0
 20
5.0
 30
0.0
  0
POINT
  5
331
330
323
100
AcDbEntity
  8
Defpoints
100
AcDbPoint
 10
16.0
 20
8.8
 30
0.0
  0
ENDBLK
  5
325
330
323
100
AcDbEntity
  8
0
100
AcDbBlockEnd
  0
BLOCK
  5
334
330
333
100
AcDbEntity
  8
0
100
AcDbBlockBegin
  2
*D14
 70
1
 10
0.0
 20
0.0
 30
0.0
  3
*D14
  1

  0
LINE
  5
336
330
333
100
AcDbEntity
  8
0
100
AcDbLine
 10
16.0
 20
8.8
 30
0.0
 11
17.5
 21
8.8
 31
0.0
  0
LINE
  5
337
330
333
100
AcDbEntity
  8
0
100
AcDbLine
 10
16.0
 20
10.0
 30
0.0
 11
17.5
 21
10.0
 31
0.0
  0
INSERT
  5
338
330
333
100
AcDbEntity
  8
DIMENSIONS
100
AcDbBlockReference
  2
_CLOSEDFILLED
 10
17.5
 20
8.8
 30
0.0
 41
0.25
 42
0.25
 50
270.0
  0
INSERT
  5
33A
330
333
100
AcDbEntity
  8
DIMENSIONS
100
AcDbBlockReference
  2
_CLOSEDFILLED
 10
17.5
 20
10.0
 30
0.0
 41
0.25
 42
0.25
 50
90.0
  0
LINE
  5
33C
330
333
100
AcDbEntity
  8
0
100
AcDbLine
 10
17.5
 20
9.05
 30
0.0
 11
17.5
 21
9.75
 31
0.0
  0
MTEXT
  5
33D
330
333
100
AcDbEntity
  8
DIMENSIONS
100
AcDbMText
 10
16.375
 20
9.4
 30
0.0
 40
1.0
 71
5
  1
1,2
 50
90.0
  0
POINT
  5
33E
330
333
100
AcDbEntity
  8
Defpoints
100
AcDbPoint
 10
17.5
 20
8.8
 30
0.0
  0
POINT
  5
33F
330
333
100
AcDbEntity
  8
Defpoints
100
AcDbPoint
 10
16.0
 20
8.8
 30
0.0
  0
POINT
  5
340
330
333
100
AcDbEntity
  8
Defpoints
100
AcDbPoint
 10
16.0
 20
10.0
 30
0.0
  0
ENDBLK
  5
335
330
333
100
AcDbEntity
  8
0
100
AcDbBlockEnd
  0
BLOCK
  5
343
330
342
100
AcDbEntity
  8
0
100
AcDbBlockBegin
  2
*D15
 70
1
 10
0.0
 20
0.0
 30
0.0
  3
*D15
  1

  0
LINE
  5
345
330
342
100
AcDbEntity
  8
0
100
AcDbLine
 10
16.0
 20
10.0
 30
0.0
 11
17.5
 21
10.0
 31
0.0
  0
LINE
  5
346
330
342
100
AcDbEntity
  8
0
100
AcDbLine
 10
16.0
 20
12.4
 30
0.0
 11
17.5
 21
12.4
 31
0.0
  0
INSERT
  5
347
330
342
100
AcDbEntity
  8
DIMENSIONS
100
AcDbBlockReference
  2
_CLOSEDFILLED
 10
17.5
 20
10.0
 30
0.0
 41
0.25
 42
0.25
 50
270.0
  0
INSERT
  5
349
330
342
100
AcDbEntity
  8
DIMENSIONS
100
AcDbBlockReference
  2
_CLOSEDFILLED
 10
17.5
 20
12.4
 30
0.0
 41
0.25
 42
0.25
 50
90.0
  0
LINE
  5
34B
330
342
100
AcDbEntity
  8
0
100
AcDbLine
 10
17.5
 20
10.25
 30
0.0
 11
17.5
 21
12.15
 31
0.0
  0
MTEXT
  5
34C
330
342
100
AcDbEntity
  8
DIMENSIONS
100
AcDbMText
 10
16.375
 20
11.2
 30
0.0
 40
1.0
 71
5
  1
2,4
 50
90.0
  0
POINT
  5
34D
330
342
100
AcDbEntity
  8
Defpoints
100
AcDbPoint
 10
17.5
 20
10.0
 30
0.0
  0
POINT
  5
34E
330
342
100
AcDbEntity
  8
Defpoints
100
AcDbPoint
 10
16.0
 20
10.0
 30
0.0
  0
POINT
  5
34F
330
342
100
AcDbEntity
  8
Defpoints
100
AcDbPoint
 10
16.0
 20
12.4
 30
0.0
  0
ENDBLK
  5
344
330
342
100
AcDbEntity
  8
0
100
AcDbBlockEnd
  0
BLOCK
  5
352
330
351
100
AcDbEntity
  8
0
100
AcDbBlockBegin
  2
*D16
 70
1
 10
0.0
 20
0.0
 30
0.0
  3
*D16
  1

  0
LINE
  5
354
330
351
100
AcDbEntity
  8
0
100
AcDbLine
 10
16.0
 20
12.4
 30
0.0
 11
17.5
 21
12.4
 31
0.0
  0
LINE
  5
355
330
351
100
AcDbEntity
  8
0
100
AcDbLine
 10
16.0
 20
14.4
 30
0.0
 11
17.5
 21
14.4
 31
0.0
  0
INSERT
  5
356
330
351
100
AcDbEntity
  8
DIMENSIONS
100
AcDbBlockReference
  2
_CLOSEDFILLED
 10
17.5
 20
12.4
 30
0.0
 41
0.25
 42
0.25
 50
270.0
  0
INSERT
  5
358
330
351
100
AcDbEntity
  8
DIMENSIONS
100
AcDbBlockReference
  2
_CLOSEDFILLED
 10
17.5
 20
14.4
 30
0.0
 41
0.25
 42
0.25
 50
90.0
  0
LINE
  5
35A
330
351
100
AcDbEntity
  8
0
100
AcDbLine
 10
17.5
 20
12.65
 30
0.0
 11
17.5
 21
12.9
 31
0.0
  0
LINE
  5
35B
330
351
100
AcDbEntity
  8
0
100
AcDbLine
 10
17.5
 20
13.9
 30
0.0
 11
17.5
 21
14.15
 31
0.0
  0
MTEXT
  5
35C
330
351
100
AcDbEntity
  8
DIMENSIONS
100
AcDbMText
 10
17.5
 20
13.4
 30
0.0
 40
1.0
 71
5
  1
2
 50
90.0
  0
POINT
  5
35D
330
351
100
AcDbEntity
  8
Defpoints
100
AcDbPoint
 10
17.5
 20
12.4
 30
0.0
  0
POINT
  5
35E
330
351
100
AcDbEntity
  8
Defpoints
100
AcDbPoint
 10
16.0
 20
12.4
 30
0.0
  0
POINT
  5
35F
330
351
100
AcDbEntity
  8
Defpoints
100
AcDbPoint
 10
16.0
 20
14.4
 30
0.0
  0
ENDBLK
  5
353
330
351
100
AcDbEntity
  8
0
100
AcDbBlockEnd
  0
BLOCK
  5
362
330
361
100
AcDbEntity
  8
0
100
AcDbBlockBegin
  2
*D17
 70
1
 10
0.0
 20
0.0
 30
0.0
  3
*D17
  1

  0
LINE
  5
364
330
361
100
AcDbEntity
  8
0
100
AcDbLine
 10
16.0
 20
14.4
 30
0.0
 11
17.5
 21
14.4
 31
0.0
  0
LINE
  5
365
330
361
100
AcDbEntity
  8
0
100
AcDbLine
 10
16.0
 20
14.9
 30
0.0
 11
17.5
 21
14.9
 31
0.0
  0
INSERT
  5
366
330
361
100
AcDbEntity
  8
DIMENSIONS
100
AcDbBlockReference
  2
_CLOSEDFILLED
 10
17.5
 20
14.4
 30
0.0
 41
0.25
 42
0.25
 50
90.0
  0
INSERT
  5
368
330
361
100
AcDbEntity
  8
DIMENSIONS
100
AcDbBlockReference
  2
_CLOSEDFILLED
 10
17.5
 20
14.9
 30
0.0
 41
0.25
 42
0.25
 50
270.0
  0
LINE
  5
36A
330
361
100
AcDbEntity
  8
0
100
AcDbLine
 10
17.5
 20
14.15
 30
0.0
 11
17.5
 21
13.9
 31
0.0
  0
LINE
  5
36B
330
361
100
AcDbEntity
  8
0
100
AcDbLine
 10
17.5
 20
15.15
 30
0.0
 11
17.5
 21
15.4
 31
0.0
  0
LINE
  5
36C
330
361
100
AcDbEntity
  8
0
100
AcDbLine
 10
17.5
 20
14.4
 30
0.0
 11
17.5
 21
14.9
 31
0.0
  0
MTEXT
  5
36D
330
361
100
AcDbEntity
  8
DIMENSIONS
100
AcDbMText
 10
16.375
 20
14.65
 30
0.0
 40
1.0
 71
5
  1
0,5
 50
90.0
  0
POINT
  5
36E
330
361
100
AcDbEntity
  8
Defpoints
100
AcDbPoint
 10
17.5
 20
14.4
 30
0.0
  0
POINT
  5
36F
330
361
100
AcDbEntity
  8
Defpoints
100
AcDbPoint
 10
16.0
 20
14.4
 30
0.0
  0
POINT
  5
370
330
361
100
AcDbEntity
  8
Defpoints
100
AcDbPoint
 10
16.0
 20
14.9
 30
0.0
  0
ENDBLK
  5
363
330
361
100
AcDbEntity
  8
0
100
AcDbBlockEnd
  0
BLOCK
  5
373
330
372
100
AcDbEntity
  8
0
100
AcDbBlockBegin
  2
*D18
 70
1
 10
0.0
 20
0.0
 30
0.0
  3
*D18
  1

  0
LINE
  5
375
330
372
100
AcDbEntity
  8
0
100
AcDbLine
 10
16.0
 20
14.9
 30
0.0
 11
17.5
 21
14.9
 31
0.0
  0
LINE
  5
376
330
372
100
AcDbEntity
  8
0
100
AcDbLine
 10
16.0
 20
16.2
 30
0.0
 11
17.5
 21
16.2
 31
0.0
  0
INSERT
  5
377
330
372
100
AcDbEntity
  8
DIMENSIONS
100
AcDbBlockReference
  2
_CLOSEDFILLED
 10
17.5
 20
14.9
 30
0.0
 41
0.25
 42
0.25
 50
270.0
  0
INSERT
  5
379
330
372
100
AcDbEntity
  8
DIMENSIONS
100
AcDbBlockReference
  2
_CLOSEDFILLED
 10
17.5
 20
16.2
 30
0.0
 41
0.25
 42
0.25
 50
90.0
  0
LINE
  5
37B
330
372
100
AcDbEntity
  8
0
100
AcDbLine
 10
17.5
 20
15.15
 30
0.0
 11
17.5
 21
15.95
 31
0.0
  0
MTEXT
  5
37C
330
372
100
AcDbEntity
  8
DIMENSIONS
100
AcDbMText
 10
16.375
 20
15.55
 30
0.0
 40
1.0
 71
5
  1
1,3
 50
90.0
  0
POINT
  5
37D
330
372
100
AcDbEntity
  8
Defpoints
100
AcDbPoint
 10
17.5
 20
14.9
 30
0.0
  0
POINT
  5
37E
330
372
100
AcDbEntity
  8
Defpoints
100
AcDbPoint
 10
16.0
 20
14.9
 30
0.0
  0
POINT
  5
37F
330
372
100
AcDbEntity
  8
Defpoints
100
AcDbPoint
 10
16.0
 20
16.2
 30
0.0
  0
ENDBLK
  5
374
330
372
100
AcDbEntity
  8
0
100
AcDbBlockEnd
  0
BLOCK
  5
382
330
381
100
AcDbEntity
  8
0
100
AcDbBlockBegin
  2
*D19
 70
1
 10
0.0
 20
0.0
 30
0.0
  3
*D19
  1

  0
LINE
  5
384
330
381
100
AcDbEntity
  8
0
100
AcDbLine
 10
16.0
 20
16.2
 30
0.0
 11
17.5
 21
16.2
 31
0.0
  0
LINE
  5
385
330
381
100
AcDbEntity
  8
0
100
AcDbLine
 10
16.0
 20
19.7
 30
0.0
 11
17.5
 21
19.7
 31
0.0
  0
INSERT
  5
386
330
381
100
AcDbEntity
  8
DIMENSIONS
100
AcDbBlockReference
  2
_CLOSEDFILLED
 10
17.5
 20
16.2
 30
0.0
 41
0.25
 42
0.25
 50
270.0
  0
INSERT
  5
388
330
381
100
AcDbEntity
  8
DIMENSIONS
100
AcDbBlockReference
  2
_CLOSEDFILLED
 10
17.5
 20
19.7
 30
0.0
 41
0.25
 42
0.25
 50
90.0
  0
MTEXT
  5
38A
330
381
100
AcDbEntity
  8
DIMENSIONS
100
AcDbMText
 10
17.5
 20
17.95
 30
0.0
 40
1.0
 71
5
  1
3,5
 50
90.0
  0
POINT
  5
38B
330
381
100
AcDbEntity
  8
Defpoints
100
AcDbPoint
 10
17.5
 20
16.2
 30
0.0
  0
POINT
  5
38C
330
381
100
AcDbEntity
  8
Defpoints
100
AcDbPoint
 10
16.0
 20
16.2
 30
0.0
  0
POINT
  5
38D
330
381
100
AcDbEntity
  8
Defpoints
100
AcDbPoint
 10
16.0
 20
19.7
 30
0.0
  0
ENDBLK
  5
383
330
381
100
AcDbEntity
  8
0
100
AcDbBlockEnd
  0
BLOCK
  5
390
330
38F
100
AcDbEntity
  8
0
100
AcDbBlockBegin
  2
*D20
 70
1
 10
0.0
 20
0.0
 30
0.0
  3
*D20
  1

  0
LINE
  5
392
330
38F
100
AcDbEntity
  8
0
100
AcDbLine
 10
16.0
 20
19.7
 30
0.0
 11
17.5
 21
19.7
 31
0.0
  0
LINE
  5
393
330
38F
100
AcDbEntity
  8
0
100
AcDbLine
 10
16.0
 20
20.7
 30
0.0
 11
17.5
 21
20.7
 31
0.0
  0
INSERT
  5
394
330
38F
100
AcDbEntity
  8
DIMENSIONS
100
AcDbBlockReference
  2
_CLOSEDFILLED
 10
17.5
 20
19.7
 30
0.0
 41
0.25
 42
0.25
 50
90.0
  0
INSERT
  5
396
330
38F
100
AcDbEntity
  8
DIMENSIONS
100
AcDbBlockReference
  2
_CLOSEDFILLED
 10
17.5
 20
20.7
 30
0.0
 41
0.25
 42
0.25
 50
270.0
  0
LINE
  5
398
330
38F
100
AcDbEntity
  8
0
100
AcDbLine
 10
17.5
 20
19.45
 30
0.0
 11
17.5
 21
19.2
 31
0.0
  0
LINE
  5
399
330
38F
100
AcDbEntity
  8
0
100
AcDbLine
 10
17.5
 20
20.95
 30
0.0
 11
17.5
 21
21.2
 31
0.0
  0
LINE
  5
39A
330
38F
100
AcDbEntity
  8
0
100
AcDbLine
 10
17.5
 20
19.7
 30
0.0
 11
17.5
 21
20.7
 31
0.0
  0
MTEXT
  5
39B
330
38F
100
AcDbEntity
  8
DIMENSIONS
100
AcDbMText
 10
16.375
 20
20.2
 30
0.0
 40
1.0
 71
5
  1
1
 50
90.0
  0
POINT
  5
39C
330
38F
100
AcDbEntity
  8
Defpoints
100
AcDbPoint
 10
17.5
 20
19.7
 30
0.0
  0
POINT
  5
39D
330
38F
100
AcDbEntity
  8
Defpoints
100
AcDbPoint
 10
16.0
 20
19.7
 30
0.0
  0
POINT
  5
39E
330
38F
100
AcDbEntity
  8
Defpoints
100
AcDbPoint
 10
16.0
 20
20.7
 30
0.0
  0
ENDBLK
  5
391
330
38F
100
AcDbEntity
  8
0
100
AcDbBlockEnd
  0
BLOCK
  5
3A1
330
3A0
100
AcDbEntity
  8
0
100
AcDbBlockBegin
  2
*D21
 70
1
 10
0.0
 20
0.0
 30
0.0
  3
*D21
  1

  0
LINE
  5
3A3
330
3A0
100
AcDbEntity
  8
0
100
AcDbLine
 10
16.0
 20
20.7
 30
0.0
 11
17.5
 21
20.7
 31
0.0
  0
LINE
  5
3A4
330
3A0
100
AcDbEntity
  8
0
100
AcDbLine
 10
16.0
 20
22.2
 30
0.0
 11
17.5
 21
22.2
 31
0.0
  0
INSERT
  5
3A5
330
3A0
100
AcDbEntity
  8
DIMENSIONS
100
AcDbBlockReference
  2
_CLOSEDFILLED
 10
17.5
 20
20.7
 30
0.0
 41
0.25
 42
0.25
 50
270.0
  0
INSERT
  5
3A7
330
3A0
100
AcDbEntity
  8
DIMENSIONS
100
AcDbBlockReference
  2
_CLOSEDFILLED
 10
17.5
 20
22.2
 30
0.0
 41
0.25
 42
0.25
 50
90.0
  0
LINE
  5
3A9
330
3A0
100
AcDbEntity
  8
0
100
AcDbLine
 10
17.5
 20
20.95
 30
0.0
 11
17.5
 21
21.95
 31
0.0
  0
MTEXT
  5
3AA
330
3A0
100
AcDbEntity
  8
DIMENSIONS
100
AcDbMText
 10
16.375
 20
21.45
 30
0.0
 40
1.0
 71
5
  1
1,5
 50
90.0
  0
POINT
  5
3AB
330
3A0
100
AcDbEntity
  8
Defpoints
100
AcDbPoint
 10
17.5
 20
20.7
 30
0.0
  0
POINT
  5
3AC
330
3A0
100
AcDbEntity
  8
Defpoints
100
AcDbPoint
 10
16.0
 20
20.7
 30
0.0
  0
POINT
  5
3AD
330
3A0
100
AcDbEntity
  8
Defpoints
100
AcDbPoint
 10
16.0
 20
22.2
 30
0.0
  0
ENDBLK
  5
3A2
330
3A0
100
AcDbEntity
  8
0
100
AcDbBlockEnd
  0
BLOCK
  5
3B0
330
3AF
100
AcDbEntity
  8
0
100
AcDbBlockBegin
  2
*D22
 70
1
 10
0.0
 20
0.0
 30
0.0
  3
*D22
  1

  0
LINE
  5
3B2
330
3AF
100
AcDbEntity
  8
0
100
AcDbLine
 10
16.0
 20
22.2
 30
0.0
 11
17.5
 21
22.2
 31
0.0
  0
LINE
  5
3B3
330
3AF
100
AcDbEntity
  8
0
100
AcDbLine
 10
16.0
 20
24.6
 30
0.0
 11
17.5
 21
24.6
 31
0.0
  0
INSERT
  5
3B4
330
3AF
100
AcDbEntity
  8
DIMENSIONS
100
AcDbBlockReference
  2
_CLOSEDFILLED
 10
17.5
 20
22.2
 30
0.0
 41
0.25
 42
0.25
 50
270.0
  0
INSERT
  5
3B6
330
3AF
100
AcDbEntity
  8
DIMENSIONS
100
AcDbBlockReference
  2
_CLOSEDFILLED
 10
17.5
 20
24.6
 30
0.0
 41
0.25
 42
0.25
 50
90.0
  0
LINE
  5
3B8
330
3AF
100
AcDbEntity
  8
0
100
AcDbLine
 10
17.5
 20
22.45
 30
0.0
 11
17.5
 21
24.35
 31
0.0
  0
MTEXT
  5
3B9
330
3AF
100
AcDbEntity
  8
DIMENSIONS
100
AcDbMText
 10
16.375
 20
23.4
 30
0.0
 40
1.0
 71
5
  1
2,4
 50
90.0
  0
POINT
  5
3BA
330
3AF
100
AcDbEntity
  8
Defpoints
100
AcDbPoint
 10
17.5
 20
22.2
 30
0.0
  0
POINT
  5
3BB
330
3AF
100
AcDbEntity
  8
Defpoints
100
AcDbPoint
 10
16.0
 20
22.2
 30
0.0
  0
POINT
  5
3BC
330
3AF
100
AcDbEntity
  8
Defpoints
100
AcDbPoint
 10
16.0
 20
24.6
 30
0.0
  0
ENDBLK
  5
3B1
330
3AF
100
AcDbEntity
  8
0
100
AcDbBlockEnd
  0
BLOCK
  5
3BF
330
3BE
100
AcDbEntity
  8
0
100
AcDbBlockBegin
  2
*D23
 70
1
 10
0.0
 20
0.0
 30
0.0
  3
*D23
  1

  0
LINE
  5
3C1
330
3BE
100
AcDbEntity
  8
0
100
AcDbLine
 10
16.0
 20
24.6
 30
0.0
 11
17.5
 21
24.6
 31
0.0
  0
LINE
  5
3C2
330
3BE
100
AcDbEntity
  8
0
100
AcDbLine
 10
16.0
 20
26.8
 30
0.0
 11
17.5
 21
26.8
 31
0.0
  0
INSERT
  5
3C3
330
3BE
100
AcDbEntity
  8
DIMENSIONS
100
AcDbBlockReference
  2
_CLOSEDFILLED
 10
17.5
 20
24.6
 30
0.0
 41
0.25
 42
0.25
 50
270.0
  0
INSERT
  5
3C5
330
3BE
100
AcDbEntity
  8
DIMENSIONS
100
AcDbBlockReference
  2
_CLOSEDFILLED
 10
17.5
 20
26.8
 30
0.0
 41
0.25
 42
0.25
 50
90.0
  0
LINE
  5
3C7
330
3BE
100
AcDbEntity
  8
0
100
AcDbLine
 10
17.5
 20
24.85
 30
0.0
 11
17.5
 21
26.55
 31
0.0
  0
MTEXT
  5
3C8
330
3BE
100
AcDbEntity
  8
DIMENSIONS
100
AcDbMText
 10
16.375
 20
25.700000000000003
 30
0.0
 40
1.0
 71
5
  1
2,2
 50
90.0
  0
POINT
  5
3C9
330
3BE
100
AcDbEntity
  8
Defpoints
100
AcDbPoint
 10
17.5
 20
24.6
 30
0.0
  0
POINT
  5
3CA
330
3BE
100
AcDbEntity
  8
Defpoints
100
AcDbPoint
 10
16.0
 20
24.6
 30
0.0
  0
POINT
  5
3CB
330
3BE
100
AcDbEntity
  8
Defpoints
100
AcDbPoint
 10
16.0
 20
26.8
 30
0.0
  0
ENDBLK
  5
3C0
330
3BE
100
AcDbEntity
  8
0
100
AcDbBlockEnd
  0
BLOCK
  5
3CE
330
3CD
100
AcDbEntity
  8
0
100
AcDbBlockBegin
  2
*D24
 70
1
 10
0.0
 20
0.0
 30
0.0
  3
*D24
  1

  0
LINE
  5
3D0
330
3CD
100
AcDbEntity
  8
0
100
AcDbLine
 10
16.0
 20
26.8
 30
0.0
 11
17.5
 21
26.8
 31
0.0
  0
LINE
  5
3D1
330
3CD
100
AcDbEntity
  8
0
100
AcDbLine
 10
16.0
 20
28.1
 30
0.0
 11
17.5
 21
28.1
 31
0.0
  0
INSERT
  5
3D2
330
3CD
100
AcDbEntity
  8
DIMENSIONS
100
AcDbBlockReference
  2
_CLOSEDFILLED
 10
17.5
 20
26.8
 30
0.0
 41
0.25
 42
0.25
 50
270.0
  0
INSERT
  5
3D4
330
3CD
100
AcDbEntity
  8
DIMENSIONS
100
AcDbBlockReference
  2
_CLOSEDFILLED
 10
17.5
 20
28.1
 30
0.0
 41
0.25
 42
0.25
 50
90.0
  0
LINE
  5
3D6
330
3CD
100
AcDbEntity
  8
0
100
AcDbLine
 10
17.5
 20
27.05
 30
0.0
 11
17.5
 21
27.85
 31
0.0
  0
MTEXT
  5
3D7
330
3CD
100
AcDbEntity
  8
DIMENSIONS
100
AcDbMText
 10
16.375
 20
27.450000000000003
 30
0.0
 40
1.0
 71
5
  1
1,3
 50
90.0
  0
POINT
  5
3D8
330
3CD
100
AcDbEntity
  8
Defpoints
100
AcDbPoint
 10
17.5
 20
26.8
 30
0.0
  0
POINT
  5
3D9
330
3CD
100
AcDbEntity
  8
Defpoints
100
AcDbPoint
 10
16.0
 20
26.8
 30
0.0
  0
POINT
  5
3DA
330
3CD
100
AcDbEntity
  8
Defpoints
100
AcDbPoint
 10
16.0
 20
28.1
 30
0.0
  0
ENDBLK
  5
3CF
330
3CD
100
AcDbEntity
  8
0
100
AcDbBlockEnd
  0
BLOCK
  5
3DD
330
3DC
100
AcDbEntity
  8
0
100
AcDbBlockBegin
  2
*D25
 70
1
 10
0.0
 20
0.0
 30
0.0
  3
*D25
  1

  0
LINE
  5
3DF
330
3DC
100
AcDbEntity
  8
0
100
AcDbLine
 10
16.0
 20
28.1
 30
0.0
 11
17.5
 21
28.1
 31
0.0
  0
LINE
  5
3E0
330
3DC
100
AcDbEntity
  8
0
100
AcDbLine
 10
16.0
 20
28.62
 30
0.0
 11
17.5
 21
28.62
 31
0.0
  0
INSERT
  5
3E1
330
3DC
100
AcDbEntity
  8
DIMENSIONS
100
AcDbBlockReference
  2
_CLOSEDFILLED
 10
17.5
 20
28.1
 30
0.0
 41
0.25
 42
0.25
 50
90.0
  0
INSERT
  5
3E3
330
3DC
100
AcDbEntity
  8
DIMENSIONS
100
AcDbBlockReference
  2
_CLOSEDFILLED
 10
17.5
 20
28.62
 30
0.0
 41
0.25
 42
0.25
 50
270.0
  0
LINE
  5
3E5
330
3DC
100
AcDbEntity
  8
0
100
AcDbLine
 10
17.5
 20
27.85
 30
0.0
 11
17.5
 21
27.6
 31
0.0
  0
LINE
  5
3E6
330
3DC
100
AcDbEntity
  8
0
100
AcDbLine
 10
17.5
 20
28.87
 30
0.0
 11
17.5
 21
29.12
 31
0.0
  0
LINE
  5
3E7
330
3DC
100
AcDbEntity
  8
0
100
AcDbLine
 10
17.5
 20
28.1
 30
0.0
 11
17.5
 21
28.62
 31
0.0
  0
MTEXT
  5
3E8
330
3DC
100
AcDbEntity
  8
DIMENSIONS
100
AcDbMText
 10
16.375
 20
28.36
 30
0.0
 40
1.0
 71
5
  1
0,52
 50
90.0
  0
POINT
  5
3E9
330
3DC
100
AcDbEntity
  8
Defpoints
100
AcDbPoint
 10
17.5
 20
28.1
 30
0.0
  0
POINT
  5
3EA
330
3DC
100
AcDbEntity
  8
Defpoints
100
AcDbPoint
 10
16.0
 20
28.1
 30
0.0
  0
POINT
  5
3EB
330
3DC
100
AcDbEntity
  8
Defpoints
100
AcDbPoint
 10
16.0
 20
28.62
 30
0.0
  0
ENDBLK
  5
3DE
330
3DC
100
AcDbEntity
  8
0
100
AcDbBlockEnd
  0
BLOCK
  5
3EE
330
3ED
100
AcDbEntity
  8
0
100
AcDbBlockBegin
  2
*D26
 70
1
 10
0.0
 20
0.0
 30
0.0
  3
*D26
  1

  0
LINE
  5
3F0
330
3ED
100
AcDbEntity
  8
0
100
AcDbLine
 10
16.0
 20
28.62
 30
0.0
 11
17.5
 21
28.62
 31
0.0
  0
LINE
  5
3F1
330
3ED
100
AcDbEntity
  8
0
100
AcDbLine
 10
16.0
 20
32.120000000000005
 30
0.0
 11
17.5
 21
32.120000000000005
 31
0.0
  0
INSERT
  5
3F2
330
3ED
100
AcDbEntity
  8
DIMENSIONS
100
AcDbBlockReference
  2
_CLOSEDFILLED
 10
17.5
 20
28.62
 30
0.0
 41
0.25
 42
0.25
 50
270.0
  0
INSERT
  5
3F4
330
3ED
100
AcDbEntity
  8
DIMENSIONS
100
AcDbBlockReference
  2
_CLOSEDFILLED
 10
17.5
 20
32.120000000000005
 30
0.0
 41
0.25
 42
0.25
 50
90.0
  0
MTEXT
  5
3F6
330
3ED
100
AcDbEntity
  8
DIMENSIONS
100
AcDbMText
 10
17.5
 20
30.370000000000005
 30
0.0
 40
1.0
 71
5
  1
3,5
 50
90.0
  0
POINT
  5
3F7
330
3ED
100
AcDbEntity
  8
Defpoints
100
AcDbPoint
 10
17.5
 20
28.62
 30
0.0
  0
POINT
  5
3F8
330
3ED
100
AcDbEntity
  8
Defpoints
100
AcDbPoint
 10
16.0
 20
28.62
 30
0.0
  0
POINT
  5
3F9
330
3ED
100
AcDbEntity
  8
Defpoints
100
AcDbPoint
 10
16.0
 20
32.120000000000005
 30
0.0
  0
ENDBLK
  5
3EF
330
3ED
100
AcDbEntity
  8
0
100
AcDbBlockEnd
  0
BLOCK
  5
3FC
330
3FB
100
AcDbEntity
  8
0
100
AcDbBlockBegin
  2
*D27
 70
1
 10
0.0
 20
0.0
 30
0.0
  3
*D27
  1

  0
LINE
  5
3FE
330
3FB
100
AcDbEntity
  8
0
100
AcDbLine
 10
3.0
 20
5.0
 30
0.0
 11
3.0
 21
8.0
 31
0.0
  0
LINE
  5
3FF
330
3FB
100
AcDbEntity
  8
0
100
AcDbLine
 10
16.0
 20
5.0
 30
0.0
 11
16.0
 21
8.0
 31
0.0
  0
INSERT
  5
400
330
3FB
100
AcDbEntity
  8
DIMENSIONS
100
AcDbBlockReference
  2
_CLOSEDFILLED
 10
3.0
 20
8.0
 30
0.0
 41
0.25
 42
0.25
 50
180.0
  0
INSERT
  5
402
330
3FB
100
AcDbEntity
  8
DIMENSIONS
100
AcDbBlockReference
  2
_CLOSEDFILLED
 10
16.0
 20
8.0
 30
0.0
 41
0.25
 42
0.25
  0
LINE
  5
404
330
3FB
100
AcDbEntity
  8
0
100
AcDbLine
 10
3.25
 20
8.0
 30
0.0
 11
8.5
 21
8.0
 31
0.0
  0
LINE
  5
405
330
3FB
100
AcDbEntity
  8
0
100
AcDbLine
 10
10.5
 20
8.0
 30
0.0
 11
15.75
 21
8.0
 31
0.0
  0
MTEXT
  5
406
330
3FB
100
AcDbEntity
  8
DIMENSIONS
100
AcDbMText
 10
9.5
 20
8.0
 30
0.0
 40
1.0
 71
5
  1
13
  0
POINT
  5
407
330
3FB
100
AcDbEntity
  8
Defpoints
100
AcDbPoint
 10
3.0
 20
8.0
 30
0.0
  0
POINT
  5
408
330
3FB
100
AcDbEntity
  8
Defpoints
100
AcDbPoint
 10
3.0
 20
5.0
 30
0.0
  0
POINT
  5
409
330
3FB
100
AcDbEntity
  8
Defpoints
100
AcDbPoint
 10
16.0
 20
5.0
 30
0.0
  0
ENDBLK
  5
3FD
330
3FB
100
AcDbEntity
  8
0
100
AcDbBlockEnd
  0
BLOCK
  5
40C
330
40B
100
AcDbEntity
  8
0
100
AcDbBlockBegin
  2
*D28
 70
1
 10
0.0
 20
0.0
 30
0.0
  3
*D28
  1

  0
LINE
  5
40E
330
40B
100
AcDbEntity
  8
0
100
AcDbLine
 10
3.0
 20
5.0
 30
0.0
 11
6.0
 21
5.0
 31
0.0
  0
LINE
  5
40F
330
40B
100
AcDbEntity
  8
0
100
AcDbLine
 10
3.0
 20
32.120000000000005
 30
0.0
 11
6.0
 21
32.120000000000005
 31
0.0
  0
INSERT
  5
410
330
40B
100
AcDbEntity
  8
DIMENSIONS
100
AcDbBlockReference
  2
_CLOSEDFILLED
 10
6.0
 20
5.0
 30
0.0
 41
0.25
 42
0.25
 50
270.0
  0
INSERT
  5
412
330
40B
100
AcDbEntity
  8
DIMENSIONS
100
AcDbBlockReference
  2
_CLOSEDFILLED
 10
6.0
 20
32.120000000000005
 30
0.0
 41
0.25
 42
0.25
 50
90.0
  0
LINE
  5
414
330
40B
100
AcDbEntity
  8
0
100
AcDbLine
 10
6.0
 20
5.25
 30
0.0
 11
6.0
 21
16.060000000000002
 31
0.0
  0
LINE
  5
415
330
40B
100
AcDbEntity
  8
0
100
AcDbLine
 10
6.0
 20
21.060000000000002
 30
0.0
 11
6.0
 21
31.870000000000005
 31
0.0
  0
MTEXT
  5
416
330
40B
100
AcDbEntity
  8
DIMENSIONS
100
AcDbMText
 10
6.0
 20
18.560000000000002
 30
0.0
 40
1.0
 71
5
  1
27,12
 50
90.0
  0
POINT
  5
417
330
40B
100
AcDbEntity
  8
Defpoints
100
AcDbPoint
 10
6.0
 20
5.0
 30
0.0
  0
POINT
  5
418
330
40B
100
AcDbEntity
  8
Defpoints
100
AcDbPoint
 10
3.0
 20
5.0
 30
0.0
  0
POINT
  5
419
330
40B
100
AcDbEntity
  8
Defpoints
100
AcDbPoint
 10
3.0
 20
32.120000000000005
 30
0.0
  0
ENDBLK
  5
40D
330
40B
100
AcDbEntity
  8
0
100
AcDbBlockEnd
  0
BLOCK
  5
41C
330
41B
100
AcDbEntity
  8
0
100
AcDbBlockBegin
  2
*D29
 70
1
 10
0.0
 20
0.0
 30
0.0
  3
*D29
  1

  0
LINE
  5
41E
330
41B
100
AcDbEntity
  8
0
100
AcDbLine
 10
0.0
 20
0.0
 30
0.0
 11
0.0
 21
-4.5
 31
0.0
  0
LINE
  5
41F
330
41B
100
AcDbEntity
  8
0
100
AcDbLine
 10
15.0
 20
0.0
 30
0.0
 11
15.0
 21
-4.5
 31
0.0
  0
INSERT
  5
420
330
41B
100
AcDbEntity
  8
DIMENSIONS
100
AcDbBlockReference
  2
_CLOSEDFILLED
 10
0.0
 20
-4.5
 30
0.0
 41
0.25
 42
0.25
 50
180.0
  0
INSERT
  5
422
330
41B
100
AcDbEntity
  8
DIMENSIONS
100
AcDbBlockReference
  2
_CLOSEDFILLED
 10
15.0
 20
-4.5
 30
0.0
 41
0.25
 42
0.25
  0
LINE
  5
424
330
41B
100
AcDbEntity
  8
0
100
AcDbLine
 10
0.25
 20
-4.5
 30
0.0
 11
6.5
 21
-4.5
 31
0.0
  0
LINE
  5
425
330
41B
100
AcDbEntity
  8
0
100
AcDbLine
 10
8.5
 20
-4.5
 30
0.0
 11
14.75
 21
-4.5
 31
0.0
  0
MTEXT
  5
426
330
41B
100
AcDbEntity
  8
DIMENSIONS
100
AcDbMText
 10
7.5
 20
-4.5
 30
0.0
 40
1.0
 71
5
  1
15
  0
POINT
  5
427
330
41B
100
AcDbEntity
  8
Defpoints
100
AcDbPoint
 10
0.0
 20
-4.5
 30
0.0
  0
POINT
  5
428
330
41B
100
AcDbEntity
  8
Defpoints
100
AcDbPoint
 10
0.0
 20
0.0
 30
0.0
  0
POINT
  5
429
330
41B
100
AcDbEntity
  8
Defpoints
100
AcDbPoint
 10
15.0
 20
0.0
 30
0.0
  0
ENDBLK
  5
41D
330
41B
100
AcDbEntity
  8
0
100
AcDbBlockEnd
  0
BLOCK
  5
42C
330
42B
100
AcDbEntity
  8
0
100
AcDbBlockBegin
  2
*D30
 70
1
 10
0.0
 20
0.0
 30
0.0
  3
*D30
  1

  0
LINE
  5
42E
330
42B
100
AcDbEntity
  8
0
100
AcDbLine
 10
0.0
 20
0.0
 30
0.0
 11
-4.5
 21
0.0
 31
0.0
  0
LINE
  5
42F
330
42B
100
AcDbEntity
  8
0
100
AcDbLine
 10
0.0
 20
35.0
 30
0.0
 11
-4.5
 21
35.0
 31
0.0
  0
INSERT
  5
430
330
42B
100
AcDbEntity
  8
DIMENSIONS
100
AcDbBlockReference
  2
_CLOSEDFILLED
 10
-4.5
 20
0.0
 30
0.0
 41
0.25
 42
0.25
 50
270.0
  0
INSERT
  5
432
330
42B
100
AcDbEntity
  8
DIMENSIONS
100
AcDbBlockReference
  2
_CLOSEDFILLED
 10
-4.5
 20
35.0
 30
0.0
 41
0.25
 42
0.25
 50
90.0
  0
LINE
  5
434
330
42B
100
AcDbEntity
  8
0
100
AcDbLine
 10
-4.5
 20
0.25
 30
0.0
 11
-4.5
 21
16.5
 31
0.0
  0
LINE
  5
435
330
42B
100
AcDbEntity
  8
0
100
AcDbLine
 10
-4.5
 20
18.5
 30
0.0
 11
-4.5
 21
34.75
 31
0.0
  0
MTEXT
  5
436
330
42B
100
AcDbEntity
  8
DIMENSIONS
100
AcDbMText
 10
-4.5
 20
17.5
 30
0.0
 40
1.0
 71
5
  1
35
 50
90.0
  0
POINT
  5
437
330
42B
100
AcDbEntity
  8
Defpoints
100
AcDbPoint
 10
-4.5
 20
0.0
 30
0.0
  0
POINT
  5
438
330
42B
100
AcDbEntity
  8
Defpoints
100
AcDbPoint
 10
0.0
 20
0.0
 30
0.0
  0
POINT
  5
439
330
42B
100
AcDbEntity
  8
Defpoints
100
AcDbPoint
 10
0.0
 20
35.0
 30
0.0
  0
ENDBLK
  5
42D
330
42B
100
AcDbEntity
  8
0
100
AcDbBlockEnd
  0
BLOCK
  5
43C
330
43B
100
AcDbEntity
  8
0
100
AcDbBlockBegin
  2
*D31
 70
1
 10
0.0
 20
0.0
 30
0.0
  3
*D31
  1

  0
LINE
  5
43E
330
43B
100
AcDbEntity
  8
0
100
AcDbLine
 10
0.0
 20
5.0
 30
0.0
 11
0.0
 21
4.6
 31
0.0
  0
LINE
  5
43F
330
43B
100
AcDbEntity
  8
0
100
AcDbLine
 10
3.0
 20
5.0
 30
0.0
 11
3.0
 21
4.6
 31
0.0
  0
INSERT
  5
440
330
43B
100
AcDbEntity
  8
DIMENSIONS
100
AcDbBlockReference
  2
_CLOSEDFILLED
 10
0.0
 20
4.6
 30
0.0
 41
0.25
 42
0.25
 50
180.0
  0
INSERT
  5
442
330
43B
100
AcDbEntity
  8
DIMENSIONS
100
AcDbBlockReference
  2
_CLOSEDFILLED
 10
3.0
 20
4.6
 30
0.0
 41
0.25
 42
0.25
  0
LINE
  5
444
330
43B
100
AcDbEntity
  8
0
100
AcDbLine
 10
0.25
 20
4.6
 30
0.0
 11
1.0
 21
4.6
 31
0.0
  0
LINE
  5
445
330
43B
100
AcDbEntity
  8
0
100
AcDbLine
 10
2.0
 20
4.6
 30
0.0
 11
2.75
 21
4.6
 31
0.0
  0
MTEXT
  5
446
330
43B
100
AcDbEntity
  8
DIMENSIONS
100
AcDbMText
 10
1.5
 20
4.6
 30
0.0
 40
1.0
 71
5
  1
3
  0
POINT
  5
447
330
43B
100
AcDbEntity
  8
Defpoints
100
AcDbPoint
 10
0.0
 20
4.6
 30
0.0
  0
POINT
  5
448
330
43B
100
AcDbEntity
  8
Defpoints
100
AcDbPoint
 10
0.0
 20
5.0
 30
0.0
  0
POINT
  5
449
330
43B
100
AcDbEntity
  8
Defpoints
100
AcDbPoint
 10
3.0
 20
5.0
 30
0.0
  0
ENDBLK
  5
43D
330
43B
100
AcDbEntity
  8
0
100
AcDbBlockEnd
  0
BLOCK
  5
44C
330
44B
100
AcDbEntity
  8
0
100
AcDbBlockBegin
  2
*D32
 70
1
 10
0.0
 20
0.0
 30
0.0
  3
*D32
  1

  0
LINE
  5
44E
330
44B
100
AcDbEntity
  8
0
100
AcDbLine
 10
3.0
 20
0.0
 30
0.0
 11
2.6
 21
0.0
 31
0.0
  0
LINE
  5
44F
330
44B
100
AcDbEntity
  8
0
100
AcDbLine
 10
3.0
 20
5.0
 30
0.0
 11
2.6
 21
5.0
 31
0.0
  0
INSERT
  5
450
330
44B
100
AcDbEntity
  8
DIMENSIONS
100
AcDbBlockReference
  2
_CLOSEDFILLED
 10
2.6
 20
0.0
 30
0.0
 41
0.25
 42
0.25
 50
270.0
  0
INSERT
  5
452
330
44B
100
AcDbEntity
  8
DIMENSIONS
100
AcDbBlockReference
  2
_CLOSEDFILLED
 10
2.6
 20
5.0
 30
0.0
 41
0.25
 42
0.25
 50
90.0
  0
LINE
  5
454
330
44B
100
AcDbEntity
  8
0
100
AcDbLine
 10
2.6
 20
0.25
 30
0.0
 11
2.6
 21
2.0
 31
0.0
  0
LINE
  5
455
330
44B
100
AcDbEntity
  8
0
100
AcDbLine
 10
2.6
 20
3.0
 30
0.0
 11
2.6
 21
4.75
 31
0.0
  0
MTEXT
  5
456
330
44B
100
AcDbEntity
  8
DIMENSIONS
100
AcDbMText
 10
2.6
 20
2.5
 30
0.0
 40
1.0
 71
5
  1
5
 50
90.0
  0
POINT
  5
457
330
44B
100
AcDbEntity
  8
Defpoints
100
AcDbPoint
 10
2.6
 20
0.0
 30
0.0
  0
POINT
  5
458
330
44B
100
AcDbEntity
  8
Defpoints
100
AcDbPoint
 10
3.0
 20
0.0
 30
0.0
  0
POINT
  5
459
330
44B
100
AcDbEntity
  8
Defpoints
100
AcDbPoint
 10
3.0
 20
5.0
 30
0.0
  0
ENDBLK
  5
44D
330
44B
100
AcDbEntity
  8
0
100
AcDbBlockEnd
  0
ENDSEC
  0
SECTION
  2
ENTITIES
  0
LWPOLYLINE
  5
43
330
17
100
AcDbEntity
  8
LOT
100
AcDbPolyline
 90
4
 70
1
 10
0.0
 20
0.0
 10
15.0
 20
0.0
 10
15.0
 20
35.0
 10
0.0
 20
35.0
  0
LWPOLYLINE
  5
44
330
17
100
AcDbEntity
  8
SETBACKS
100
AcDbPolyline
 90
4
 70
1
 10
3.0
 20
5.0
 10
12.0
 20
5.0
 10
12.0
 20
32.0
 10
3.0
 20
32.0
  0
LWPOLYLINE
  5
45
330
17
100
AcDbEntity
  8
WALLS
100
AcDbPolyline
 90
4
 70
1
 10
3.0
 20
5.0
 10
16.0
 20
5.0
 10
16.0
 20
5.2
 10
3.0
 20
5.2
  0
HATCH
  5
46
330
17
100
AcDbEntity
  8
WALLS
 62
7
100
AcDbHatch
 10
0.0
 20
0.0
 30
0.0
210
0.0
220
0.0
230
1.0
  2
SOLID
 70
1
 71
0
 91
1
 92
3
 72
0
 73
1
 93
4
 10
3.0
 20
5.0
 10
16.0
 20
5.0
 10
16.0
 20
5.2
 10
3.0
 20
5.2
 97
0
 75
1
 76
1
 98
0
  0
LWPOLYLINE
  5
47
330
17
100
AcDbEntity
  8
WALLS
100
AcDbPolyline
 90
4
 70
1
 10
3.0
 20
31.920000000000005
 10
16.0
 20
31.920000000000005
 10
16.0
 20
32.120000000000005
 10
3.0
 20
32.120000000000005
  0
HATCH
  5
48
330
17
100
AcDbEntity
  8
WALLS
 62
7
100
AcDbHatch
 10
0.0
 20
0.0
 30
0.0
210
0.0
220
0.0
230
1.0
  2
SOLID
 70
1
 71
0
 91
1
 92
3
 72
0
 73
1
 93
4
 10
3.0
 20
31.920000000000005
 10
16.0
 20
31.920000000000005
 10
16.0
 20
32.120000000000005
 10
3.0
 20
32.120000000000005
 97
0
 75
1
 76
1
 98
0
  0
LWPOLYLINE
  5
49
330
17
100
AcDbEntity
  8
WALLS
100
AcDbPolyline
 90
4
 70
1
 10
3.0
 20
5.2
 10
3.2
 20
5.2
 10
3.2
 20
31.92
 10
3.0
 20
31.92
  0
HATCH
  5
4A
330
17
100
AcDbEntity
  8
WALLS
 62
7
100
AcDbHatch
 10
0.0
 20
0.0
 30
0.0
210
0.0
220
0.0
230
1.0
  2
SOLID
 70
1
 71
0
 91
1
 92
3
 72
0
 73
1
 93
4
 10
3.0
 20
5.2
 10
3.2
 20
5.2
 10
3.2
 20
31.92
 10
3.0
 20
31.92
 97
0
 75
1
 76
1
 98
0
  0
LWPOLYLINE
  5
4B
330
17
100
AcDbEntity
  8
WALLS
100
AcDbPolyline
 90
4
 70
1
 10
15.8
 20
5.2
 10
16.0
 20
5.2
 10
16.0
 20
31.92
 10
15.8
 20
31.92
  0
HATCH
  5
4C
330
17
100
AcDbEntity
  8
WALLS
 62
7
100
AcDbHatch
 10
0.0
 20
0.0
 30
0.0
210
0.0
220
0.0
230
1.0
  2
SOLID
 70
1
 71
0
 91
1
 92
3
 72
0
 73
1
 93
4
 10
15.8
 20
5.2
 10
16.0
 20
5.2
 10
16.0
 20
31.92
 10
15.8
 20
31.92
 97
0
 75
1
 76
1
 98
0
  0
LINE
  5
4D
330
17
100
AcDbEntity
  8
GRID
100
AcDbLine
 10
3.0
 20
3.0
 30
0.0
 11
3.0
 21
34.120000000000005
 31
0.0
  0
CIRCLE
  5
4E
330
17
100
AcDbEntity
  8
GRID
100
AcDbCircle
 10
3.0
 20
2.3
 30
0.0
 40
0.45
  0
MTEXT
  5
4F
330
17
100
AcDbEntity
  8
GRID
100
AcDbMText
 10
3.0
 20
2.3
 30
0.0
 40
0.16799999999999998
 71
5
  1
1
  0
CIRCLE
  5
50
330
17
100
AcDbEntity
  8
GRID
100
AcDbCircle
 10
3.0
 20
34.82000000000001
 30
0.0
 40
0.45
  0
MTEXT
  5
51
330
17
100
AcDbEntity
  8
GRID
100
AcDbMText
 10
3.0
 20
34.82000000000001
 30
0.0
 40
0.16799999999999998
 71
5
  1
1
  0
LINE
  5
52
330
17
100
AcDbEntity
  8
GRID
100
AcDbLine
 10
6.0
 20
3.0
 30
0.0
 11
6.0
 21
34.120000000000005
 31
0.0
  0
CIRCLE
  5
53
330
17
100
AcDbEntity
  8
GRID
100
AcDbCircle
 10
6.0
 20
2.3
 30
0.0
 40
0.45
  0
MTEXT
  5
54
330
17
100
AcDbEntity
  8
GRID
100
AcDbMText
 10
6.0
 20
2.3
 30
0.0
 40
0.16799999999999998
 71
5
  1
2
  0
CIRCLE
  5
55
330
17
100
AcDbEntity
  8
GRID
100
AcDbCircle
 10
6.0
 20
34.82000000000001
 30
0.0
 40
0.45
  0
MTEXT
  5
56
330
17
100
AcDbEntity
  8
GRID
100
AcDbMText
 10
6.0
 20
34.82000000000001
 30
0.0
 40
0.16799999999999998
 71
5
  1
2
  0
LINE
  5
57
330
17
100
AcDbEntity
  8
GRID
100
AcDbLine
 10
6.33
 20
3.0
 30
0.0
 11
6.33
 21
34.120000000000005
 31
0.0
  0
CIRCLE
  5
58
330
17
100
AcDbEntity
  8
GRID
100
AcDbCircle
 10
6.33
 20
2.3
 30
0.0
 40
0.45
  0
MTEXT
  5
59
330
17
100
AcDbEntity
  8
GRID
100
AcDbMText
 10
6.33
 20
2.3
 30
0.0
 40
0.16799999999999998
 71
5
  1
3
  0
CIRCLE
  5
5A
330
17
100
AcDbEntity
  8
GRID
100
AcDbCircle
 10
6.33
 20
34.82000000000001
 30
0.0
 40
0.45
  0
MTEXT
  5
5B
330
17
100
AcDbEntity
  8
GRID
100
AcDbMText
 10
6.33
 20
34.82000000000001
 30
0.0
 40
0.16799999999999998
 71
5
  1
3
  0
LINE
  5
5C
330
17
100
AcDbEntity
  8
GRID
100
AcDbLine
 10
7.0
 20
3.0
 30
0.0
 11
7.0
 21
34.120000000000005
 31
0.0
  0
CIRCLE
  5
5D
330
17
100
AcDbEntity
  8
GRID
100
AcDbCircle
 10
7.0
 20
2.3
 30
0.0
 40
0.45
  0
MTEXT
  5
5E
330
17
100
AcDbEntity
  8
GRID
100
AcDbMText
 10
7.0
 20
2.3
 30
0.0
 40
0.16799999999999998
 71
5
  1
4
  0
CIRCLE
  5
5F
330
17
100
AcDbEntity
  8
GRID
100
AcDbCircle
 10
7.0
 20
34.82000000000001
 30
0.0
 40
0.45
  0
MTEXT
  5
60
330
17
100
AcDbEntity
  8
GRID
100
AcDbMText
 10
7.0
 20
34.82000000000001
 30
0.0
 40
0.16799999999999998
 71
5
  1
4
  0
LINE
  5
61
330
17
100
AcDbEntity
  8
GRID
100
AcDbLine
 10
7.5
 20
3.0
 30
0.0
 11
7.5
 21
34.120000000000005
 31
0.0
  0
CIRCLE
  5
62
330
17
100
AcDbEntity
  8
GRID
100
AcDbCircle
 10
7.5
 20
2.3
 30
0.0
 40
0.45
  0
MTEXT
  5
63
330
17
100
AcDbEntity
  8
GRID
100
AcDbMText
 10
7.5
 20
2.3
 30
0.0
 40
0.16799999999999998
 71
5
  1
5
  0
CIRCLE
  5
64
330
17
100
AcDbEntity
  8
GRID
100
AcDbCircle
 10
7.5
 20
34.82000000000001
 30
0.0
 40
0.45
  0
MTEXT
  5
65
330
17
100
AcDbEntity
  8
GRID
100
AcDbMText
 10
7.5
 20
34.82000000000001
 30
0.0
 40
0.16799999999999998
 71
5
  1
5
  0
LINE
  5
66
330
17
100
AcDbEntity
  8
GRID
100
AcDbLine
 10
8.5
 20
3.0
 30
0.0
 11
8.5
 21
34.120000000000005
 31
0.0
  0
CIRCLE
  5
67
330
17
100
AcDbEntity
  8
GRID
100
AcDbCircle
 10
8.5
 20
2.3
 30
0.0
 40
0.45
  0
MTEXT
  5
68
330
17
100
AcDbEntity
  8
GRID
100
AcDbMText
 10
8.5
 20
2.3
 30
0.0
 40
0.16799999999999998
 71
5
  1
6
  0
CIRCLE
  5
69
330
17
100
AcDbEntity
  8
GRID
100
AcDbCircle
 10
8.5
 20
34.82000000000001
 30
0.0
 40
0.45
  0
MTEXT
  5
6A
330
17
100
AcDbEntity
  8
GRID
100
AcDbMText
 10
8.5
 20
34.82000000000001
 30
0.0
 40
0.16799999999999998
 71
5
  1
6
  0
LINE
  5
6B
330
17
100
AcDbEntity
  8
GRID
100
AcDbLine
 10
9.0
 20
3.0
 30
0.0
 11
9.0
 21
34.120000000000005
 31
0.0
  0
CIRCLE
  5
6C
330
17
100
AcDbEntity
  8
GRID
100
AcDbCircle
 10
9.0
 20
2.3
 30
0.0
 40
0.45
  0
MTEXT
  5
6D
330
17
100
AcDbEntity
  8
GRID
100
AcDbMText
 10
9.0
 20
2.3
 30
0.0
 40
0.16799999999999998
 71
5
  1
7
  0
CIRCLE
  5
6E
330
17
100
AcDbEntity
  8
GRID
100
AcDbCircle
 10
9.0
 20
34.82000000000001
 30
0.0
 40
0.45
  0
MTEXT
  5
6F
330
17
100
AcDbEntity
  8
GRID
100
AcDbMText
 10
9.0
 20
34.82000000000001
 30
0.0
 40
0.16799999999999998
 71
5
  1
7
  0
LINE
  5
70
330
17
100
AcDbEntity
  8
GRID
100
AcDbLine
 10
9.5
 20
3.0
 30
0.0
 11
9.5
 21
34.120000000000005
 31
0.0
  0
CIRCLE
  5
71
330
17
100
AcDbEntity
  8
GRID
100
AcDbCircle
 10
9.5
 20
2.3
 30
0.0
 40
0.45
  0
MTEXT
  5
72
330
17
100
AcDbEntity
  8
GRID
100
AcDbMText
 10
9.5
 20
2.3
 30
0.0
 40
0.16799999999999998
 71
5
  1
8
  0
CIRCLE
  5
73
330
17
100
AcDbEntity
  8
GRID
100
AcDbCircle
 10
9.5
 20
34.82000000000001
 30
0.0
 40
0.45
  0
MTEXT
  5
74
330
17
100
AcDbEntity
  8
GRID
100
AcDbMText
 10
9.5
 20
34.82000000000001
 30
0.0
 40
0.16799999999999998
 71
5
  1
8
  0
LINE
  5
75
330
17
100
AcDbEntity
  8
GRID
100
AcDbLine
 10
11.0
 20
3.0
 30
0.0
 11
11.0
 21
34.120000000000005
 31
0.0
  0
CIRCLE
  5
76
330
17
100
AcDbEntity
  8
GRID
100
AcDbCircle
 10
11.0
 20
2.3
 30
0.0
 40
0.45
  0
MTEXT
  5
77
330
17
100
AcDbEntity
  8
GRID
100
AcDbMText
 10
11.0
 20
2.3
 30
0.0
 40
0.16799999999999998
 71
5
  1
9
  0
CIRCLE
  5
78
330
17
100
AcDbEntity
  8
GRID
100
AcDbCircle
 10
11.0
 20
34.82000000000001
 30
0.0
 40
0.45
  0
MTEXT
  5
79
330
17
100
AcDbEntity
  8
GRID
100
AcDbMText
 10
11.0
 20
34.82000000000001
 30
0.0
 40
0.16799999999999998
 71
5
  1
9
  0
LINE
  5
7A
330
17
100
AcDbEntity
  8
GRID
100
AcDbLine
 10
12.3
 20
3.0
 30
0.0
 11
12.3
 21
34.120000000000005
 31
0.0
  0
CIRCLE
  5
7B
330
17
100
AcDbEntity
  8
GRID
100
AcDbCircle
 10
12.3
 20
2.3
 30
0.0
 40
0.45
  0
MTEXT
  5
7C
330
17
100
AcDbEntity
  8
GRID
100
AcDbMText
 10
12.3
 20
2.3
 30
0.0
 40
0.16799999999999998
 71
5
  1
10
  0
CIRCLE
  5
7D
330
17
100
AcDbEntity
  8
GRID
100
AcDbCircle
 10
12.3
 20
34.82000000000001
 30
0.0
 40
0.45
  0
MTEXT
  5
7E
330
17
100
AcDbEntity
  8
GRID
100
AcDbMText
 10
12.3
 20
34.82000000000001
 30
0.0
 40
0.16799999999999998
 71
5
  1
10
  0
LINE
  5
7F
330
17
100
AcDbEntity
  8
GRID
100
AcDbLine
 10
12.33
 20
3.0
 30
0.0
 11
12.33
 21
34.120000000000005
 31
0.0
  0
CIRCLE
  5
80
330
17
100
AcDbEntity
  8
GRID
100
AcDbCircle
 10
12.33
 20
2.3
 30
0.0
 40
0.45
  0
MTEXT
  5
81
330
17
100
AcDbEntity
  8
GRID
100
AcDbMText
 10
12.33
 20
2.3
 30
0.0
 40
0.16799999999999998
 71
5
  1
11
  0
CIRCLE
  5
82
330
17
100
AcDbEntity
  8
GRID
100
AcDbCircle
 10
12.33
 20
34.82000000000001
 30
0.0
 40
0.45
  0
MTEXT
  5
83
330
17
100
AcDbEntity
  8
GRID
100
AcDbMText
 10
12.33
 20
34.82000000000001
 30
0.0
 40
0.16799999999999998
 71
5
  1
11
  0
LINE
  5
84
330
17
100
AcDbEntity
  8
GRID
100
AcDbLine
 10
13.0
 20
3.0
 30
0.0
 11
13.0
 21
34.120000000000005
 31
0.0
  0
CIRCLE
  5
85
330
17
100
AcDbEntity
  8
GRID
100
AcDbCircle
 10
13.0
 20
2.3
 30
0.0
 40
0.45
  0
MTEXT
  5
86
330
17
100
AcDbEntity
  8
GRID
100
AcDbMText
 10
13.0
 20
2.3
 30
0.0
 40
0.16799999999999998
 71
5
  1
12
  0
CIRCLE
  5
87
330
17
100
AcDbEntity
  8
GRID
100
AcDbCircle
 10
13.0
 20
34.82000000000001
 30
0.0
 40
0.45
  0
MTEXT
  5
88
330
17
100
AcDbEntity
  8
GRID
100
AcDbMText
 10
13.0
 20
34.82000000000001
 30
0.0
 40
0.16799999999999998
 71
5
  1
12
  0
LINE
  5
89
330
17
100
AcDbEntity
  8
GRID
100
AcDbLine
 10
16.0
 20
3.0
 30
0.0
 11
16.0
 21
34.120000000000005
 31
0.0
  0
CIRCLE
  5
8A
330
17
100
AcDbEntity
  8
GRID
100
AcDbCircle
 10
16.0
 20
2.3
 30
0.0
 40
0.45
  0
MTEXT
  5
8B
330
17
100
AcDbEntity
  8
GRID
100
AcDbMText
 10
16.0
 20
2.3
 30
0.0
 40
0.16799999999999998
 71
5
  1
13
  0
CIRCLE
  5
8C
330
17
100
AcDbEntity
  8
GRID
100
AcDbCircle
 10
16.0
 20
34.82000000000001
 30
0.0
 40
0.45
  0
MTEXT
  5
8D
330
17
100
AcDbEntity
  8
GRID
100
AcDbMText
 10
16.0
 20
34.82000000000001
 30
0.0
 40
0.16799999999999998
 71
5
  1
13
  0
LINE
  5
8E
330
17
100
AcDbEntity
  8
GRID
100
AcDbLine
 10
1.0
 20
5.0
 30
0.0
 11
18.0
 21
5.0
 31
0.0
  0
CIRCLE
  5
8F
330
17
100
AcDbEntity
  8
GRID
100
AcDbCircle
 10
0.30000000000000004
 20
5.0
 30
0.0
 40
0.45
  0
MTEXT
  5
90
330
17
100
AcDbEntity
  8
GRID
100
AcDbMText
 10
0.30000000000000004
 20
5.0
 30
0.0
 40
0.16799999999999998
 71
5
  1
A
  0
CIRCLE
  5
91
330
17
100
AcDbEntity
  8
GRID
100
AcDbCircle
 10
18.7
 20
5.0
 30
0.0
 40
0.45
  0
MTEXT
  5
92
330
17
100
AcDbEntity
  8
GRID
100
AcDbMText
 10
18.7
 20
5.0
 30
0.0
 40
0.16799999999999998
 71
5
  1
A
  0
LINE
  5
93
330
17
100
AcDbEntity
  8
GRID
100
AcDbLine
 10
1.0
 20
8.8
 30
0.0
 11
18.0
 21
8.8
 31
0.0
  0
CIRCLE
  5
94
330
17
100
AcDbEntity
  8
GRID
100
AcDbCircle
 10
0.30000000000000004
 20
8.8
 30
0.0
 40
0.45
  0
MTEXT
  5
95
330
17
100
AcDbEntity
  8
GRID
100
AcDbMText
 10
0.30000000000000004
 20
8.8
 30
0.0
 40
0.16799999999999998
 71
5
  1
B
  0
CIRCLE
  5
96
330
17
100
AcDbEntity
  8
GRID
100
AcDbCircle
 10
18.7
 20
8.8
 30
0.0
 40
0.45
  0
MTEXT
  5
97
330
17
100
AcDbEntity
  8
GRID
100
AcDbMText
 10
18.7
 20
8.8
 30
0.0
 40
0.16799999999999998
 71
5
  1
B
  0
LINE
  5
98
330
17
100
AcDbEntity
  8
GRID
100
AcDbLine
 10
1.0
 20
10.0
 30
0.0
 11
18.0
 21
10.0
 31
0.0
  0
CIRCLE
  5
99
330
17
100
AcDbEntity
  8
GRID
100
AcDbCircle
 10
0.30000000000000004
 20
10.0
 30
0.0
 40
0.45
  0
MTEXT
  5
9A
330
17
100
AcDbEntity
  8
GRID
100
AcDbMText
 10
0.30000000000000004
 20
10.0
 30
0.0
 40
0.16799999999999998
 71
5
  1
C
  0
CIRCLE
  5
9B
330
17
100
AcDbEntity
  8
GRID
100
AcDbCircle
 10
18.7
 20
10.0
 30
0.0
 40
0.45
  0
MTEXT
  5
9C
330
17
100
AcDbEntity
  8
GRID
100
AcDbMText
 10
18.7
 20
10.0
 30
0.0
 40
0.16799999999999998
 71
5
  1
C
  0
LINE
  5
9D
330
17
100
AcDbEntity
  8
GRID
100
AcDbLine
 10
1.0
 20
12.4
 30
0.0
 11
18.0
 21
12.4
 31
0.0
  0
CIRCLE
  5
9E
330
17
100
AcDbEntity
  8
GRID
100
AcDbCircle
 10
0.30000000000000004
 20
12.4
 30
0.0
 40
0.45
  0
MTEXT
  5
9F
330
17
100
AcDbEntity
  8
GRID
100
AcDbMText
 10
0.30000000000000004
 20
12.4
 30
0.0
 40
0.16799999999999998
 71
5
  1
D
  0
CIRCLE
  5
A0
330
17
100
AcDbEntity
  8
GRID
100
AcDbCircle
 10
18.7
 20
12.4
 30
0.0
 40
0.45
  0
MTEXT
  5
A1
330
17
100
AcDbEntity
  8
GRID
100
AcDbMText
 10
18.7
 20
12.4
 30
0.0
 40
0.16799999999999998
 71
5
  1
D
  0
LINE
  5
A2
330
17
100
AcDbEntity
  8
GRID
100
AcDbLine
 10
1.0
 20
14.4
 30
0.0
 11
18.0
 21
14.4
 31
0.0
  0
CIRCLE
  5
A3
330
17
100
AcDbEntity
  8
GRID
100
AcDbCircle
 10
0.30000000000000004
 20
14.4
 30
0.0
 40
0.45
  0
MTEXT
  5
A4
330
17
100
AcDbEntity
  8
GRID
100
AcDbMText
 10
0.30000000000000004
 20
14.4
 30
0.0
 40
0.16799999999999998
 71
5
  1
E
  0
CIRCLE
  5
A5
330
17
100
AcDbEntity
  8
GRID
100
AcDbCircle
 10
18.7
 20
14.4
 30
0.0
 40
0.45
  0
MTEXT
  5
A6
330
17
100
AcDbEntity
  8
GRID
100
AcDbMText
 10
18.7
 20
14.4
 30
0.0
 40
0.16799999999999998
 71
5
  1
E
  0
LINE
  5
A7
330
17
100
AcDbEntity
  8
GRID
100
AcDbLine
 10
1.0
 20
14.9
 30
0.0
 11
18.0
 21
14.9
 31
0.0
  0
CIRCLE
  5
A8
330
17
100
AcDbEntity
  8
GRID
100
AcDbCircle
 10
0.30000000000000004
 20
14.9
 30
0.0
 40
0.45
  0
MTEXT
  5
A9
330
17
100
AcDbEntity
  8
GRID
100
AcDbMText
 10
0.30000000000000004
 20
14.9
 30
0.0
 40
0.16799999999999998
 71
5
  1
F
  0
CIRCLE
  5
AA
330
17
100
AcDbEntity
  8
GRID
100
AcDbCircle
 10
18.7
 20
14.9
 30
0.0
 40
0.45
  0
MTEXT
  5
AB
330
17
100
AcDbEntity
  8
GRID
100
AcDbMText
 10
18.7
 20
14.9
 30
0.0
 40
0.16799999999999998
 71
5
  1
F
  0
LINE
  5
AC
330
17
100
AcDbEntity
  8
GRID
100
AcDbLine
 10
1.0
 20
16.2
 30
0.0
 11
18.0
 21
16.2
 31
0.0
  0
CIRCLE
  5
AD
330
17
100
AcDbEntity
  8
GRID
100
AcDbCircle
 10
0.30000000000000004
 20
16.2
 30
0.0
 40
0.45
  0
MTEXT
  5
AE
330
17
100
AcDbEntity
  8
GRID
100
AcDbMText
 10
0.30000000000000004
 20
16.2
 30
0.0
 40
0.16799999999999998
 71
5
  1
G
  0
CIRCLE
  5
AF
330
17
100
AcDbEntity
  8
GRID
100
AcDbCircle
 10
18.7
 20
16.2
 30
0.0
 40
0.45
  0
MTEXT
  5
B0
330
17
100
AcDbEntity
  8
GRID
100
AcDbMText
 10
18.7
 20
16.2
 30
0.0
 40
0.16799999999999998
 71
5
  1
G
  0
LINE
  5
B1
330
17
100
AcDbEntity
  8
GRID
100
AcDbLine
 10
1.0
 20
19.7
 30
0.0
 11
18.0
 21
19.7
 31
0.0
  0
CIRCLE
  5
B2
330
17
100
AcDbEntity
  8
GRID
100
AcDbCircle
 10
0.30000000000000004
 20
19.7
 30
0.0
 40
0.45
  0
MTEXT
  5
B3
330
17
100
AcDbEntity
  8
GRID
100
AcDbMText
 10
0.30000000000000004
 20
19.7
 30
0.0
 40
0.16799999999999998
 71
5
  1
H
  0
CIRCLE
  5
B4
330
17
100
AcDbEntity
  8
GRID
100
AcDbCircle
 10
18.7
 20
19.7
 30
0.0
 40
0.45
  0
MTEXT
  5
B5
330
17
100
AcDbEntity
  8
GRID
100
AcDbMText
 10
18.7
 20
19.7
 30
0.0
 40
0.16799999999999998
 71
5
  1
H
  0
LINE
  5
B6
330
17
100
AcDbEntity
  8
GRID
100
AcDbLine
 10
1.0
 20
20.7
 30
0.0
 11
18.0
 21
20.7
 31
0.0
  0
CIRCLE
  5
B7
330
17
100
AcDbEntity
  8
GRID
100
AcDbCircle
 10
0.30000000000000004
 20
20.7
 30
0.0
 40
0.45
  0
MTEXT
  5
B8
330
17
100
AcDbEntity
  8
GRID
100
AcDbMText
 10
0.30000000000000004
 20
20.7
 30
0.0
 40
0.16799999999999998
 71
5
  1
I
  0
CIRCLE
  5
B9
330
17
100
AcDbEntity
  8
GRID
100
AcDbCircle
 10
18.7
 20
20.7
 30
0.0
 40
0.45
  0
MTEXT
  5
BA
330
17
100
AcDbEntity
  8
GRID
100
AcDbMText
 10
18.7
 20
20.7
 30
0.0
 40
0.16799999999999998
 71
5
  1
I
  0
LINE
  5
BB
330
17
100
AcDbEntity
  8
GRID
100
AcDbLine
 10
1.0
 20
22.2
 30
0.0
 11
18.0
 21
22.2
 31
0.0
  0
CIRCLE
  5
BC
330
17
100
AcDbEntity
  8
GRID
100
AcDbCircle
 10
0.30000000000000004
 20
22.2
 30
0.0
 40
0.45
  0
MTEXT
  5
BD
330
17
100
AcDbEntity
  8
GRID
100
AcDbMText
 10
0.30000000000000004
 20
22.2
 30
0.0
 40
0.16799999999999998
 71
5
  1
J
  0
CIRCLE
  5
BE
330
17
100
AcDbEntity
  8
GRID
100
AcDbCircle
 10
18.7
 20
22.2
 30
0.0
 40
0.45
  0
MTEXT
  5
BF
330
17
100
AcDbEntity
  8
GRID
100
AcDbMText
 10
18.7
 20
22.2
 30
0.0
 40
0.16799999999999998
 71
5
  1
J
  0
LINE
  5
C0
330
17
100
AcDbEntity
  8
GRID
100
AcDbLine
 10
1.0
 20
24.6
 30
0.0
 11
18.0
 21
24.6
 31
0.0
  0
CIRCLE
  5
C1
330
17
100
AcDbEntity
  8
GRID
100
AcDbCircle
 10
0.30000000000000004
 20
24.6
 30
0.0
 40
0.45
  0
MTEXT
  5
C2
330
17
100
AcDbEntity
  8
GRID
100
AcDbMText
 10
0.30000000000000004
 20
24.6
 30
0.0
 40
0.16799999999999998
 71
5
  1
K
  0
CIRCLE
  5
C3
330
17
100
AcDbEntity
  8
GRID
100
AcDbCircle
 10
18.7
 20
24.6
 30
0.0
 40
0.45
  0
MTEXT
  5
C4
330
17
100
AcDbEntity
  8
GRID
100
AcDbMText
 10
18.7
 20
24.6
 30
0.0
 40
0.16799999999999998
 71
5
  1
K
  0
LINE
  5
C5
330
17
100
AcDbEntity
  8
GRID
100
AcDbLine
 10
1.0
 20
26.8
 30
0.0
 11
18.0
 21
26.8
 31
0.0
  0
CIRCLE
  5
C6
330
17
100
AcDbEntity
  8
GRID
100
AcDbCircle
 10
0.30000000000000004
 20
26.8
 30
0.0
 40
0.45
  0
MTEXT
  5
C7
330
17
100
AcDbEntity
  8
GRID
100
AcDbMText
 10
0.30000000000000004
 20
26.8
 30
0.0
 40
0.16799999999999998
 71
5
  1
L
  0
CIRCLE
  5
C8
330
17
100
AcDbEntity
  8
GRID
100
AcDbCircle
 10
18.7
 20
26.8
 30
0.0
 40
0.45
  0
MTEXT
  5
C9
330
17
100
AcDbEntity
  8
GRID
100
AcDbMText
 10
18.7
 20
26.8
 30
0.0
 40
0.16799999999999998
 71
5
  1
L
  0
LINE
  5
CA
330
17
100
AcDbEntity
  8
GRID
100
AcDbLine
 10
1.0
 20
28.1
 30
0.0
 11
18.0
 21
28.1
 31
0.0
  0
CIRCLE
  5
CB
330
17
100
AcDbEntity
  8
GRID
100
AcDbCircle
 10
0.30000000000000004
 20
28.1
 30
0.0
 40
0.45
  0
MTEXT
  5
CC
330
17
100
AcDbEntity
  8
GRID
100
AcDbMText
 10
0.30000000000000004
 20
28.1
 30
0.0
 40
0.16799999999999998
 71
5
  1
M
  0
CIRCLE
  5
CD
330
17
100
AcDbEntity
  8
GRID
100
AcDbCircle
 10
18.7
 20
28.1
 30
0.0
 40
0.45
  0
MTEXT
  5
CE
330
17
100
AcDbEntity
  8
GRID
100
AcDbMText
 10
18.7
 20
28.1
 30
0.0
 40
0.16799999999999998
 71
5
  1
M
  0
LINE
  5
CF
330
17
100
AcDbEntity
  8
GRID
100
AcDbLine
 10
1.0
 20
28.62
 30
0.0
 11
18.0
 21
28.62
 31
0.0
  0
CIRCLE
  5
D0
330
17
100
AcDbEntity
  8
GRID
100
AcDbCircle
 10
0.30000000000000004
 20
28.62
 30
0.0
 40
0.45
  0
MTEXT
  5
D1
330
17
100
AcDbEntity
  8
GRID
100
AcDbMText
 10
0.30000000000000004
 20
28.62
 30
0.0
 40
0.16799999999999998
 71
5
  1
N
  0
CIRCLE
  5
D2
330
17
100
AcDbEntity
  8
GRID
100
AcDbCircle
 10
18.7
 20
28.62
 30
0.0
 40
0.45
  0
MTEXT
  5
D3
330
17
100
AcDbEntity
  8
GRID
100
AcDbMText
 10
18.7
 20
28.62
 30
0.0
 40
0.16799999999999998
 71
5
  1
N
  0
LINE
  5
D4
330
17
100
AcDbEntity
  8
GRID
100
AcDbLine
 10
1.0
 20
32.120000000000005
 30
0.0
 11
18.0
 21
32.120000000000005
 31
0.0
  0
CIRCLE
  5
D5
330
17
100
AcDbEntity
  8
GRID
100
AcDbCircle
 10
0.30000000000000004
 20
32.120000000000005
 30
0.0
 40
0.45
  0
MTEXT
  5
D6
330
17
100
AcDbEntity
  8
GRID
100
AcDbMText
 10
0.30000000000000004
 20
32.120000000000005
 30
0.0
 40
0.16799999999999998
 71
5
  1
O
  0
CIRCLE
  5
D7
330
17
100
AcDbEntity
  8
GRID
100
AcDbCircle
 10
18.7
 20
32.120000000000005
 30
0.0
 40
0.45
  0
MTEXT
  5
D8
330
17
100
AcDbEntity
  8
GRID
100
AcDbMText
 10
18.7
 20
32.120000000000005
 30
0.0
 40
0.16799999999999998
 71
5
  1
O
  0
LWPOLYLINE
  5
D9
330
17
100
AcDbEntity
  8
STRUCTURE
100
AcDbPolyline
 90
4
 70
1
 10
2.9
 20
4.9
 10
3.1
 20
4.9
 10
3.1
 20
5.1000000000000005
 10
2.9
 20
5.1000000000000005
  0
HATCH
  5
DA
330
17
100
AcDbEntity
  8
STRUCTURE
 62
7
100
AcDbHatch
 10
0.0
 20
0.0
 30
0.0
210
0.0
220
0.0
230
1.0
  2
SOLID
 70
1
 71
0
 91
1
 92
3
 72
0
 73
1
 93
4
 10
2.9
 20
4.9
 10
3.1
 20
4.9
 10
3.1
 20
5.1000000000000005
 10
2.9
 20
5.1000000000000005
 97
0
 75
1
 76
1
 98
0
  0
MTEXT
  5
DB
330
17
100
AcDbEntity
  8
TEXT
100
AcDbMText
 10
3.0
 20
4.75
 30
0.0
 40
0.1
 71
5
  1
P1
  0
LWPOLYLINE
  5
DC
330
17
100
AcDbEntity
  8
STRUCTURE
100
AcDbPolyline
 90
4
 70
1
 10
2.9
 20
8.700000000000001
 10
3.1
 20
8.700000000000001
 10
3.1
 20
8.9
 10
2.9
 20
8.9
  0
HATCH
  5
DD
330
17
100
AcDbEntity
  8
STRUCTURE
 62
7
100
AcDbHatch
 10
0.0
 20
0.0
 30
0.0
210
0.0
220
0.0
230
1.0
  2
SOLID
 70
1
 71
0
 91
1
 92
3
 72
0
 73
1
 93
4
 10
2.9
 20
8.700000000000001
 10
3.1
 20
8.700000000000001
 10
3.1
 20
8.9
 10
2.9
 20
8.9
 97
0
 75
1
 76
1
 98
0
  0
MTEXT
  5
DE
330
17
100
AcDbEntity
  8
TEXT
100
AcDbMText
 10
3.0
 20
8.55
 30
0.0
 40
0.1
 71
5
  1
P2
  0
LWPOLYLINE
  5
DF
330
17
100
AcDbEntity
  8
STRUCTURE
100
AcDbPolyline
 90
4
 70
1
 10
2.9
 20
9.9
 10
3.1
 20
9.9
 10
3.1
 20
10.1
 10
2.9
 20
10.1
  0
HATCH
  5
E0
330
17
100
AcDbEntity
  8
STRUCTURE
 62
7
100
AcDbHatch
 10
0.0
 20
0.0
 30
0.0
210
0.0
220
0.0
230
1.0
  2
SOLID
 70
1
 71
0
 91
1
 92
3
 72
0
 73
1
 93
4
 10
2.9
 20
9.9
 10
3.1
 20
9.9
 10
3.1
 20
10.1
 10
2.9
 20
10.1
 97
0
 75
1
 76
1
 98
0
  0
MTEXT
  5
E1
330
17
100
AcDbEntity
  8
TEXT
100
AcDbMText
 10
3.0
 20
9.75
 30
0.0
 40
0.1
 71
5
  1
P3
  0
LWPOLYLINE
  5
E2
330
17
100
AcDbEntity
  8
STRUCTURE
100
AcDbPolyline
 90
4
 70
1
 10
2.9
 20
12.3
 10
3.1
 20
12.3
 10
3.1
 20
12.5
 10
2.9
 20
12.5
  0
HATCH
  5
E3
330
17
100
AcDbEntity
  8
STRUCTURE
 62
7
100
AcDbHatch
 10
0.0
 20
0.0
 30
0.0
210
0.0
220
0.0
230
1.0
  2
SOLID
 70
1
 71
0
 91
1
 92
3
 72
0
 73
1
 93
4
 10
2.9
 20
12.3
 10
3.1
 20
12.3
 10
3.1
 20
12.5
 10
2.9
 20
12.5
 97
0
 75
1
 76
1
 98
0
  0
MTEXT
  5
E4
330
17
100
AcDbEntity
  8
TEXT
100
AcDbMText
 10
3.0
 20
12.15
 30
0.0
 40
0.1
 71
5
  1
P4
  0
LWPOLYLINE
  5
E5
330
17
100
AcDbEntity
  8
STRUCTURE
100
AcDbPolyline
 90
4
 70
1
 10
2.9
 20
14.3
 10
3.1
 20
14.3
 10
3.1
 20
14.5
 10
2.9
 20
14.5
  0
HATCH
  5
E6
330
17
100
AcDbEntity
  8
STRUCTURE
 62
7
100
AcDbHatch
 10
0.0
 20
0.0
 30
0.0
210
0.0
220
0.0
230
1.0
  2
SOLID
 70
1
 71
0
 91
1
 92
3
 72
0
 73
1
 93
4
 10
2.9
 20
14.3
 10
3.1
 20
14.3
 10
3.1
 20
14.5
 10
2.9
 20
14.5
 97
0
 75
1
 76
1
 98
0
  0
MTEXT
  5
E7
330
17
100
AcDbEntity
  8
TEXT
100
AcDbMText
 10
3.0
 20
14.15
 30
0.0
 40
0.1
 71
5
  1
P5
  0
LWPOLYLINE
  5
E8
330
17
100
AcDbEntity
  8
STRUCTURE
100
AcDbPolyline
 90
4
 70
1
 10
2.9
 20
14.8
 10
3.1
 20
14.8
 10
3.1
 20
15.0
 10
2.9
 20
15.0
  0
HATCH
  5
E9
330
17
100
AcDbEntity
  8
STRUCTURE
 62
7
100
AcDbHatch
 10
0.0
 20
0.0
 30
0.0
210
0.0
220
0.0
230
1.0
  2
SOLID
 70
1
 71
0
 91
1
 92
3
 72
0
 73
1
 93
4
 10
2.9
 20
14.8
 10
3.1
 20
14.8
 10
3.1
 20
15.0
 10
2.9
 20
15.0
 97
0
 75
1
 76
1
 98
0
  0
MTEXT
  5
EA
330
17
100
AcDbEntity
  8
TEXT
100
AcDbMText
 10
3.0
 20
14.65
 30
0.0
 40
0.1
 71
5
  1
P6
  0
LWPOLYLINE
  5
EB
330
17
100
AcDbEntity
  8
STRUCTURE
100
AcDbPolyline
 90
4
 70
1
 10
2.9
 20
16.099999999999998
 10
3.1
 20
16.099999999999998
 10
3.1
 20
16.299999999999997
 10
2.9
 20
16.299999999999997
  0
HATCH
  5
EC
330
17
100
AcDbEntity
  8
STRUCTURE
 62
7
100
AcDbHatch
 10
0.0
 20
0.0
 30
0.0
210
0.0
220
0.0
230
1.0
  2
SOLID
 70
1
 71
0
 91
1
 92
3
 72
0
 73
1
 93
4
 10
2.9
 20
16.099999999999998
 10
3.1
 20
16.099999999999998
 10
3.1
 20
16.299999999999997
 10
2.9
 20
16.299999999999997
 97
0
 75
1
 76
1
 98
0
  0
MTEXT
  5
ED
330
17
100
AcDbEntity
  8
TEXT
100
AcDbMText
 10
3.0
 20
15.949999999999998
 30
0.0
 40
0.1
 71
5
  1
P7
  0
LWPOLYLINE
  5
EE
330
17
100
AcDbEntity
  8
STRUCTURE
100
AcDbPolyline
 90
4
 70
1
 10
2.9
 20
19.599999999999998
 10
3.1
 20
19.599999999999998
 10
3.1
 20
19.799999999999997
 10
2.9
 20
19.799999999999997
  0
HATCH
  5
EF
330
17
100
AcDbEntity
  8
STRUCTURE
 62
7
100
AcDbHatch
 10
0.0
 20
0.0
 30
0.0
210
0.0
220
0.0
230
1.0
  2
SOLID
 70
1
 71
0
 91
1
 92
3
 72
0
 73
1
 93
4
 10
2.9
 20
19.599999999999998
 10
3.1
 20
19.599999999999998
 10
3.1
 20
19.799999999999997
 10
2.9
 20
19.799999999999997
 97
0
 75
1
 76
1
 98
0
  0
MTEXT
  5
F0
330
17
100
AcDbEntity
  8
TEXT
100
AcDbMText
 10
3.0
 20
19.45
 30
0.0
 40
0.1
 71
5
  1
P8
  0
LWPOLYLINE
  5
F1
330
17
100
AcDbEntity
  8
STRUCTURE
100
AcDbPolyline
 90
4
 70
1
 10
2.9
 20
20.599999999999998
 10
3.1
 20
20.599999999999998
 10
3.1
 20
20.799999999999997
 10
2.9
 20
20.799999999999997
  0
HATCH
  5
F2
330
17
100
AcDbEntity
  8
STRUCTURE
 62
7
100
AcDbHatch
 10
0.0
 20
0.0
 30
0.0
210
0.0
220
0.0
230
1.0
  2
SOLID
 70
1
 71
0
 91
1
 92
3
 72
0
 73
1
 93
4
 10
2.9
 20
20.599999999999998
 10
3.1
 20
20.599999999999998
 10
3.1
 20
20.799999999999997
 10
2.9
 20
20.799999999999997
 97
0
 75
1
 76
1
 98
0
  0
MTEXT
  5
F3
330
17
100
AcDbEntity
  8
TEXT
100
AcDbMText
 10
3.0
 20
20.45
 30
0.0
 40
0.1
 71
5
  1
P9
  0
LWPOLYLINE
  5
F4
330
17
100
AcDbEntity
  8
STRUCTURE
100
AcDbPolyline
 90
4
 70
1
 10
5.9
 20
4.9
 10
6.1000000000000005
 20
4.9
 10
6.1000000000000005
 20
5.1000000000000005
 10
5.9
 20
5.1000000000000005
  0
HATCH
  5
F5
330
17
100
AcDbEntity
  8
STRUCTURE
 62
7
100
AcDbHatch
 10
0.0
 20
0.0
 30
0.0
210
0.0
220
0.0
230
1.0
  2
SOLID
 70
1
 71
0
 91
1
 92
3
 72
0
 73
1
 93
4
 10
5.9
 20
4.9
 10
6.1000000000000005
 20
4.9
 10
6.1000000000000005
 20
5.1000000000000005
 10
5.9
 20
5.1000000000000005
 97
0
 75
1
 76
1
 98
0
  0
MTEXT
  5
F6
330
17
100
AcDbEntity
  8
TEXT
100
AcDbMText
 10
6.0
 20
4.75
 30
0.0
 40
0.1
 71
5
  1
P10
  0
LWPOLYLINE
  5
F7
330
17
100
AcDbEntity
  8
STRUCTURE
100
AcDbPolyline
 90
4
 70
1
 10
5.9
 20
8.700000000000001
 10
6.1000000000000005
 20
8.700000000000001
 10
6.1000000000000005
 20
8.9
 10
5.9
 20
8.9
  0
HATCH
  5
F8
330
17
100
AcDbEntity
  8
STRUCTURE
 62
7
100
AcDbHatch
 10
0.0
 20
0.0
 30
0.0
210
0.0
220
0.0
230
1.0
  2
SOLID
 70
1
 71
0
 91
1
 92
3
 72
0
 73
1
 93
4
 10
5.9
 20
8.700000000000001
 10
6.1000000000000005
 20
8.700000000000001
 10
6.1000000000000005
 20
8.9
 10
5.9
 20
8.9
 97
0
 75
1
 76
1
 98
0
  0
MTEXT
  5
F9
330
17
100
AcDbEntity
  8
TEXT
100
AcDbMText
 10
6.0
 20
8.55
 30
0.0
 40
0.1
 71
5
  1
P11
  0
LWPOLYLINE
  5
FA
330
17
100
AcDbEntity
  8
STRUCTURE
100
AcDbPolyline
 90
4
 70
1
 10
5.9
 20
9.9
 10
6.1000000000000005
 20
9.9
 10
6.1000000000000005
 20
10.1
 10
5.9
 20
10.1
  0
HATCH
  5
FB
330
17
100
AcDbEntity
  8
STRUCTURE
 62
7
100
AcDbHatch
 10
0.0
 20
0.0
 30
0.0
210
0.0
220
0.0
230
1.0
  2
SOLID
 70
1
 71
0
 91
1
 92
3
 72
0
 73
1
 93
4
 10
5.9
 20
9.9
 10
6.1000000000000005
 20
9.9
 10
6.1000000000000005
 20
10.1
 10
5.9
 20
10.1
 97
0
 75
1
 76
1
 98
0
  0
MTEXT
  5
FC
330
17
100
AcDbEntity
  8
TEXT
100
AcDbMText
 10
6.0
 20
9.75
 30
0.0
 40
0.1
 71
5
  1
P12
  0
LWPOLYLINE
  5
FD
330
17
100
AcDbEntity
  8
STRUCTURE
100
AcDbPolyline
 90
4
 70
1
 10
5.9
 20
12.3
 10
6.1000000000000005
 20
12.3
 10
6.1000000000000005
 20
12.5
 10
5.9
 20
12.5
  0
HATCH
  5
FE
330
17
100
AcDbEntity
  8
STRUCTURE
 62
7
100
AcDbHatch
 10
0.0
 20
0.0
 30
0.0
210
0.0
220
0.0
230
1.0
  2
SOLID
 70
1
 71
0
 91
1
 92
3
 72
0
 73
1
 93
4
 10
5.9
 20
12.3
 10
6.1000000000000005
 20
12.3
 10
6.1000000000000005
 20
12.5
 10
5.9
 20
12.5
 97
0
 75
1
 76
1
 98
0
  0
MTEXT
  5
FF
330
17
100
AcDbEntity
  8
TEXT
100
AcDbMText
 10
6.0
 20
12.15
 30
0.0
 40
0.1
 71
5
  1
P13
  0
LWPOLYLINE
  5
100
330
17
100
AcDbEntity
  8
STRUCTURE
100
AcDbPolyline
 90
4
 70
1
 10
5.9
 20
14.3
 10
6.1000000000000005
 20
14.3
 10
6.1000000000000005
 20
14.5
 10
5.9
 20
14.5
  0
HATCH
  5
101
330
17
100
AcDbEntity
  8
STRUCTURE
 62
7
100
AcDbHatch
 10
0.0
 20
0.0
 30
0.0
210
0.0
220
0.0
230
1.0
  2
SOLID
 70
1
 71
0
 91
1
 92
3
 72
0
 73
1
 93
4
 10
5.9
 20
14.3
 10
6.1000000000000005
 20
14.3
 10
6.1000000000000005
 20
14.5
 10
5.9
 20
14.5
 97
0
 75
1
 76
1
 98
0
  0
MTEXT
  5
102
330
17
100
AcDbEntity
  8
TEXT
100
AcDbMText
 10
6.0
 20
14.15
 30
0.0
 40
0.1
 71
5
  1
P14
  0
LWPOLYLINE
  5
103
330
17
100
AcDbEntity
  8
STRUCTURE
100
AcDbPolyline
 90
4
 70
1
 10
5.9
 20
14.8
 10
6.1000000000000005
 20
14.8
 10
6.1000000000000005
 20
15.0
 10
5.9
 20
15.0
  0
HATCH
  5
104
330
17
100
AcDbEntity
  8
STRUCTURE
 62
7
100
AcDbHatch
 10
0.0
 20
0.0
 30
0.0
210
0.0
220
0.0
230
1.0
  2
SOLID
 70
1
 71
0
 91
1
 92
3
 72
0
 73
1
 93
4
 10
5.9
 20
14.8
 10
6.1000000000000005
 20
14.8
 10
6.1000000000000005
 20
15.0
 10
5.9
 20
15.0
 97
0
 75
1
 76
1
 98
0
  0
MTEXT
  5
105
330
17
100
AcDbEntity
  8
TEXT
100
AcDbMText
 10
6.0
 20
14.65
 30
0.0
 40
0.1
 71
5
  1
P15
  0
LWPOLYLINE
  5
106
330
17
100
AcDbEntity
  8
STRUCTURE
100
AcDbPolyline
 90
4
 70
1
 10
5.9
 20
16.099999999999998
 10
6.1000000000000005
 20
16.099999999999998
 10
6.1000000000000005
 20
16.299999999999997
 10
5.9
 20
16.299999999999997
  0
HATCH
  5
107
330
17
100
AcDbEntity
  8
STRUCTURE
 62
7
100
AcDbHatch
 10
0.0
 20
0.0
 30
0.0
210
0.0
220
0.0
230
1.0
  2
SOLID
 70
1
 71
0
 91
1
 92
3
 72
0
 73
1
 93
4
 10
5.9
 20
16.099999999999998
 10
6.1000000000000005
 20
16.099999999999998
 10
6.1000000000000005
 20
16.299999999999997
 10
5.9
 20
16.299999999999997
 97
0
 75
1
 76
1
 98
0
  0
MTEXT
  5
108
330
17
100
AcDbEntity
  8
TEXT
100
AcDbMText
 10
6.0
 20
15.949999999999998
 30
0.0
 40
0.1
 71
5
  1
P16
  0
LWPOLYLINE
  5
109
330
17
100
AcDbEntity
  8
STRUCTURE
100
AcDbPolyline
 90
4
 70
1
 10
5.9
 20
19.599999999999998
 10
6.1000000000000005
 20
19.599999999999998
 10
6.1000000000000005
 20
19.799999999999997
 10
5.9
 20
19.799999999999997
  0
HATCH
  5
10A
330
17
100
AcDbEntity
  8
STRUCTURE
 62
7
100
AcDbHatch
 10
0.0
 20
0.0
 30
0.0
210
0.0
220
0.0
230
1.0
  2
SOLID
 70
1
 71
0
 91
1
 92
3
 72
0
 73
1
 93
4
 10
5.9
 20
19.599999999999998
 10
6.1000000000000005
 20
19.599999999999998
 10
6.1000000000000005
 20
19.799999999999997
 10
5.9
 20
19.799999999999997
 97
0
 75
1
 76
1
 98
0
  0
MTEXT
  5
10B
330
17
100
AcDbEntity
  8
TEXT
100
AcDbMText
 10
6.0
 20
19.45
 30
0.0
 40
0.1
 71
5
  1
P17
  0
LWPOLYLINE
  5
10C
330
17
100
AcDbEntity
  8
STRUCTURE
100
AcDbPolyline
 90
4
 70
1
 10
5.9
 20
20.599999999999998
 10
6.1000000000000005
 20
20.599999999999998
 10
6.1000000000000005
 20
20.799999999999997
 10
5.9
 20
20.799999999999997
  0
HATCH
  5
10D
330
17
100
AcDbEntity
  8
STRUCTURE
 62
7
100
AcDbHatch
 10
0.0
 20
0.0
 30
0.0
210
0.0
220
0.0
230
1.0
  2
SOLID
 70
1
 71
0
 91
1
 92
3
 72
0
 73
1
 93
4
 10
5.9
 20
20.599999999999998
 10
6.1000000000000005
 20
20.599999999999998
 10
6.1000000000000005
 20
20.799999999999997
 10
5.9
 20
20.799999999999997
 97
0
 75
1
 76
1
 98
0
  0
MTEXT
  5
10E
330
17
100
AcDbEntity
  8
TEXT
100
AcDbMText
 10
6.0
 20
20.45
 30
0.0
 40
0.1
 71
5
  1
P18
  0
LWPOLYLINE
  5
10F
330
17
100
AcDbEntity
  8
STRUCTURE
100
AcDbPolyline
 90
4
 70
1
 10
6.23
 20
4.9
 10
6.430000000000001
 20
4.9
 10
6.430000000000001
 20
5.1000000000000005
 10
6.23
 20
5.1000000000000005
  0
HATCH
  5
110
330
17
100
AcDbEntity
  8
STRUCTURE
 62
7
100
AcDbHatch
 10
0.0
 20
0.0
 30
0.0
210
0.0
220
0.0
230
1.0
  2
SOLID
 70
1
 71
0
 91
1
 92
3
 72
0
 73
1
 93
4
 10
6.23
 20
4.9
 10
6.430000000000001
 20
4.9
 10
6.430000000000001
 20
5.1000000000000005
 10
6.23
 20
5.1000000000000005
 97
0
 75
1
 76
1
 98
0
  0
MTEXT
  5
111
330
17
100
AcDbEntity
  8
TEXT
100
AcDbMText
 10
6.33
 20
4.75
 30
0.0
 40
0.1
 71
5
  1
P19
  0
LWPOLYLINE
  5
112
330
17
100
AcDbEntity
  8
STRUCTURE
100
AcDbPolyline
 90
4
 70
1
 10
6.23
 20
8.700000000000001
 10
6.430000000000001
 20
8.700000000000001
 10
6.430000000000001
 20
8.9
 10
6.23
 20
8.9
  0
HATCH
  5
113
330
17
100
AcDbEntity
  8
STRUCTURE
 62
7
100
AcDbHatch
 10
0.0
 20
0.0
 30
0.0
210
0.0
220
0.0
230
1.0
  2
SOLID
 70
1
 71
0
 91
1
 92
3
 72
0
 73
1
 93
4
 10
6.23
 20
8.700000000000001
 10
6.430000000000001
 20
8.700000000000001
 10
6.430000000000001
 20
8.9
 10
6.23
 20
8.9
 97
0
 75
1
 76
1
 98
0
  0
MTEXT
  5
114
330
17
100
AcDbEntity
  8
TEXT
100
AcDbMText
 10
6.33
 20
8.55
 30
0.0
 40
0.1
 71
5
  1
P20
  0
LWPOLYLINE
  5
115
330
17
100
AcDbEntity
  8
STRUCTURE
100
AcDbPolyline
 90
4
 70
1
 10
6.23
 20
9.9
 10
6.430000000000001
 20
9.9
 10
6.430000000000001
 20
10.1
 10
6.23
 20
10.1
  0
HATCH
  5
116
330
17
100
AcDbEntity
  8
STRUCTURE
 62
7
100
AcDbHatch
 10
0.0
 20
0.0
 30
0.0
210
0.0
220
0.0
230
1.0
  2
SOLID
 70
1
 71
0
 91
1
 92
3
 72
0
 73
1
 93
4
 10
6.23
 20
9.9
 10
6.430000000000001
 20
9.9
 10
6.430000000000001
 20
10.1
 10
6.23
 20
10.1
 97
0
 75
1
 76
1
 98
0
  0
MTEXT
  5
117
330
17
100
AcDbEntity
  8
TEXT
100
AcDbMText
 10
6.33
 20
9.75
 30
0.0
 40
0.1
 71
5
  1
P21
  0
LWPOLYLINE
  5
118
330
17
100
AcDbEntity
  8
STRUCTURE
100
AcDbPolyline
 90
4
 70
1
 10
6.23
 20
12.3
 10
6.430000000000001
 20
12.3
 10
6.430000000000001
 20
12.5
 10
6.23
 20
12.5
  0
HATCH
  5
119
330
17
100
AcDbEntity
  8
STRUCTURE
 62
7
100
AcDbHatch
 10
0.0
 20
0.0
 30
0.0
210
0.0
220
0.0
230
1.0
  2
SOLID
 70
1
 71
0
 91
1
 92
3
 72
0
 73
1
 93
4
 10
6.23
 20
12.3
 10
6.430000000000001
 20
12.3
 10
6.430000000000001
 20
12.5
 10
6.23
 20
12.5
 97
0
 75
1
 76
1
 98
0
  0
MTEXT
  5
11A
330
17
100
AcDbEntity
  8
TEXT
100
AcDbMText
 10
6.33
 20
12.15
 30
0.0
 40
0.1
 71
5
  1
P22
  0
LWPOLYLINE
  5
11B
330
17
100
AcDbEntity
  8
STRUCTURE
100
AcDbPolyline
 90
4
 70
1
 10
6.23
 20
14.3
 10
6.430000000000001
 20
14.3
 10
6.430000000000001
 20
14.5
 10
6.23
 20
14.5
  0
HATCH
  5
11C
330
17
100
AcDbEntity
  8
STRUCTURE
 62
7
100
AcDbHatch
 10
0.0
 20
0.0
 30
0.0
210
0.0
220
0.0
230
1.0
  2
SOLID
 70
1
 71
0
 91
1
 92
3
 72
0
 73
1
 93
4
 10
6.23
 20
14.3
 10
6.430000000000001
 20
14.3
 10
6.430000000000001
 20
14.5
 10
6.23
 20
14.5
 97
0
 75
1
 76
1
 98
0
  0
MTEXT
  5
11D
330
17
100
AcDbEntity
  8
TEXT
100
AcDbMText
 10
6.33
 20
14.15
 30
0.0
 40
0.1
 71
5
  1
P23
  0
LWPOLYLINE
  5
11E
330
17
100
AcDbEntity
  8
STRUCTURE
100
AcDbPolyline
 90
4
 70
1
 10
6.23
 20
14.8
 10
6.430000000000001
 20
14.8
 10
6.430000000000001
 20
15.0
 10
6.23
 20
15.0
  0
HATCH
  5
11F
330
17
100
AcDbEntity
  8
STRUCTURE
 62
7
100
AcDbHatch
 10
0.0
 20
0.0
 30
0.0
210
0.0
220
0.0
230
1.0
  2
SOLID
 70
1
 71
0
 91
1
 92
3
 72
0
 73
1
 93
4
 10
6.23
 20
14.8
 10
6.430000000000001
 20
14.8
 10
6.430000000000001
 20
15.0
 10
6.23
 20
15.0
 97
0
 75
1
 76
1
 98
0
  0
MTEXT
  5
120
330
17
100
AcDbEntity
  8
TEXT
100
AcDbMText
 10
6.33
 20
14.65
 30
0.0
 40
0.1
 71
5
  1
P24
  0
LWPOLYLINE
  5
121
330
17
100
AcDbEntity
  8
STRUCTURE
100
AcDbPolyline
 90
4
 70
1
 10
6.23
 20
16.099999999999998
 10
6.430000000000001
 20
16.099999999999998
 10
6.430000000000001
 20
16.299999999999997
 10
6.23
 20
16.299999999999997
  0
HATCH
  5
122
330
17
100
AcDbEntity
  8
STRUCTURE
 62
7
100
AcDbHatch
 10
0.0
 20
0.0
 30
0.0
210
0.0
220
0.0
230
1.0
  2
SOLID
 70
1
 71
0
 91
1
 92
3
 72
0
 73
1
 93
4
 10
6.23
 20
16.099999999999998
 10
6.430000000000001
 20
16.099999999999998
 10
6.430000000000001
 20
16.299999999999997
 10
6.23
 20
16.299999999999997
 97
0
 75
1
 76
1
 98
0
  0
MTEXT
  5
123
330
17
100
AcDbEntity
  8
TEXT
100
AcDbMText
 10
6.33
 20
15.949999999999998
 30
0.0
 40
0.1
 71
5
  1
P25
  0
LWPOLYLINE
  5
124
330
17
100
AcDbEntity
  8
STRUCTURE
100
AcDbPolyline
 90
4
 70
1
 10
6.23
 20
19.599999999999998
 10
6.430000000000001
 20
19.599999999999998
 10
6.430000000000001
 20
19.799999999999997
 10
6.23
 20
19.799999999999997
  0
HATCH
  5
125
330
17
100
AcDbEntity
  8
STRUCTURE
 62
7
100
AcDbHatch
 10
0.0
 20
0.0
 30
0.0
210
0.0
220
0.0
230
1.0
  2
SOLID
 70
1
 71
0
 91
1
 92
3
 72
0
 73
1
 93
4
 10
6.23
 20
19.599999999999998
 10
6.430000000000001
 20
19.599999999999998
 10
6.430000000000001
 20
19.799999999999997
 10
6.23
 20
19.799999999999997
 97
0
 75
1
 76
1
 98
0
  0
MTEXT
  5
126
330
17
100
AcDbEntity
  8
TEXT
100
AcDbMText
 10
6.33
 20
19.45
 30
0.0
 40
0.1
 71
5
  1
P26
  0
LWPOLYLINE
  5
127
330
17
100
AcDbEntity
  8
STRUCTURE
100
AcDbPolyline
 90
4
 70
1
 10
6.9
 20
4.9
 10
7.1000000000000005
 20
4.9
 10
7.1000000000000005
 20
5.1000000000000005
 10
6.9
 20
5.1000000000000005
  0
HATCH
  5
128
330
17
100
AcDbEntity
  8
STRUCTURE
 62
7
100
AcDbHatch
 10
0.0
 20
0.0
 30
0.0
210
0.0
220
0.0
230
1.0
  2
SOLID
 70
1
 71
0
 91
1
 92
3
 72
0
 73
1
 93
4
 10
6.9
 20
4.9
 10
7.1000000000000005
 20
4.9
 10
7.1000000000000005
 20
5.1000000000000005
 10
6.9
 20
5.1000000000000005
 97
0
 75
1
 76
1
 98
0
  0
MTEXT
  5
129
330
17
100
AcDbEntity
  8
TEXT
100
AcDbMText
 10
7.0
 20
4.75
 30
0.0
 40
0.1
 71
5
  1
P27
  0
LWPOLYLINE
  5
12A
330
17
100
AcDbEntity
  8
STRUCTURE
100
AcDbPolyline
 90
4
 70
1
 10
6.9
 20
8.700000000000001
 10
7.1000000000000005
 20
8.700000000000001
 10
7.1000000000000005
 20
8.9
 10
6.9
 20
8.9
  0
HATCH
  5
12B
330
17
100
AcDbEntity
  8
STRUCTURE
 62
7
100
AcDbHatch
 10
0.0
 20
0.0
 30
0.0
210
0.0
220
0.0
230
1.0
  2
SOLID
 70
1
 71
0
 91
1
 92
3
 72
0
 73
1
 93
4
 10
6.9
 20
8.700000000000001
 10
7.1000000000000005
 20
8.700000000000001
 10
7.1000000000000005
 20
8.9
 10
6.9
 20
8.9
 97
0
 75
1
 76
1
 98
0
  0
MTEXT
  5
12C
330
17
100
AcDbEntity
  8
TEXT
100
AcDbMText
 10
7.0
 20
8.55
 30
0.0
 40
0.1
 71
5
  1
P28
  0
LWPOLYLINE
  5
12D
330
17
100
AcDbEntity
  8
STRUCTURE
100
AcDbPolyline
 90
4
 70
1
 10
6.9
 20
9.9
 10
7.1000000000000005
 20
9.9
 10
7.1000000000000005
 20
10.1
 10
6.9
 20
10.1
  0
HATCH
  5
12E
330
17
100
AcDbEntity
  8
STRUCTURE
 62
7
100
AcDbHatch
 10
0.0
 20
0.0
 30
0.0
210
0.0
220
0.0
230
1.0
  2
SOLID
 70
1
 71
0
 91
1
 92
3
 72
0
 73
1
 93
4
 10
6.9
 20
9.9
 10
7.1000000000000005
 20
9.9
 10
7.1000000000000005
 20
10.1
 10
6.9
 20
10.1
 97
0
 75
1
 76
1
 98
0
  0
MTEXT
  5
12F
330
17
100
AcDbEntity
  8
TEXT
100
AcDbMText
 10
7.0
 20
9.75
 30
0.0
 40
0.1
 71
5
  1
P29
  0
LWPOLYLINE
  5
130
330
17
100
AcDbEntity
  8
STRUCTURE
100
AcDbPolyline
 90
4
 70
1
 10
6.9
 20
12.3
 10
7.1000000000000005
 20
12.3
 10
7.1000000000000005
 20
12.5
 10
6.9
 20
12.5
  0
HATCH
  5
131
330
17
100
AcDbEntity
  8
STRUCTURE
 62
7
100
AcDbHatch
 10
0.0
 20
0.0
 30
0.0
210
0.0
220
0.0
230
1.0
  2
SOLID
 70
1
 71
0
 91
1
 92
3
 72
0
 73
1
 93
4
 10
6.9
 20
12.3
 10
7.1000000000000005
 20
12.3
 10
7.1000000000000005
 20
12.5
 10
6.9
 20
12.5
 97
0
 75
1
 76
1
 98
0
  0
MTEXT
  5
132
330
17
100
AcDbEntity
  8
TEXT
100
AcDbMText
 10
7.0
 20
12.15
 30
0.0
 40
0.1
 71
5
  1
P30
  0
LWPOLYLINE
  5
133
330
17
100
AcDbEntity
  8
STRUCTURE
100
AcDbPolyline
 90
4
 70
1
 10
6.9
 20
14.3
 10
7.1000000000000005
 20
14.3
 10
7.1000000000000005
 20
14.5
 10
6.9
 20
14.5
  0
HATCH
  5
134
330
17
100
AcDbEntity
  8
STRUCTURE
 62
7
100
AcDbHatch
 10
0.0
 20
0.0
 30
0.0
210
0.0
220
0.0
230
1.0
  2
SOLID
 70
1
 71
0
 91
1
 92
3
 72
0
 73
1
 93
4
 10
6.9
 20
14.3
 10
7.1000000000000005
 20
14.3
 10
7.1000000000000005
 20
14.5
 10
6.9
 20
14.5
 97
0
 75
1
 76
1
 98
0
  0
MTEXT
  5
135
330
17
100
AcDbEntity
  8
TEXT
100
AcDbMText
 10
7.0
 20
14.15
 30
0.0
 40
0.1
 71
5
  1
P31
  0
LWPOLYLINE
  5
136
330
17
100
AcDbEntity
  8
STRUCTURE
100
AcDbPolyline
 90
4
 70
1
 10
6.9
 20
14.8
 10
7.1000000000000005
 20
14.8
 10
7.1000000000000005
 20
15.0
 10
6.9
 20
15.0
  0
HATCH
  5
137
330
17
100
AcDbEntity
  8
STRUCTURE
 62
7
100
AcDbHatch
 10
0.0
 20
0.0
 30
0.0
210
0.0
220
0.0
230
1.0
  2
SOLID
 70
1
 71
0
 91
1
 92
3
 72
0
 73
1
 93
4
 10
6.9
 20
14.8
 10
7.1000000000000005
 20
14.8
 10
7.1000000000000005
 20
15.0
 10
6.9
 20
15.0
 97
0
 75
1
 76
1
 98
0
  0
MTEXT
  5
138
330
17
100
AcDbEntity
  8
TEXT
100
AcDbMText
 10
7.0
 20
14.65
 30
0.0
 40
0.1
 71
5
  1
P32
  0
LWPOLYLINE
  5
139
330
17
100
AcDbEntity
  8
STRUCTURE
100
AcDbPolyline
 90
4
 70
1
 10
6.9
 20
16.099999999999998
 10
7.1000000000000005
 20
16.099999999999998
 10
7.1000000000000005
 20
16.299999999999997
 10
6.9
 20
16.299999999999997
  0
HATCH
  5
13A
330
17
100
AcDbEntity
  8
STRUCTURE
 62
7
100
AcDbHatch
 10
0.0
 20
0.0
 30
0.0
210
0.0
220
0.0
230
1.0
  2
SOLID
 70
1
 71
0
 91
1
 92
3
 72
0
 73
1
 93
4
 10
6.9
 20
16.099999999999998
 10
7.1000000000000005
 20
16.099999999999998
 10
7.1000000000000005
 20
16.299999999999997
 10
6.9
 20
16.299999999999997
 97
0
 75
1
 76
1
 98
0
  0
MTEXT
  5
13B
330
17
100
AcDbEntity
  8
TEXT
100
AcDbMText
 10
7.0
 20
15.949999999999998
 30
0.0
 40
0.1
 71
5
  1
P33
  0
LWPOLYLINE
  5
13C
330
17
100
AcDbEntity
  8
STRUCTURE
100
AcDbPolyline
 90
4
 70
1
 10
6.9
 20
19.599999999999998
 10
7.1000000000000005
 20
19.599999999999998
 10
7.1000000000000005
 20
19.799999999999997
 10
6.9
 20
19.799999999999997
  0
HATCH
  5
13D
330
17
100
AcDbEntity
  8
STRUCTURE
 62
7
100
AcDbHatch
 10
0.0
 20
0.0
 30
0.0
210
0.0
220
0.0
230
1.0
  2
SOLID
 70
1
 71
0
 91
1
 92
3
 72
0
 73
1
 93
4
 10
6.9
 20
19.599999999999998
 10
7.1000000000000005
 20
19.599999999999998
 10
7.1000000000000005
 20
19.799999999999997
 10
6.9
 20
19.799999999999997
 97
0
 75
1
 76
1
 98
0
  0
MTEXT
  5
13E
330
17
100
AcDbEntity
  8
TEXT
100
AcDbMText
 10
7.0
 20
19.45
 30
0.0
 40
0.1
 71
5
  1
P34
  0
LINE
  5
13F
330
17
100
AcDbEntity
  8
GRID
100
AcDbLine
 10
3.0
 20
11.2
 30
0.0
 11
13.0
 21
11.2
 31
0.0
  0
MTEXT
  5
140
330
17
100
AcDbEntity
  8
TEXT
100
AcDbMText
 10
8.0
 20
11.399999999999999
 30
0.0
 40
0.14300000000000002
 71
5
  1
CIRCULAÇÃO
  0
MTEXT
  5
141
330
17
100
AcDbEntity
  8
TEXT
100
AcDbMText
 10
8.0
 20
10.85
 30
0.0
 40
0.08800000000000001
 71
5
  1
L=2.4m
  0
LINE
  5
142
330
17
100
AcDbEntity
  8
GRID
100
AcDbLine
 10
3.0
 20
23.4
 30
0.0
 11
16.0
 21
23.4
 31
0.0
  0
MTEXT
  5
143
330
17
100
AcDbEntity
  8
TEXT
100
AcDbMText
 10
9.5
 20
23.599999999999998
 30
0.0
 40
0.14300000000000002
 71
5
  1
CIRCULAÇÃO
  0
MTEXT
  5
144
330
17
100
AcDbEntity
  8
TEXT
100
AcDbMText
 10
9.5
 20
23.049999999999997
 30
0.0
 40
0.08800000000000001
 71
5
  1
L=2.4m
  0
LWPOLYLINE
  5
145
330
17
100
AcDbEntity
  8
WALLS
100
AcDbPolyline
 90
4
 70
1
 10
8.425
 20
5.0
 10
8.575000000000001
 20
5.0
 10
8.575000000000001
 20
8.8
 10
8.425
 20
8.8
  0
HATCH
  5
146
330
17
100
AcDbEntity
  8
WALLS
 62
7
100
AcDbHatch
 10
0.0
 20
0.0
 30
0.0
210
0.0
220
0.0
230
1.0
  2
SOLID
 70
1
 71
0
 91
1
 92
3
 72
0
 73
1
 93
4
 10
8.425
 20
5.0
 10
8.575000000000001
 20
5.0
 10
8.575000000000001
 20
8.8
 10
8.425
 20
8.8
 97
0
 75
1
 76
1
 98
0
  0
LWPOLYLINE
  5
147
330
17
100
AcDbEntity
  8
WALLS
100
AcDbPolyline
 90
4
 70
1
 10
7.425
 20
12.4
 10
7.575
 20
12.4
 10
7.575
 20
14.4
 10
7.425
 20
14.4
  0
HATCH
  5
148
330
17
100
AcDbEntity
  8
WALLS
 62
7
100
AcDbHatch
 10
0.0
 20
0.0
 30
0.0
210
0.0
220
0.0
230
1.0
  2
SOLID
 70
1
 71
0
 91
1
 92
3
 72
0
 73
1
 93
4
 10
7.425
 20
12.4
 10
7.575
 20
12.4
 10
7.575
 20
14.4
 10
7.425
 20
14.4
 97
0
 75
1
 76
1
 98
0
  0
LWPOLYLINE
  5
149
330
17
100
AcDbEntity
  8
WALLS
100
AcDbPolyline
 90
4
 70
1
 10
9.425
 20
12.4
 10
9.575000000000001
 20
12.4
 10
9.575000000000001
 20
14.4
 10
9.425
 20
14.4
  0
HATCH
  5
14A
330
17
100
AcDbEntity
  8
WALLS
 62
7
100
AcDbHatch
 10
0.0
 20
0.0
 30
0.0
210
0.0
220
0.0
230
1.0
  2
SOLID
 70
1
 71
0
 91
1
 92
3
 72
0
 73
1
 93
4
 10
9.425
 20
12.4
 10
9.575000000000001
 20
12.4
 10
9.575000000000001
 20
14.4
 10
9.425
 20
14.4
 97
0
 75
1
 76
1
 98
0
  0
LWPOLYLINE
  5
14B
330
17
100
AcDbEntity
  8
WALLS
100
AcDbPolyline
 90
4
 70
1
 10
5.925
 20
16.2
 10
6.075
 20
16.2
 10
6.075
 20
19.7
 10
5.925
 20
19.7
  0
HATCH
  5
14C
330
17
100
AcDbEntity
  8
WALLS
 62
7
100
AcDbHatch
 10
0.0
 20
0.0
 30
0.0
210
0.0
220
0.0
230
1.0
  2
SOLID
 70
1
 71
0
 91
1
 92
3
 72
0
 73
1
 93
4
 10
5.925
 20
16.2
 10
6.075
 20
16.2
 10
6.075
 20
19.7
 10
5.925
 20
19.7
 97
0
 75
1
 76
1
 98
0
  0
LWPOLYLINE
  5
14D
330
17
100
AcDbEntity
  8
WALLS
100
AcDbPolyline
 90
4
 70
1
 10
10.925
 20
16.2
 10
11.075000000000001
 20
16.2
 10
11.075000000000001
 20
19.7
 10
10.925
 20
19.7
  0
HATCH
  5
14E
330
17
100
AcDbEntity
  8
WALLS
 62
7
100
AcDbHatch
 10
0.0
 20
0.0
 30
0.0
210
0.0
220
0.0
230
1.0
  2
SOLID
 70
1
 71
0
 91
1
 92
3
 72
0
 73
1
 93
4
 10
10.925
 20
16.2
 10
11.075000000000001
 20
16.2
 10
11.075000000000001
 20
19.7
 10
10.925
 20
19.7
 97
0
 75
1
 76
1
 98
0
  0
LWPOLYLINE
  5
14F
330
17
100
AcDbEntity
  8
WALLS
100
AcDbPolyline
 90
4
 70
1
 10
6.925
 20
24.6
 10
7.075
 20
24.6
 10
7.075
 20
26.8
 10
6.925
 20
26.8
  0
HATCH
  5
150
330
17
100
AcDbEntity
  8
WALLS
 62
7
100
AcDbHatch
 10
0.0
 20
0.0
 30
0.0
210
0.0
220
0.0
230
1.0
  2
SOLID
 70
1
 71
0
 91
1
 92
3
 72
0
 73
1
 93
4
 10
6.925
 20
24.6
 10
7.075
 20
24.6
 10
7.075
 20
26.8
 10
6.925
 20
26.8
 97
0
 75
1
 76
1
 98
0
  0
LWPOLYLINE
  5
151
330
17
100
AcDbEntity
  8
WALLS
100
AcDbPolyline
 90
4
 70
1
 10
8.925
 20
24.6
 10
9.075000000000001
 20
24.6
 10
9.075000000000001
 20
26.8
 10
8.925
 20
26.8
  0
HATCH
  5
152
330
17
100
AcDbEntity
  8
WALLS
 62
7
100
AcDbHatch
 10
0.0
 20
0.0
 30
0.0
210
0.0
220
0.0
230
1.0
  2
SOLID
 70
1
 71
0
 91
1
 92
3
 72
0
 73
1
 93
4
 10
8.925
 20
24.6
 10
9.075000000000001
 20
24.6
 10
9.075000000000001
 20
26.8
 10
8.925
 20
26.8
 97
0
 75
1
 76
1
 98
0
  0
LWPOLYLINE
  5
153
330
17
100
AcDbEntity
  8
WALLS
100
AcDbPolyline
 90
4
 70
1
 10
8.5
 20
8.725000000000001
 10
13.0
 20
8.725000000000001
 10
13.0
 20
8.875000000000002
 10
8.5
 20
8.875000000000002
  0
HATCH
  5
154
330
17
100
AcDbEntity
  8
WALLS
 62
7
100
AcDbHatch
 10
0.0
 20
0.0
 30
0.0
210
0.0
220
0.0
230
1.0
  2
SOLID
 70
1
 71
0
 91
1
 92
3
 72
0
 73
1
 93
4
 10
8.5
 20
8.725000000000001
 10
13.0
 20
8.725000000000001
 10
13.0
 20
8.875000000000002
 10
8.5
 20
8.875000000000002
 97
0
 75
1
 76
1
 98
0
  0
LWPOLYLINE
  5
155
330
17
100
AcDbEntity
  8
WALLS
100
AcDbPolyline
 90
4
 70
1
 10
3.0
 20
16.125
 10
7.5
 20
16.125
 10
7.5
 20
16.275
 10
3.0
 20
16.275
  0
HATCH
  5
156
330
17
100
AcDbEntity
  8
WALLS
 62
7
100
AcDbHatch
 10
0.0
 20
0.0
 30
0.0
210
0.0
220
0.0
230
1.0
  2
SOLID
 70
1
 71
0
 91
1
 92
3
 72
0
 73
1
 93
4
 10
3.0
 20
16.125
 10
7.5
 20
16.125
 10
7.5
 20
16.275
 10
3.0
 20
16.275
 97
0
 75
1
 76
1
 98
0
  0
LWPOLYLINE
  5
157
330
17
100
AcDbEntity
  8
WALLS
100
AcDbPolyline
 90
4
 70
1
 10
7.5
 20
14.325000000000001
 10
9.5
 20
14.325000000000001
 10
9.5
 20
14.475000000000001
 10
7.5
 20
14.475000000000001
  0
HATCH
  5
158
330
17
100
AcDbEntity
  8
WALLS
 62
7
100
AcDbHatch
 10
0.0
 20
0.0
 30
0.0
210
0.0
220
0.0
230
1.0
  2
SOLID
 70
1
 71
0
 91
1
 92
3
 72
0
 73
1
 93
4
 10
7.5
 20
14.325000000000001
 10
9.5
 20
14.325000000000001
 10
9.5
 20
14.475000000000001
 10
7.5
 20
14.475000000000001
 97
0
 75
1
 76
1
 98
0
  0
LWPOLYLINE
  5
159
330
17
100
AcDbEntity
  8
WALLS
100
AcDbPolyline
 90
4
 70
1
 10
9.5
 20
14.825000000000001
 10
12.3
 20
14.825000000000001
 10
12.3
 20
14.975000000000001
 10
9.5
 20
14.975000000000001
  0
HATCH
  5
15A
330
17
100
AcDbEntity
  8
WALLS
 62
7
100
AcDbHatch
 10
0.0
 20
0.0
 30
0.0
210
0.0
220
0.0
230
1.0
  2
SOLID
 70
1
 71
0
 91
1
 92
3
 72
0
 73
1
 93
4
 10
9.5
 20
14.825000000000001
 10
12.3
 20
14.825000000000001
 10
12.3
 20
14.975000000000001
 10
9.5
 20
14.975000000000001
 97
0
 75
1
 76
1
 98
0
  0
LWPOLYLINE
  5
15B
330
17
100
AcDbEntity
  8
WALLS
100
AcDbPolyline
 90
4
 70
1
 10
6.0
 20
19.625
 10
11.0
 20
19.625
 10
11.0
 20
19.775
 10
6.0
 20
19.775
  0
HATCH
  5
15C
330
17
100
AcDbEntity
  8
WALLS
 62
7
100
AcDbHatch
 10
0.0
 20
0.0
 30
0.0
210
0.0
220
0.0
230
1.0
  2
SOLID
 70
1
 71
0
 91
1
 92
3
 72
0
 73
1
 93
4
 10
6.0
 20
19.625
 10
11.0
 20
19.625
 10
11.0
 20
19.775
 10
6.0
 20
19.775
 97
0
 75
1
 76
1
 98
0
  0
LWPOLYLINE
  5
15D
330
17
100
AcDbEntity
  8
WALLS
100
AcDbPolyline
 90
4
 70
1
 10
11.0
 20
20.625
 10
16.0
 20
20.625
 10
16.0
 20
20.775
 10
11.0
 20
20.775
  0
HATCH
  5
15E
330
17
100
AcDbEntity
  8
WALLS
 62
7
100
AcDbHatch
 10
0.0
 20
0.0
 30
0.0
210
0.0
220
0.0
230
1.0
  2
SOLID
 70
1
 71
0
 91
1
 92
3
 72
0
 73
1
 93
4
 10
11.0
 20
20.625
 10
16.0
 20
20.625
 10
16.0
 20
20.775
 10
11.0
 20
20.775
 97
0
 75
1
 76
1
 98
0
  0
LWPOLYLINE
  5
15F
330
17
100
AcDbEntity
  8
WALLS
100
AcDbPolyline
 90
4
 70
1
 10
3.0
 20
28.545
 10
7.0
 20
28.545
 10
7.0
 20
28.695
 10
3.0
 20
28.695
  0
HATCH
  5
160
330
17
100
AcDbEntity
  8
WALLS
 62
7
100
AcDbHatch
 10
0.0
 20
0.0
 30
0.0
210
0.0
220
0.0
230
1.0
  2
SOLID
 70
1
 71
0
 91
1
 92
3
 72
0
 73
1
 93
4
 10
3.0
 20
28.545
 10
7.0
 20
28.545
 10
7.0
 20
28.695
 10
3.0
 20
28.695
 97
0
 75
1
 76
1
 98
0
  0
LWPOLYLINE
  5
161
330
17
100
AcDbEntity
  8
WALLS
100
AcDbPolyline
 90
4
 70
1
 10
7.0
 20
26.725
 10
9.0
 20
26.725
 10
9.0
 20
26.875
 10
7.0
 20
26.875
  0
HATCH
  5
162
330
17
100
AcDbEntity
  8
WALLS
 62
7
100
AcDbHatch
 10
0.0
 20
0.0
 30
0.0
210
0.0
220
0.0
230
1.0
  2
SOLID
 70
1
 71
0
 91
1
 92
3
 72
0
 73
1
 93
4
 10
7.0
 20
26.725
 10
9.0
 20
26.725
 10
9.0
 20
26.875
 10
7.0
 20
26.875
 97
0
 75
1
 76
1
 98
0
  0
LWPOLYLINE
  5
163
330
17
100
AcDbEntity
  8
WALLS
100
AcDbPolyline
 90
4
 70
1
 10
9.0
 20
28.025000000000002
 10
12.33
 20
28.025000000000002
 10
12.33
 20
28.175
 10
9.0
 20
28.175
  0
HATCH
  5
164
330
17
100
AcDbEntity
  8
WALLS
 62
7
100
AcDbHatch
 10
0.0
 20
0.0
 30
0.0
210
0.0
220
0.0
230
1.0
  2
SOLID
 70
1
 71
0
 91
1
 92
3
 72
0
 73
1
 93
4
 10
9.0
 20
28.025000000000002
 10
12.33
 20
28.025000000000002
 10
12.33
 20
28.175
 10
9.0
 20
28.175
 97
0
 75
1
 76
1
 98
0
  0
HATCH
  5
165
330
17
100
AcDbEntity
  8
DOORS
 62
7
100
AcDbHatch
 10
0.0
 20
0.0
 30
0.0
210
0.0
220
0.0
230
1.0
  2
SOLID
 70
1
 71
0
 91
1
 92
3
 72
0
 73
1
 93
4
 10
2.4
 20
9.89
 10
3.3
 20
9.89
 10
3.3
 20
10.110000000000001
 10
2.4
 20
10.110000000000001
 97
0
 75
1
 76
1
 98
0
  0
LWPOLYLINE
  5
166
330
17
100
AcDbEntity
  8
DOORS
100
AcDbPolyline
 90
4
 70
1
 10
3.26
 20
9.1
 10
3.3
 20
9.1
 10
3.3
 20
10.0
 10
3.26
 20
10.0
  0
ARC
  5
167
330
17
100
AcDbEntity
  8
DOORS
100
AcDbCircle
 10
3.3
 20
10.0
 30
0.0
 40
0.9
100
AcDbArc
 50
180.0
 51
270.0
  0
MTEXT
  5
168
330
17
100
AcDbEntity
  8
ANNOTATIONS
100
AcDbMText
 10
2.8499999999999996
 20
8.7
 30
0.0
 40
0.144
 71
5
  1
P1
  0
LINE
  5
169
330
17
100
AcDbEntity
  8
WINDOWS
100
AcDbLine
 10
5.15
 20
4.95
 30
0.0
 11
6.3500000000000005
 21
4.95
 31
0.0
  0
LINE
  5
16A
330
17
100
AcDbEntity
  8
WINDOWS
100
AcDbLine
 10
5.15
 20
5.05
 30
0.0
 11
6.3500000000000005
 21
5.05
 31
0.0
  0
LINE
  5
16B
330
17
100
AcDbEntity
  8
WINDOWS
100
AcDbLine
 10
5.15
 20
4.95
 30
0.0
 11
5.15
 21
5.05
 31
0.0
  0
LINE
  5
16C
330
17
100
AcDbEntity
  8
WINDOWS
100
AcDbLine
 10
6.3500000000000005
 20
4.95
 30
0.0
 11
6.3500000000000005
 21
5.05
 31
0.0
  0
LINE
  5
16D
330
17
100
AcDbEntity
  8
WINDOWS
  6
DASHED
100
AcDbLine
 10
5.15
 20
5.0
 30
0.0
 11
6.3500000000000005
 21
5.0
 31
0.0
  0
MTEXT
  5
16E
330
17
100
AcDbEntity
  8
ANNOTATIONS
100
AcDbMText
 10
5.75
 20
5.3
 30
0.0
 40
0.12
 71
5
  1
J1
  0
MTEXT
  5
16F
330
17
100
AcDbEntity
  8
ANNOTATIONS
100
AcDbMText
 10
5.75
 20
5.4799999999999995
 30
0.0
 40
0.08399999999999999
 71
5
  1
h=1.00
  0
LINE
  5
170
330
17
100
AcDbEntity
  8
WINDOWS
100
AcDbLine
 10
2.95
 20
6.8999999999999995
 30
0.0
 11
2.95
 21
8.1
 31
0.0
  0
LINE
  5
171
330
17
100
AcDbEntity
  8
WINDOWS
100
AcDbLine
 10
3.05
 20
6.8999999999999995
 30
0.0
 11
3.05
 21
8.1
 31
0.0
  0
LINE
  5
172
330
17
100
AcDbEntity
  8
WINDOWS
100
AcDbLine
 10
2.95
 20
6.8999999999999995
 30
0.0
 11
3.05
 21
6.8999999999999995
 31
0.0
  0
LINE
  5
173
330
17
100
AcDbEntity
  8
WINDOWS
100
AcDbLine
 10
2.95
 20
8.1
 30
0.0
 11
3.05
 21
8.1
 31
0.0
  0
LINE
  5
174
330
17
100
AcDbEntity
  8
WINDOWS
  6
DASHED
100
AcDbLine
 10
3.0
 20
6.8999999999999995
 30
0.0
 11
3.0
 21
8.1
 31
0.0
  0
MTEXT
  5
175
330
17
100
AcDbEntity
  8
ANNOTATIONS
100
AcDbMText
 10
3.3
 20
7.499999999999999
 30
0.0
 40
0.12
 71
5
  1
J2
  0
MTEXT
  5
176
330
17
100
AcDbEntity
  8
ANNOTATIONS
100
AcDbMText
 10
3.48
 20
7.499999999999999
 30
0.0
 40
0.08399999999999999
 71
5
  1
h=1.00
  0
MTEXT
  5
177
330
17
100
AcDbEntity
  8
TEXT
100
AcDbMText
 10
5.75
 20
7.6848
 30
0.0
 40
0.22
 71
5
  1
01 - SALA DE ESTAR
  0
MTEXT
  5
178
330
17
100
AcDbEntity
  8
TEXT
100
AcDbMText
 10
5.75
 20
7.5
 30
0.0
 40
0.154
 71
5
  1
A=27.5m²
  0
MTEXT
  5
179
330
17
100
AcDbEntity
  8
ANNOTATIONS
100
AcDbMText
 10
5.75
 20
7.3152
 30
0.0
 40
0.11549999999999999
 71
5
  1
Piso: Porcelanato
  0
MTEXT
  5
17A
330
17
100
AcDbEntity
  8
ANNOTATIONS
100
AcDbMText
 10
5.75
 20
7.1612
 30
0.0
 40
0.11549999999999999
 71
5
  1
@PD=2.80m
  0
LWPOLYLINE
  5
17B
330
17
100
AcDbEntity
  8
FURNITURE
100
AcDbPolyline
 90
4
 70
1
 10
3.35
 20
8.9
 10
5.825
 20
8.9
 10
5.825
 20
9.65
 10
3.35
 20
9.65
  0
LWPOLYLINE
  5
17C
330
17
100
AcDbEntity
  8
FURNITURE
100
AcDbPolyline
 90
4
 70
1
 10
3.35
 20
8.0
 10
4.1
 20
8.0
 10
4.1
 20
8.9
 10
3.35
 20
8.9
  0
LWPOLYLINE
  5
17D
330
17
100
AcDbEntity
  8
FURNITURE
100
AcDbPolyline
 90
4
 70
1
 10
3.96875
 20
7.15
 10
5.20625
 20
7.15
 10
5.20625
 20
7.65
 10
3.96875
 20
7.65
  0
LWPOLYLINE
  5
17E
330
17
100
AcDbEntity
  8
FURNITURE
100
AcDbPolyline
 90
4
 70
1
 10
6.2250000000000005
 20
5.35
 10
8.15
 20
5.35
 10
8.15
 20
5.699999999999999
 10
6.2250000000000005
 20
5.699999999999999
  0
LWPOLYLINE
  5
17F
330
17
100
AcDbEntity
  8
FURNITURE
100
AcDbPolyline
 90
4
 70
1
 10
7.45
 20
8.6
 10
8.1
 20
8.6
 10
8.1
 20
9.25
 10
7.45
 20
9.25
  0
HATCH
  5
180
330
17
100
AcDbEntity
  8
DOORS
 62
7
100
AcDbHatch
 10
0.0
 20
0.0
 30
0.0
210
0.0
220
0.0
230
1.0
  2
SOLID
 70
1
 71
0
 91
1
 92
3
 72
0
 73
1
 93
4
 10
7.9
 20
8.690000000000001
 10
8.8
 20
8.690000000000001
 10
8.8
 20
8.910000000000002
 10
7.9
 20
8.910000000000002
 97
0
 75
1
 76
1
 98
0
  0
LWPOLYLINE
  5
181
330
17
100
AcDbEntity
  8
DOORS
100
AcDbPolyline
 90
4
 70
1
 10
8.760000000000002
 20
7.9
 10
8.8
 20
7.9
 10
8.8
 20
8.8
 10
8.760000000000002
 20
8.8
  0
ARC
  5
182
330
17
100
AcDbEntity
  8
DOORS
100
AcDbCircle
 10
8.8
 20
8.8
 30
0.0
 40
0.9
100
AcDbArc
 50
180.0
 51
270.0
  0
MTEXT
  5
183
330
17
100
AcDbEntity
  8
ANNOTATIONS
100
AcDbMText
 10
8.350000000000001
 20
7.5
 30
0.0
 40
0.144
 71
5
  1
P2
  0
LINE
  5
184
330
17
100
AcDbEntity
  8
WINDOWS
100
AcDbLine
 10
10.149999999999999
 20
4.95
 30
0.0
 11
11.349999999999998
 21
4.95
 31
0.0
  0
LINE
  5
185
330
17
100
AcDbEntity
  8
WINDOWS
100
AcDbLine
 10
10.149999999999999
 20
5.05
 30
0.0
 11
11.349999999999998
 21
5.05
 31
0.0
  0
LINE
  5
186
330
17
100
AcDbEntity
  8
WINDOWS
100
AcDbLine
 10
10.149999999999999
 20
4.95
 30
0.0
 11
10.149999999999999
 21
5.05
 31
0.0
  0
LINE
  5
187
330
17
100
AcDbEntity
  8
WINDOWS
100
AcDbLine
 10
11.349999999999998
 20
4.95
 30
0.0
 11
11.349999999999998
 21
5.05
 31
0.0
  0
LINE
  5
188
330
17
100
AcDbEntity
  8
WINDOWS
  6
DASHED
100
AcDbLine
 10
10.149999999999999
 20
5.0
 30
0.0
 11
11.349999999999998
 21
5.0
 31
0.0
  0
MTEXT
  5
189
330
17
100
AcDbEntity
  8
ANNOTATIONS
100
AcDbMText
 10
10.749999999999998
 20
5.3
 30
0.0
 40
0.12
 71
5
  1
J3
  0
MTEXT
  5
18A
330
17
100
AcDbEntity
  8
ANNOTATIONS
100
AcDbMText
 10
10.749999999999998
 20
5.4799999999999995
 30
0.0
 40
0.08399999999999999
 71
5
  1
h=1.00
  0
LINE
  5
18B
330
17
100
AcDbEntity
  8
WINDOWS
100
AcDbLine
 10
12.95
 20
6.3
 30
0.0
 11
12.95
 21
7.5
 31
0.0
  0
LINE
  5
18C
330
17
100
AcDbEntity
  8
WINDOWS
100
AcDbLine
 10
13.05
 20
6.3
 30
0.0
 11
13.05
 21
7.5
 31
0.0
  0
LINE
  5
18D
330
17
100
AcDbEntity
  8
WINDOWS
100
AcDbLine
 10
12.95
 20
6.3
 30
0.0
 11
13.05
 21
6.3
 31
0.0
  0
LINE
  5
18E
330
17
100
AcDbEntity
  8
WINDOWS
100
AcDbLine
 10
12.95
 20
7.5
 30
0.0
 11
13.05
 21
7.5
 31
0.0
  0
LINE
  5
18F
330
17
100
AcDbEntity
  8
WINDOWS
  6
DASHED
100
AcDbLine
 10
13.0
 20
6.3
 30
0.0
 11
13.0
 21
7.5
 31
0.0
  0
MTEXT
  5
190
330
17
100
AcDbEntity
  8
ANNOTATIONS
100
AcDbMText
 10
13.3
 20
6.8999999999999995
 30
0.0
 40
0.12
 71
5
  1
J4
  0
MTEXT
  5
191
330
17
100
AcDbEntity
  8
ANNOTATIONS
100
AcDbMText
 10
13.48
 20
6.8999999999999995
 30
0.0
 40
0.08399999999999999
 71
5
  1
h=1.00
  0
MTEXT
  5
192
330
17
100
AcDbEntity
  8
TEXT
100
AcDbMText
 10
10.75
 20
7.0848
 30
0.0
 40
0.22
 71
5
  1
02 - SALA DE ESTAR
  0
MTEXT
  5
193
330
17
100
AcDbEntity
  8
TEXT
100
AcDbMText
 10
10.75
 20
6.9
 30
0.0
 40
0.154
 71
5
  1
A=17.1m²
  0
MTEXT
  5
194
330
17
100
AcDbEntity
  8
ANNOTATIONS
100
AcDbMText
 10
10.75
 20
6.7152
 30
0.0
 40
0.11549999999999999
 71
5
  1
Piso: Porcelanato
  0
MTEXT
  5
195
330
17
100
AcDbEntity
  8
ANNOTATIONS
100
AcDbMText
 10
10.75
 20
6.5612
 30
0.0
 40
0.11549999999999999
 71
5
  1
@PD=2.80m
  0
LWPOLYLINE
  5
196
330
17
100
AcDbEntity
  8
FURNITURE
100
AcDbPolyline
 90
4
 70
1
 10
8.85
 20
7.880000000000001
 10
10.875
 20
7.880000000000001
 10
10.875
 20
8.450000000000001
 10
8.85
 20
8.450000000000001
  0
LWPOLYLINE
  5
197
330
17
100
AcDbEntity
  8
FURNITURE
100
AcDbPolyline
 90
4
 70
1
 10
8.85
 20
7.196000000000001
 10
9.42
 20
7.196000000000001
 10
9.42
 20
7.880000000000001
 10
8.85
 20
7.880000000000001
  0
LWPOLYLINE
  5
198
330
17
100
AcDbEntity
  8
FURNITURE
100
AcDbPolyline
 90
4
 70
1
 10
9.35625
 20
6.430000000000001
 10
10.368749999999999
 20
6.430000000000001
 10
10.368749999999999
 20
6.8100000000000005
 10
9.35625
 20
6.8100000000000005
  0
LWPOLYLINE
  5
199
330
17
100
AcDbEntity
  8
FURNITURE
100
AcDbPolyline
 90
4
 70
1
 10
11.075000000000001
 20
5.35
 10
12.65
 20
5.35
 10
12.65
 20
5.699999999999999
 10
11.075000000000001
 20
5.699999999999999
  0
HATCH
  5
19A
330
17
100
AcDbEntity
  8
DOORS
 62
7
100
AcDbHatch
 10
0.0
 20
0.0
 30
0.0
210
0.0
220
0.0
230
1.0
  2
SOLID
 70
1
 71
0
 91
1
 92
3
 72
0
 73
1
 93
4
 10
3.3
 20
12.290000000000001
 10
4.1
 20
12.290000000000001
 10
4.1
 20
12.510000000000002
 10
3.3
 20
12.510000000000002
 97
0
 75
1
 76
1
 98
0
  0
LWPOLYLINE
  5
19B
330
17
100
AcDbEntity
  8
DOORS
100
AcDbPolyline
 90
4
 70
1
 10
3.3
 20
12.4
 10
3.34
 20
12.4
 10
3.34
 20
13.200000000000001
 10
3.3
 20
13.200000000000001
  0
ARC
  5
19C
330
17
100
AcDbEntity
  8
DOORS
100
AcDbCircle
 10
3.3
 20
12.4
 30
0.0
 40
0.8
100
AcDbArc
 50
0.0
 51
90.0
  0
MTEXT
  5
19D
330
17
100
AcDbEntity
  8
ANNOTATIONS
100
AcDbMText
 10
3.6999999999999997
 20
13.600000000000001
 30
0.0
 40
0.144
 71
5
  1
P3
  0
LINE
  5
19E
330
17
100
AcDbEntity
  8
WINDOWS
100
AcDbLine
 10
2.95
 20
13.7
 30
0.0
 11
2.95
 21
14.899999999999999
 31
0.0
  0
LINE
  5
19F
330
17
100
AcDbEntity
  8
WINDOWS
100
AcDbLine
 10
3.05
 20
13.7
 30
0.0
 11
3.05
 21
14.899999999999999
 31
0.0
  0
LINE
  5
1A0
330
17
100
AcDbEntity
  8
WINDOWS
100
AcDbLine
 10
2.95
 20
13.7
 30
0.0
 11
3.05
 21
13.7
 31
0.0
  0
LINE
  5
1A1
330
17
100
AcDbEntity
  8
WINDOWS
100
AcDbLine
 10
2.95
 20
14.899999999999999
 30
0.0
 11
3.05
 21
14.899999999999999
 31
0.0
  0
LINE
  5
1A2
330
17
100
AcDbEntity
  8
WINDOWS
  6
DASHED
100
AcDbLine
 10
3.0
 20
13.7
 30
0.0
 11
3.0
 21
14.899999999999999
 31
0.0
  0
MTEXT
  5
1A3
330
17
100
AcDbEntity
  8
ANNOTATIONS
100
AcDbMText
 10
3.3
 20
14.299999999999999
 30
0.0
 40
0.12
 71
5
  1
J5
  0
MTEXT
  5
1A4
330
17
100
AcDbEntity
  8
ANNOTATIONS
100
AcDbMText
 10
3.48
 20
14.299999999999999
 30
0.0
 40
0.08399999999999999
 71
5
  1
h=1.20
  0
MTEXT
  5
1A5
330
17
100
AcDbEntity
  8
TEXT
100
AcDbMText
 10
5.25
 20
14.4848
 30
0.0
 40
0.22
 71
5
  1
01 - COZINHA
  0
MTEXT
  5
1A6
330
17
100
AcDbEntity
  8
TEXT
100
AcDbMText
 10
5.25
 20
14.3
 30
0.0
 40
0.154
 71
5
  1
A=17.1m²
  0
MTEXT
  5
1A7
330
17
100
AcDbEntity
  8
ANNOTATIONS
100
AcDbMText
 10
5.25
 20
14.115200000000002
 30
0.0
 40
0.11549999999999999
 71
5
  1
Piso: Cerâmica
  0
MTEXT
  5
1A8
330
17
100
AcDbEntity
  8
ANNOTATIONS
100
AcDbMText
 10
5.25
 20
13.9612
 30
0.0
 40
0.11549999999999999
 71
5
  1
@PD=2.80m
  0
LWPOLYLINE
  5
1A9
330
17
100
AcDbEntity
  8
FURNITURE
100
AcDbPolyline
 90
4
 70
1
 10
3.35
 20
15.25
 10
7.15
 20
15.25
 10
7.15
 20
15.85
 10
3.35
 20
15.85
  0
LWPOLYLINE
  5
1AA
330
17
100
AcDbEntity
  8
FURNITURE
100
AcDbPolyline
 90
4
 70
1
 10
4.68
 20
15.35
 10
5.279999999999999
 20
15.35
 10
5.279999999999999
 20
15.75
 10
4.68
 20
15.75
  0
LWPOLYLINE
  5
1AB
330
17
100
AcDbEntity
  8
FURNITURE
100
AcDbPolyline
 90
4
 70
1
 10
5.82
 20
15.299999999999999
 10
6.42
 20
15.299999999999999
 10
6.42
 20
15.799999999999999
 10
5.82
 20
15.799999999999999
  0
ARC
  5
1AC
330
17
100
AcDbEntity
  8
FURNITURE
100
AcDbCircle
 10
5.94
 20
15.399999999999999
 30
0.0
 40
0.08
100
AcDbArc
 50
0.0
 51
360.0
  0
ARC
  5
1AD
330
17
100
AcDbEntity
  8
FURNITURE
100
AcDbCircle
 10
6.2
 20
15.399999999999999
 30
0.0
 40
0.08
100
AcDbArc
 50
0.0
 51
360.0
  0
ARC
  5
1AE
330
17
100
AcDbEntity
  8
FURNITURE
100
AcDbCircle
 10
5.94
 20
15.62
 30
0.0
 40
0.08
100
AcDbArc
 50
0.0
 51
360.0
  0
ARC
  5
1AF
330
17
100
AcDbEntity
  8
FURNITURE
100
AcDbCircle
 10
6.2
 20
15.62
 30
0.0
 40
0.08
100
AcDbArc
 50
0.0
 51
360.0
  0
LWPOLYLINE
  5
1B0
330
17
100
AcDbEntity
  8
FURNITURE
100
AcDbPolyline
 90
4
 70
1
 10
3.35
 20
14.11
 10
3.95
 20
14.11
 10
3.95
 20
15.25
 10
3.35
 20
15.25
  0
LWPOLYLINE
  5
1B1
330
17
100
AcDbEntity
  8
FURNITURE
100
AcDbPolyline
 90
4
 70
1
 10
6.4
 20
15.2
 10
7.15
 20
15.2
 10
7.15
 20
15.85
 10
6.4
 20
15.85
  0
HATCH
  5
1B2
330
17
100
AcDbEntity
  8
HATCH
 62
7
100
AcDbHatch
 10
0.0
 20
0.0
 30
0.0
210
0.0
220
0.0
230
1.0
  2
AR-PARQ1
 70
0
 71
0
 91
1
 92
3
 72
0
 73
1
 93
4
 10
3.1
 20
12.5
 10
7.4
 20
12.5
 10
7.4
 20
16.099999999999998
 10
3.1
 20
16.099999999999998
 97
0
 75
1
 76
1
 52
0.0
 41
0.008
 77
0
 78
14
 53
90.0
 43
0.0
 44
0.0
 45
-2.4384
 46
2.4384
 79
2
 49
2.4384
 49
-2.4384
 53
90.0
 43
0.4064
 44
0.0
 45
-2.4384
 46
2.4384
 79
2
 49
2.4384
 49
-2.4384
 53
90.0
 43
0.8128
 44
0.0
 45
-2.4384
 46
2.4384
 79
2
 49
2.4384
 49
-2.4384
 53
90.0
 43
1.2192
 44
0.0
 45
-2.4384
 46
2.4384
 79
2
 49
2.4384
 49
-2.4384
 53
90.0
 43
1.6256
 44
0.0
 45
-2.4384
 46
2.4384
 79
2
 49
2.4384
 49
-2.4384
 53
90.0
 43
2.032
 44
0.0
 45
-2.4384
 46
2.4384
 79
2
 49
2.4384
 49
-2.4384
 53
90.0
 43
2.4384
 44
0.0
 45
-2.4384
 46
2.4384
 79
2
 49
2.4384
 49
-2.4384
 53
0.0
 43
0.0
 44
2.4384
 45
2.4384
 46
-2.4384
 79
2
 49
2.4384
 49
-2.4384
 53
0.0
 43
0.0
 44
2.8448
 45
2.4384
 46
-2.4384
 79
2
 49
2.4384
 49
-2.4384
 53
0.0
 43
0.0
 44
3.2512
 45
2.4384
 46
-2.4384
 79
2
 49
2.4384
 49
-2.4384
 53
0.0
 43
0.0
 44
3.6576
 45
2.4384
 46
-2.4384
 79
2
 49
2.4384
 49
-2.4384
 53
0.0
 43
0.0
 44
4.064
 45
2.4384
 46
-2.4384
 79
2
 49
2.4384
 49
-2.4384
 53
0.0
 43
0.0
 44
4.4704
 45
2.4384
 46
-2.4384
 79
2
 49
2.4384
 49
-2.4384
 53
0.0
 43
0.0
 44
4.8768
 45
2.4384
 46
-2.4384
 79
2
 49
2.4384
 49
-2.4384
 98
0
  0
HATCH
  5
1B3
330
17
100
AcDbEntity
  8
DOORS
 62
7
100
AcDbHatch
 10
0.0
 20
0.0
 30
0.0
210
0.0
220
0.0
230
1.0
  2
SOLID
 70
1
 71
0
 91
1
 92
3
 72
0
 73
1
 93
4
 10
7.8
 20
12.290000000000001
 10
8.5
 20
12.290000000000001
 10
8.5
 20
12.510000000000002
 10
7.8
 20
12.510000000000002
 97
0
 75
1
 76
1
 98
0
  0
LWPOLYLINE
  5
1B4
330
17
100
AcDbEntity
  8
DOORS
100
AcDbPolyline
 90
4
 70
1
 10
7.8
 20
12.4
 10
7.84
 20
12.4
 10
7.84
 20
13.1
 10
7.8
 20
13.1
  0
ARC
  5
1B5
330
17
100
AcDbEntity
  8
DOORS
100
AcDbCircle
 10
7.8
 20
12.4
 30
0.0
 40
0.7
100
AcDbArc
 50
0.0
 51
90.0
  0
MTEXT
  5
1B6
330
17
100
AcDbEntity
  8
ANNOTATIONS
100
AcDbMText
 10
8.15
 20
13.5
 30
0.0
 40
0.144
 71
5
  1
P4
  0
MTEXT
  5
1B7
330
17
100
AcDbEntity
  8
TEXT
100
AcDbMText
 10
8.5
 20
13.484
 30
0.0
 40
0.1
 71
5
  1
01 - BANHEIRO
  0
MTEXT
  5
1B8
330
17
100
AcDbEntity
  8
TEXT
100
AcDbMText
 10
8.5
 20
13.4
 30
0.0
 40
0.06999999999999999
 71
5
  1
A=4.0m²
  0
MTEXT
  5
1B9
330
17
100
AcDbEntity
  8
ANNOTATIONS
100
AcDbMText
 10
8.5
 20
13.316
 30
0.0
 40
0.05249999999999999
 71
5
  1
Piso: Cerâmica
  0
MTEXT
  5
1BA
330
17
100
AcDbEntity
  8
ANNOTATIONS
100
AcDbMText
 10
8.5
 20
13.246
 30
0.0
 40
0.05249999999999999
 71
5
  1
@PD=2.80m
  0
LWPOLYLINE
  5
1BB
330
17
100
AcDbEntity
  8
FURNITURE
100
AcDbPolyline
 90
4
 70
1
 10
8.65
 20
12.95
 10
9.05
 20
12.95
 10
9.05
 20
13.5
 10
8.65
 20
13.5
  0
ARC
  5
1BC
330
17
100
AcDbEntity
  8
FURNITURE
100
AcDbCircle
 10
8.85
 20
13.5
 30
0.0
 40
0.18
100
AcDbArc
 50
0.0
 51
180.0
  0
LWPOLYLINE
  5
1BD
330
17
100
AcDbEntity
  8
FURNITURE
100
AcDbPolyline
 90
4
 70
1
 10
7.85
 20
13.55
 10
8.65
 20
13.55
 10
8.65
 20
14.05
 10
7.85
 20
14.05
  0
ARC
  5
1BE
330
17
100
AcDbEntity
  8
FURNITURE
100
AcDbCircle
 10
8.25
 20
13.8
 30
0.0
 40
0.18
100
AcDbArc
 50
0.0
 51
360.0
  0
LWPOLYLINE
  5
1BF
330
17
100
AcDbEntity
  8
FURNITURE
100
AcDbPolyline
 90
4
 70
1
 10
7.85
 20
12.75
 10
8.35
 20
12.75
 10
8.35
 20
13.25
 10
7.85
 20
13.25
  0
LINE
  5
1C0
330
17
100
AcDbEntity
  8
FURNITURE
100
AcDbLine
 10
7.85
 20
12.75
 30
0.0
 11
8.35
 21
13.25
 31
0.0
  0
HATCH
  5
1C1
330
17
100
AcDbEntity
  8
HATCH
 62
7
100
AcDbHatch
 10
0.0
 20
0.0
 30
0.0
210
0.0
220
0.0
230
1.0
  2
AR-PARQ1
 70
0
 71
0
 91
1
 92
3
 72
0
 73
1
 93
4
 10
7.6
 20
12.5
 10
9.4
 20
12.5
 10
9.4
 20
14.3
 10
7.6
 20
14.3
 97
0
 75
1
 76
1
 52
0.0
 41
0.008
 77
0
 78
14
 53
90.0
 43
0.0
 44
0.0
 45
-2.4384
 46
2.4384
 79
2
 49
2.4384
 49
-2.4384
 53
90.0
 43
0.4064
 44
0.0
 45
-2.4384
 46
2.4384
 79
2
 49
2.4384
 49
-2.4384
 53
90.0
 43
0.8128
 44
0.0
 45
-2.4384
 46
2.4384
 79
2
 49
2.4384
 49
-2.4384
 53
90.0
 43
1.2192
 44
0.0
 45
-2.4384
 46
2.4384
 79
2
 49
2.4384
 49
-2.4384
 53
90.0
 43
1.6256
 44
0.0
 45
-2.4384
 46
2.4384
 79
2
 49
2.4384
 49
-2.4384
 53
90.0
 43
2.032
 44
0.0
 45
-2.4384
 46
2.4384
 79
2
 49
2.4384
 49
-2.4384
 53
90.0
 43
2.4384
 44
0.0
 45
-2.4384
 46
2.4384
 79
2
 49
2.4384
 49
-2.4384
 53
0.0
 43
0.0
 44
2.4384
 45
2.4384
 46
-2.4384
 79
2
 49
2.4384
 49
-2.4384
 53
0.0
 43
0.0
 44
2.8448
 45
2.4384
 46
-2.4384
 79
2
 49
2.4384
 49
-2.4384
 53
0.0
 43
0.0
 44
3.2512
 45
2.4384
 46
-2.4384
 79
2
 49
2.4384
 49
-2.4384
 53
0.0
 43
0.0
 44
3.6576
 45
2.4384
 46
-2.4384
 79
2
 49
2.4384
 49
-2.4384
 53
0.0
 43
0.0
 44
4.064
 45
2.4384
 46
-2.4384
 79
2
 49
2.4384
 49
-2.4384
 53
0.0
 43
0.0
 44
4.4704
 45
2.4384
 46
-2.4384
 79
2
 49
2.4384
 49
-2.4384
 53
0.0
 43
0.0
 44
4.8768
 45
2.4384
 46
-2.4384
 79
2
 49
2.4384
 49
-2.4384
 98
0
  0
HATCH
  5
1C2
330
17
100
AcDbEntity
  8
DOORS
 62
7
100
AcDbHatch
 10
0.0
 20
0.0
 30
0.0
210
0.0
220
0.0
230
1.0
  2
SOLID
 70
1
 71
0
 91
1
 92
3
 72
0
 73
1
 93
4
 10
9.8
 20
12.290000000000001
 10
10.5
 20
12.290000000000001
 10
10.5
 20
12.510000000000002
 10
9.8
 20
12.510000000000002
 97
0
 75
1
 76
1
 98
0
  0
LWPOLYLINE
  5
1C3
330
17
100
AcDbEntity
  8
DOORS
100
AcDbPolyline
 90
4
 70
1
 10
9.8
 20
12.4
 10
9.84
 20
12.4
 10
9.84
 20
13.1
 10
9.8
 20
13.1
  0
ARC
  5
1C4
330
17
100
AcDbEntity
  8
DOORS
100
AcDbCircle
 10
9.8
 20
12.4
 30
0.0
 40
0.7
100
AcDbArc
 50
0.0
 51
90.0
  0
MTEXT
  5
1C5
330
17
100
AcDbEntity
  8
ANNOTATIONS
100
AcDbMText
 10
10.15
 20
13.5
 30
0.0
 40
0.144
 71
5
  1
P5
  0
MTEXT
  5
1C6
330
17
100
AcDbEntity
  8
TEXT
100
AcDbMText
 10
10.9
 20
13.7676
 30
0.0
 40
0.13999999999999999
 71
5
  1
01 - LAVANDERIA
  0
MTEXT
  5
1C7
330
17
100
AcDbEntity
  8
TEXT
100
AcDbMText
 10
10.9
 20
13.65
 30
0.0
 40
0.09799999999999999
 71
5
  1
A=7.0m²
  0
MTEXT
  5
1C8
330
17
100
AcDbEntity
  8
ANNOTATIONS
100
AcDbMText
 10
10.9
 20
13.5324
 30
0.0
 40
0.0735
 71
5
  1
Piso: Cerâmica
  0
MTEXT
  5
1C9
330
17
100
AcDbEntity
  8
ANNOTATIONS
100
AcDbMText
 10
10.9
 20
13.4344
 30
0.0
 40
0.0735
 71
5
  1
@PD=2.80m
  0
LWPOLYLINE
  5
1CA
330
17
100
AcDbEntity
  8
FURNITURE
100
AcDbPolyline
 90
4
 70
1
 10
9.85
 20
13.950000000000001
 10
10.45
 20
13.950000000000001
 10
10.45
 20
14.55
 10
9.85
 20
14.55
  0
ARC
  5
1CB
330
17
100
AcDbEntity
  8
FURNITURE
100
AcDbCircle
 10
10.15
 20
14.25
 30
0.0
 40
0.2
100
AcDbArc
 50
0.0
 51
360.0
  0
LWPOLYLINE
  5
1CC
330
17
100
AcDbEntity
  8
FURNITURE
100
AcDbPolyline
 90
4
 70
1
 10
10.549999999999999
 20
13.950000000000001
 10
11.149999999999999
 20
13.950000000000001
 10
11.149999999999999
 20
14.55
 10
10.549999999999999
 20
14.55
  0
LWPOLYLINE
  5
1CD
330
17
100
AcDbEntity
  8
FURNITURE
100
AcDbPolyline
 90
4
 70
1
 10
11.25
 20
13.950000000000001
 10
11.95
 20
13.950000000000001
 10
11.95
 20
14.55
 10
11.25
 20
14.55
  0
LWPOLYLINE
  5
1CE
330
17
100
AcDbEntity
  8
FURNITURE
100
AcDbPolyline
 90
4
 70
1
 10
11.450000000000001
 20
12.75
 10
11.950000000000001
 20
12.75
 10
11.950000000000001
 20
13.15
 10
11.450000000000001
 20
13.15
  0
HATCH
  5
1CF
330
17
100
AcDbEntity
  8
HATCH
 62
7
100
AcDbHatch
 10
0.0
 20
0.0
 30
0.0
210
0.0
220
0.0
230
1.0
  2
AR-PARQ1
 70
0
 71
0
 91
1
 92
3
 72
0
 73
1
 93
4
 10
9.6
 20
12.5
 10
12.200000000000001
 20
12.5
 10
12.200000000000001
 20
14.8
 10
9.6
 20
14.8
 97
0
 75
1
 76
1
 52
0.0
 41
0.008
 77
0
 78
14
 53
90.0
 43
0.0
 44
0.0
 45
-2.4384
 46
2.4384
 79
2
 49
2.4384
 49
-2.4384
 53
90.0
 43
0.4064
 44
0.0
 45
-2.4384
 46
2.4384
 79
2
 49
2.4384
 49
-2.4384
 53
90.0
 43
0.8128
 44
0.0
 45
-2.4384
 46
2.4384
 79
2
 49
2.4384
 49
-2.4384
 53
90.0
 43
1.2192
 44
0.0
 45
-2.4384
 46
2.4384
 79
2
 49
2.4384
 49
-2.4384
 53
90.0
 43
1.6256
 44
0.0
 45
-2.4384
 46
2.4384
 79
2
 49
2.4384
 49
-2.4384
 53
90.0
 43
2.032
 44
0.0
 45
-2.4384
 46
2.4384
 79
2
 49
2.4384
 49
-2.4384
 53
90.0
 43
2.4384
 44
0.0
 45
-2.4384
 46
2.4384
 79
2
 49
2.4384
 49
-2.4384
 53
0.0
 43
0.0
 44
2.4384
 45
2.4384
 46
-2.4384
 79
2
 49
2.4384
 49
-2.4384
 53
0.0
 43
0.0
 44
2.8448
 45
2.4384
 46
-2.4384
 79
2
 49
2.4384
 49
-2.4384
 53
0.0
 43
0.0
 44
3.2512
 45
2.4384
 46
-2.4384
 79
2
 49
2.4384
 49
-2.4384
 53
0.0
 43
0.0
 44
3.6576
 45
2.4384
 46
-2.4384
 79
2
 49
2.4384
 49
-2.4384
 53
0.0
 43
0.0
 44
4.064
 45
2.4384
 46
-2.4384
 79
2
 49
2.4384
 49
-2.4384
 53
0.0
 43
0.0
 44
4.4704
 45
2.4384
 46
-2.4384
 79
2
 49
2.4384
 49
-2.4384
 53
0.0
 43
0.0
 44
4.8768
 45
2.4384
 46
-2.4384
 79
2
 49
2.4384
 49
-2.4384
 98
0
  0
HATCH
  5
1D0
330
17
100
AcDbEntity
  8
DOORS
 62
7
100
AcDbHatch
 10
0.0
 20
0.0
 30
0.0
210
0.0
220
0.0
230
1.0
  2
SOLID
 70
1
 71
0
 91
1
 92
3
 72
0
 73
1
 93
4
 10
2.5
 20
22.09
 10
3.3
 20
22.09
 10
3.3
 20
22.31
 10
2.5
 20
22.31
 97
0
 75
1
 76
1
 98
0
  0
LWPOLYLINE
  5
1D1
330
17
100
AcDbEntity
  8
DOORS
100
AcDbPolyline
 90
4
 70
1
 10
3.26
 20
21.4
 10
3.3
 20
21.4
 10
3.3
 20
22.2
 10
3.26
 20
22.2
  0
ARC
  5
1D2
330
17
100
AcDbEntity
  8
DOORS
100
AcDbCircle
 10
3.3
 20
22.2
 30
0.0
 40
0.8
100
AcDbArc
 50
180.0
 51
270.0
  0
MTEXT
  5
1D3
330
17
100
AcDbEntity
  8
ANNOTATIONS
100
AcDbMText
 10
2.9
 20
21.0
 30
0.0
 40
0.144
 71
5
  1
P6
  0
LINE
  5
1D4
330
17
100
AcDbEntity
  8
WINDOWS
100
AcDbLine
 10
2.95
 20
18.6
 30
0.0
 11
2.95
 21
19.8
 31
0.0
  0
LINE
  5
1D5
330
17
100
AcDbEntity
  8
WINDOWS
100
AcDbLine
 10
3.05
 20
18.6
 30
0.0
 11
3.05
 21
19.8
 31
0.0
  0
LINE
  5
1D6
330
17
100
AcDbEntity
  8
WINDOWS
100
AcDbLine
 10
2.95
 20
18.6
 30
0.0
 11
3.05
 21
18.6
 31
0.0
  0
LINE
  5
1D7
330
17
100
AcDbEntity
  8
WINDOWS
100
AcDbLine
 10
2.95
 20
19.8
 30
0.0
 11
3.05
 21
19.8
 31
0.0
  0
LINE
  5
1D8
330
17
100
AcDbEntity
  8
WINDOWS
  6
DASHED
100
AcDbLine
 10
3.0
 20
18.6
 30
0.0
 11
3.0
 21
19.8
 31
0.0
  0
MTEXT
  5
1D9
330
17
100
AcDbEntity
  8
ANNOTATIONS
100
AcDbMText
 10
3.3
 20
19.200000000000003
 30
0.0
 40
0.12
 71
5
  1
J6
  0
MTEXT
  5
1DA
330
17
100
AcDbEntity
  8
ANNOTATIONS
100
AcDbMText
 10
3.48
 20
19.200000000000003
 30
0.0
 40
0.08399999999999999
 71
5
  1
h=1.00
  0
MTEXT
  5
1DB
330
17
100
AcDbEntity
  8
TEXT
100
AcDbMText
 10
4.5
 20
19.326
 30
0.0
 40
0.15000000000000002
 71
5
  1
01 - GENERIC
  0
MTEXT
  5
1DC
330
17
100
AcDbEntity
  8
TEXT
100
AcDbMText
 10
4.5
 20
19.2
 30
0.0
 40
0.10500000000000001
 71
5
  1
A=18.0m²
  0
MTEXT
  5
1DD
330
17
100
AcDbEntity
  8
ANNOTATIONS
100
AcDbMText
 10
4.5
 20
19.073999999999998
 30
0.0
 40
0.07875000000000001
 71
5
  1
Piso: Cerâmica
  0
MTEXT
  5
1DE
330
17
100
AcDbEntity
  8
ANNOTATIONS
100
AcDbMText
 10
4.5
 20
18.968999999999998
 30
0.0
 40
0.07875000000000001
 71
5
  1
@PD=2.80m
  0
HATCH
  5
1DF
330
17
100
AcDbEntity
  8
DOORS
 62
7
100
AcDbHatch
 10
0.0
 20
0.0
 30
0.0
210
0.0
220
0.0
230
1.0
  2
SOLID
 70
1
 71
0
 91
1
 92
3
 72
0
 73
1
 93
4
 10
6.3
 20
16.09
 10
7.2
 20
16.09
 10
7.2
 20
16.31
 10
6.3
 20
16.31
 97
0
 75
1
 76
1
 98
0
  0
LWPOLYLINE
  5
1E0
330
17
100
AcDbEntity
  8
DOORS
100
AcDbPolyline
 90
4
 70
1
 10
6.3
 20
16.2
 10
6.34
 20
16.2
 10
6.34
 20
17.099999999999998
 10
6.3
 20
17.099999999999998
  0
ARC
  5
1E1
330
17
100
AcDbEntity
  8
DOORS
100
AcDbCircle
 10
6.3
 20
16.2
 30
0.0
 40
0.9
100
AcDbArc
 50
0.0
 51
90.0
  0
MTEXT
  5
1E2
330
17
100
AcDbEntity
  8
ANNOTATIONS
100
AcDbMText
 10
6.75
 20
17.499999999999996
 30
0.0
 40
0.144
 71
5
  1
P7
  0
MTEXT
  5
1E3
330
17
100
AcDbEntity
  8
TEXT
100
AcDbMText
 10
8.5
 20
18.1348
 30
0.0
 40
0.22
 71
5
  1
03 - SALA DE ESTAR
  0
MTEXT
  5
1E4
330
17
100
AcDbEntity
  8
TEXT
100
AcDbMText
 10
8.5
 20
17.95
 30
0.0
 40
0.154
 71
5
  1
A=17.5m²
  0
MTEXT
  5
1E5
330
17
100
AcDbEntity
  8
ANNOTATIONS
100
AcDbMText
 10
8.5
 20
17.7652
 30
0.0
 40
0.11549999999999999
 71
5
  1
Piso: Porcelanato
  0
MTEXT
  5
1E6
330
17
100
AcDbEntity
  8
ANNOTATIONS
100
AcDbMText
 10
8.5
 20
17.6112
 30
0.0
 40
0.11549999999999999
 71
5
  1
@PD=2.80m
  0
LWPOLYLINE
  5
1E7
330
17
100
AcDbEntity
  8
FURNITURE
100
AcDbPolyline
 90
4
 70
1
 10
6.35
 20
18.825
 10
8.6
 20
18.825
 10
8.6
 20
19.349999999999998
 10
6.35
 20
19.349999999999998
  0
LWPOLYLINE
  5
1E8
330
17
100
AcDbEntity
  8
FURNITURE
100
AcDbPolyline
 90
4
 70
1
 10
6.35
 20
18.195
 10
6.875
 20
18.195
 10
6.875
 20
18.825
 10
6.35
 20
18.825
  0
LWPOLYLINE
  5
1E9
330
17
100
AcDbEntity
  8
FURNITURE
100
AcDbPolyline
 90
4
 70
1
 10
6.9125
 20
17.45
 10
8.0375
 20
17.45
 10
8.0375
 20
17.8
 10
6.9125
 20
17.8
  0
LWPOLYLINE
  5
1EA
330
17
100
AcDbEntity
  8
FURNITURE
100
AcDbPolyline
 90
4
 70
1
 10
8.9
 20
16.55
 10
10.65
 20
16.55
 10
10.65
 20
16.900000000000002
 10
8.9
 20
16.900000000000002
  0
HATCH
  5
1EB
330
17
100
AcDbEntity
  8
DOORS
 62
7
100
AcDbHatch
 10
0.0
 20
0.0
 30
0.0
210
0.0
220
0.0
230
1.0
  2
SOLID
 70
1
 71
0
 91
1
 92
3
 72
0
 73
1
 93
4
 10
11.3
 20
16.09
 10
12.100000000000001
 20
16.09
 10
12.100000000000001
 20
16.31
 10
11.3
 20
16.31
 97
0
 75
1
 76
1
 98
0
  0
LWPOLYLINE
  5
1EC
330
17
100
AcDbEntity
  8
DOORS
100
AcDbPolyline
 90
4
 70
1
 10
11.3
 20
16.2
 10
11.34
 20
16.2
 10
11.34
 20
17.0
 10
11.3
 20
17.0
  0
ARC
  5
1ED
330
17
100
AcDbEntity
  8
DOORS
100
AcDbCircle
 10
11.3
 20
16.2
 30
0.0
 40
0.8
100
AcDbArc
 50
0.0
 51
90.0
  0
MTEXT
  5
1EE
330
17
100
AcDbEntity
  8
ANNOTATIONS
100
AcDbMText
 10
11.700000000000001
 20
17.4
 30
0.0
 40
0.144
 71
5
  1
P8
  0
LINE
  5
1EF
330
17
100
AcDbEntity
  8
WINDOWS
100
AcDbLine
 10
15.95
 20
17.85
 30
0.0
 11
15.95
 21
19.05
 31
0.0
  0
LINE
  5
1F0
330
17
100
AcDbEntity
  8
WINDOWS
100
AcDbLine
 10
16.05
 20
17.85
 30
0.0
 11
16.05
 21
19.05
 31
0.0
  0
LINE
  5
1F1
330
17
100
AcDbEntity
  8
WINDOWS
100
AcDbLine
 10
15.95
 20
17.85
 30
0.0
 11
16.05
 21
17.85
 31
0.0
  0
LINE
  5
1F2
330
17
100
AcDbEntity
  8
WINDOWS
100
AcDbLine
 10
15.95
 20
19.05
 30
0.0
 11
16.05
 21
19.05
 31
0.0
  0
LINE
  5
1F3
330
17
100
AcDbEntity
  8
WINDOWS
  6
DASHED
100
AcDbLine
 10
16.0
 20
17.85
 30
0.0
 11
16.0
 21
19.05
 31
0.0
  0
MTEXT
  5
1F4
330
17
100
AcDbEntity
  8
ANNOTATIONS
100
AcDbMText
 10
16.3
 20
18.450000000000003
 30
0.0
 40
0.12
 71
5
  1
J7
  0
MTEXT
  5
1F5
330
17
100
AcDbEntity
  8
ANNOTATIONS
100
AcDbMText
 10
16.48
 20
18.450000000000003
 30
0.0
 40
0.08399999999999999
 71
5
  1
h=1.00
  0
MTEXT
  5
1F6
330
17
100
AcDbEntity
  8
TEXT
100
AcDbMText
 10
13.5
 20
18.6348
 30
0.0
 40
0.22
 71
5
  1
02 - GENERIC
  0
MTEXT
  5
1F7
330
17
100
AcDbEntity
  8
TEXT
100
AcDbMText
 10
13.5
 20
18.45
 30
0.0
 40
0.154
 71
5
  1
A=22.5m²
  0
MTEXT
  5
1F8
330
17
100
AcDbEntity
  8
ANNOTATIONS
100
AcDbMText
 10
13.5
 20
18.2652
 30
0.0
 40
0.11549999999999999
 71
5
  1
Piso: Cerâmica
  0
MTEXT
  5
1F9
330
17
100
AcDbEntity
  8
ANNOTATIONS
100
AcDbMText
 10
13.5
 20
18.1112
 30
0.0
 40
0.11549999999999999
 71
5
  1
@PD=2.80m
  0
HATCH
  5
1FA
330
17
100
AcDbEntity
  8
DOORS
 62
7
100
AcDbHatch
 10
0.0
 20
0.0
 30
0.0
210
0.0
220
0.0
230
1.0
  2
SOLID
 70
1
 71
0
 91
1
 92
3
 72
0
 73
1
 93
4
 10
3.3
 20
24.490000000000002
 10
4.1
 20
24.490000000000002
 10
4.1
 20
24.71
 10
3.3
 20
24.71
 97
0
 75
1
 76
1
 98
0
  0
LWPOLYLINE
  5
1FB
330
17
100
AcDbEntity
  8
DOORS
100
AcDbPolyline
 90
4
 70
1
 10
3.3
 20
24.6
 10
3.34
 20
24.6
 10
3.34
 20
25.400000000000002
 10
3.3
 20
25.400000000000002
  0
ARC
  5
1FC
330
17
100
AcDbEntity
  8
DOORS
100
AcDbCircle
 10
3.3
 20
24.6
 30
0.0
 40
0.8
100
AcDbArc
 50
0.0
 51
90.0
  0
MTEXT
  5
1FD
330
17
100
AcDbEntity
  8
ANNOTATIONS
100
AcDbMText
 10
3.6999999999999997
 20
25.8
 30
0.0
 40
0.144
 71
5
  1
P9
  0
LINE
  5
1FE
330
17
100
AcDbEntity
  8
WINDOWS
100
AcDbLine
 10
2.95
 20
26.01
 30
0.0
 11
2.95
 21
27.21
 31
0.0
  0
LINE
  5
1FF
330
17
100
AcDbEntity
  8
WINDOWS
100
AcDbLine
 10
3.05
 20
26.01
 30
0.0
 11
3.05
 21
27.21
 31
0.0
  0
LINE
  5
200
330
17
100
AcDbEntity
  8
WINDOWS
100
AcDbLine
 10
2.95
 20
26.01
 30
0.0
 11
3.05
 21
26.01
 31
0.0
  0
LINE
  5
201
330
17
100
AcDbEntity
  8
WINDOWS
100
AcDbLine
 10
2.95
 20
27.21
 30
0.0
 11
3.05
 21
27.21
 31
0.0
  0
LINE
  5
202
330
17
100
AcDbEntity
  8
WINDOWS
  6
DASHED
100
AcDbLine
 10
3.0
 20
26.01
 30
0.0
 11
3.0
 21
27.21
 31
0.0
  0
MTEXT
  5
203
330
17
100
AcDbEntity
  8
ANNOTATIONS
100
AcDbMText
 10
3.3
 20
26.610000000000003
 30
0.0
 40
0.12
 71
5
  1
J8
  0
MTEXT
  5
204
330
17
100
AcDbEntity
  8
ANNOTATIONS
100
AcDbMText
 10
3.48
 20
26.610000000000003
 30
0.0
 40
0.08399999999999999
 71
5
  1
h=1.00
  0
MTEXT
  5
205
330
17
100
AcDbEntity
  8
TEXT
100
AcDbMText
 10
5.0
 20
26.778
 30
0.0
 40
0.2
 71
5
  1
01 - QUARTO
  0
MTEXT
  5
206
330
17
100
AcDbEntity
  8
TEXT
100
AcDbMText
 10
5.0
 20
26.61
 30
0.0
 40
0.13999999999999999
 71
5
  1
A=16.1m²
  0
MTEXT
  5
207
330
17
100
AcDbEntity
  8
ANNOTATIONS
100
AcDbMText
 10
5.0
 20
26.442
 30
0.0
 40
0.10499999999999998
 71
5
  1
Piso: Laminado
  0
MTEXT
  5
208
330
17
100
AcDbEntity
  8
ANNOTATIONS
100
AcDbMText
 10
5.0
 20
26.302
 30
0.0
 40
0.10499999999999998
 71
5
  1
@PD=2.80m
  0
LWPOLYLINE
  5
209
330
17
100
AcDbEntity
  8
FURNITURE
100
AcDbPolyline
 90
4
 70
1
 10
4.3
 20
26.461
 10
5.699999999999999
 20
26.461
 10
5.699999999999999
 20
28.27
 10
4.3
 20
28.27
  0
LWPOLYLINE
  5
20A
330
17
100
AcDbEntity
  8
FURNITURE
100
AcDbPolyline
 90
4
 70
1
 10
4.35
 20
28.07
 10
5.6499999999999995
 20
28.07
 10
5.6499999999999995
 20
28.22
 10
4.35
 20
28.22
  0
LWPOLYLINE
  5
20B
330
17
100
AcDbEntity
  8
FURNITURE
100
AcDbPolyline
 90
4
 70
1
 10
4.3999999999999995
 20
27.77
 10
4.949999999999999
 20
27.77
 10
4.949999999999999
 20
28.02
 10
4.3999999999999995
 20
28.02
  0
LWPOLYLINE
  5
20C
330
17
100
AcDbEntity
  8
FURNITURE
100
AcDbPolyline
 90
4
 70
1
 10
5.05
 20
27.77
 10
5.6
 20
27.77
 10
5.6
 20
28.02
 10
5.05
 20
28.02
  0
LWPOLYLINE
  5
20D
330
17
100
AcDbEntity
  8
FURNITURE
100
AcDbPolyline
 90
4
 70
1
 10
3.8
 20
27.72
 10
4.25
 20
27.72
 10
4.25
 20
28.169999999999998
 10
3.8
 20
28.169999999999998
  0
LWPOLYLINE
  5
20E
330
17
100
AcDbEntity
  8
FURNITURE
100
AcDbPolyline
 90
4
 70
1
 10
5.749999999999999
 20
27.72
 10
6.199999999999999
 20
27.72
 10
6.199999999999999
 20
28.169999999999998
 10
5.749999999999999
 20
28.169999999999998
  0
LWPOLYLINE
  5
20F
330
17
100
AcDbEntity
  8
FURNITURE
100
AcDbPolyline
 90
4
 70
1
 10
3.35
 20
24.950000000000003
 10
4.35
 20
24.950000000000003
 10
4.35
 20
25.500000000000004
 10
3.35
 20
25.500000000000004
  0
LINE
  5
210
330
17
100
AcDbEntity
  8
FURNITURE
100
AcDbLine
 10
3.85
 20
24.950000000000003
 30
0.0
 11
3.85
 21
25.500000000000004
 31
0.0
  0
HATCH
  5
211
330
17
100
AcDbEntity
  8
DOORS
 62
7
100
AcDbHatch
 10
0.0
 20
0.0
 30
0.0
210
0.0
220
0.0
230
1.0
  2
SOLID
 70
1
 71
0
 91
1
 92
3
 72
0
 73
1
 93
4
 10
7.3
 20
24.490000000000002
 10
8.0
 20
24.490000000000002
 10
8.0
 20
24.71
 10
7.3
 20
24.71
 97
0
 75
1
 76
1
 98
0
  0
LWPOLYLINE
  5
212
330
17
100
AcDbEntity
  8
DOORS
100
AcDbPolyline
 90
4
 70
1
 10
7.3
 20
24.6
 10
7.34
 20
24.6
 10
7.34
 20
25.3
 10
7.3
 20
25.3
  0
ARC
  5
213
330
17
100
AcDbEntity
  8
DOORS
100
AcDbCircle
 10
7.3
 20
24.6
 30
0.0
 40
0.7
100
AcDbArc
 50
0.0
 51
90.0
  0
MTEXT
  5
214
330
17
100
AcDbEntity
  8
ANNOTATIONS
100
AcDbMText
 10
7.6499999999999995
 20
25.7
 30
0.0
 40
0.144
 71
5
  1
P10
  0
MTEXT
  5
215
330
17
100
AcDbEntity
  8
TEXT
100
AcDbMText
 10
8.0
 20
25.784000000000002
 30
0.0
 40
0.1
 71
5
  1
02 - BANHEIRO
  0
MTEXT
  5
216
330
17
100
AcDbEntity
  8
TEXT
100
AcDbMText
 10
8.0
 20
25.700000000000003
 30
0.0
 40
0.06999999999999999
 71
5
  1
A=4.4m²
  0
MTEXT
  5
217
330
17
100
AcDbEntity
  8
ANNOTATIONS
100
AcDbMText
 10
8.0
 20
25.616000000000003
 30
0.0
 40
0.05249999999999999
 71
5
  1
Piso: Cerâmica
  0
MTEXT
  5
218
330
17
100
AcDbEntity
  8
ANNOTATIONS
100
AcDbMText
 10
8.0
 20
25.546000000000003
 30
0.0
 40
0.05249999999999999
 71
5
  1
@PD=2.80m
  0
LWPOLYLINE
  5
219
330
17
100
AcDbEntity
  8
FURNITURE
100
AcDbPolyline
 90
4
 70
1
 10
8.15
 20
25.150000000000002
 10
8.55
 20
25.150000000000002
 10
8.55
 20
25.700000000000003
 10
8.15
 20
25.700000000000003
  0
ARC
  5
21A
330
17
100
AcDbEntity
  8
FURNITURE
100
AcDbCircle
 10
8.35
 20
25.700000000000003
 30
0.0
 40
0.18
100
AcDbArc
 50
0.0
 51
180.0
  0
LWPOLYLINE
  5
21B
330
17
100
AcDbEntity
  8
FURNITURE
100
AcDbPolyline
 90
4
 70
1
 10
7.35
 20
25.95
 10
8.15
 20
25.95
 10
8.15
 20
26.45
 10
7.35
 20
26.45
  0
ARC
  5
21C
330
17
100
AcDbEntity
  8
FURNITURE
100
AcDbCircle
 10
7.75
 20
26.2
 30
0.0
 40
0.18
100
AcDbArc
 50
0.0
 51
360.0
  0
LWPOLYLINE
  5
21D
330
17
100
AcDbEntity
  8
FURNITURE
100
AcDbPolyline
 90
4
 70
1
 10
7.35
 20
24.950000000000003
 10
7.8999999999999995
 20
24.950000000000003
 10
7.8999999999999995
 20
25.500000000000004
 10
7.35
 20
25.500000000000004
  0
LINE
  5
21E
330
17
100
AcDbEntity
  8
FURNITURE
100
AcDbLine
 10
7.35
 20
24.950000000000003
 30
0.0
 11
7.8999999999999995
 21
25.500000000000004
 31
0.0
  0
HATCH
  5
21F
330
17
100
AcDbEntity
  8
HATCH
 62
7
100
AcDbHatch
 10
0.0
 20
0.0
 30
0.0
210
0.0
220
0.0
230
1.0
  2
AR-PARQ1
 70
0
 71
0
 91
1
 92
3
 72
0
 73
1
 93
4
 10
7.1
 20
24.700000000000003
 10
8.9
 20
24.700000000000003
 10
8.9
 20
26.7
 10
7.1
 20
26.7
 97
0
 75
1
 76
1
 52
0.0
 41
0.008
 77
0
 78
14
 53
90.0
 43
0.0
 44
0.0
 45
-2.4384
 46
2.4384
 79
2
 49
2.4384
 49
-2.4384
 53
90.0
 43
0.4064
 44
0.0
 45
-2.4384
 46
2.4384
 79
2
 49
2.4384
 49
-2.4384
 53
90.0
 43
0.8128
 44
0.0
 45
-2.4384
 46
2.4384
 79
2
 49
2.4384
 49
-2.4384
 53
90.0
 43
1.2192
 44
0.0
 45
-2.4384
 46
2.4384
 79
2
 49
2.4384
 49
-2.4384
 53
90.0
 43
1.6256
 44
0.0
 45
-2.4384
 46
2.4384
 79
2
 49
2.4384
 49
-2.4384
 53
90.0
 43
2.032
 44
0.0
 45
-2.4384
 46
2.4384
 79
2
 49
2.4384
 49
-2.4384
 53
90.0
 43
2.4384
 44
0.0
 45
-2.4384
 46
2.4384
 79
2
 49
2.4384
 49
-2.4384
 53
0.0
 43
0.0
 44
2.4384
 45
2.4384
 46
-2.4384
 79
2
 49
2.4384
 49
-2.4384
 53
0.0
 43
0.0
 44
2.8448
 45
2.4384
 46
-2.4384
 79
2
 49
2.4384
 49
-2.4384
 53
0.0
 43
0.0
 44
3.2512
 45
2.4384
 46
-2.4384
 79
2
 49
2.4384
 49
-2.4384
 53
0.0
 43
0.0
 44
3.6576
 45
2.4384
 46
-2.4384
 79
2
 49
2.4384
 49
-2.4384
 53
0.0
 43
0.0
 44
4.064
 45
2.4384
 46
-2.4384
 79
2
 49
2.4384
 49
-2.4384
 53
0.0
 43
0.0
 44
4.4704
 45
2.4384
 46
-2.4384
 79
2
 49
2.4384
 49
-2.4384
 53
0.0
 43
0.0
 44
4.8768
 45
2.4384
 46
-2.4384
 79
2
 49
2.4384
 49
-2.4384
 98
0
  0
HATCH
  5
220
330
17
100
AcDbEntity
  8
DOORS
 62
7
100
AcDbHatch
 10
0.0
 20
0.0
 30
0.0
210
0.0
220
0.0
230
1.0
  2
SOLID
 70
1
 71
0
 91
1
 92
3
 72
0
 73
1
 93
4
 10
9.3
 20
24.490000000000002
 10
10.100000000000001
 20
24.490000000000002
 10
10.100000000000001
 20
24.71
 10
9.3
 20
24.71
 97
0
 75
1
 76
1
 98
0
  0
LWPOLYLINE
  5
221
330
17
100
AcDbEntity
  8
DOORS
100
AcDbPolyline
 90
4
 70
1
 10
9.3
 20
24.6
 10
9.34
 20
24.6
 10
9.34
 20
25.400000000000002
 10
9.3
 20
25.400000000000002
  0
ARC
  5
222
330
17
100
AcDbEntity
  8
DOORS
100
AcDbCircle
 10
9.3
 20
24.6
 30
0.0
 40
0.8
100
AcDbArc
 50
0.0
 51
90.0
  0
MTEXT
  5
223
330
17
100
AcDbEntity
  8
ANNOTATIONS
100
AcDbMText
 10
9.700000000000001
 20
25.8
 30
0.0
 40
0.144
 71
5
  1
P11
  0
LINE
  5
224
330
17
100
AcDbEntity
  8
WINDOWS
100
AcDbLine
 10
12.28
 20
25.750000000000004
 30
0.0
 11
12.28
 21
26.950000000000003
 31
0.0
  0
LINE
  5
225
330
17
100
AcDbEntity
  8
WINDOWS
100
AcDbLine
 10
12.38
 20
25.750000000000004
 30
0.0
 11
12.38
 21
26.950000000000003
 31
0.0
  0
LINE
  5
226
330
17
100
AcDbEntity
  8
WINDOWS
100
AcDbLine
 10
12.28
 20
25.750000000000004
 30
0.0
 11
12.38
 21
25.750000000000004
 31
0.0
  0
LINE
  5
227
330
17
100
AcDbEntity
  8
WINDOWS
100
AcDbLine
 10
12.28
 20
26.950000000000003
 30
0.0
 11
12.38
 21
26.950000000000003
 31
0.0
  0
LINE
  5
228
330
17
100
AcDbEntity
  8
WINDOWS
  6
DASHED
100
AcDbLine
 10
12.33
 20
25.750000000000004
 30
0.0
 11
12.33
 21
26.950000000000003
 31
0.0
  0
MTEXT
  5
229
330
17
100
AcDbEntity
  8
ANNOTATIONS
100
AcDbMText
 10
12.63
 20
26.350000000000005
 30
0.0
 40
0.12
 71
5
  1
J9
  0
MTEXT
  5
22A
330
17
100
AcDbEntity
  8
ANNOTATIONS
100
AcDbMText
 10
12.81
 20
26.350000000000005
 30
0.0
 40
0.08399999999999999
 71
5
  1
h=1.00
  0
MTEXT
  5
22B
330
17
100
AcDbEntity
  8
TEXT
100
AcDbMText
 10
10.665
 20
26.48986
 30
0.0
 40
0.1665
 71
5
  1
02 - QUARTO
  0
MTEXT
  5
22C
330
17
100
AcDbEntity
  8
TEXT
100
AcDbMText
 10
10.665
 20
26.35
 30
0.0
 40
0.11655
 71
5
  1
A=11.7m²
  0
MTEXT
  5
22D
330
17
100
AcDbEntity
  8
ANNOTATIONS
100
AcDbMText
 10
10.665
 20
26.210140000000003
 30
0.0
 40
0.0874125
 71
5
  1
Piso: Laminado
  0
MTEXT
  5
22E
330
17
100
AcDbEntity
  8
ANNOTATIONS
100
AcDbMText
 10
10.665
 20
26.093590000000003
 30
0.0
 40
0.0874125
 71
5
  1
@PD=2.80m
  0
LWPOLYLINE
  5
22F
330
17
100
AcDbEntity
  8
FURNITURE
100
AcDbPolyline
 90
4
 70
1
 10
9.999
 20
26.175
 10
11.331000000000001
 20
26.175
 10
11.331000000000001
 20
27.75
 10
9.999
 20
27.75
  0
LWPOLYLINE
  5
230
330
17
100
AcDbEntity
  8
FURNITURE
100
AcDbPolyline
 90
4
 70
1
 10
10.049000000000001
 20
27.55
 10
11.281
 20
27.55
 10
11.281
 20
27.7
 10
10.049000000000001
 20
27.7
  0
LWPOLYLINE
  5
231
330
17
100
AcDbEntity
  8
FURNITURE
100
AcDbPolyline
 90
4
 70
1
 10
10.099
 20
27.25
 10
10.615
 20
27.25
 10
10.615
 20
27.5
 10
10.099
 20
27.5
  0
LWPOLYLINE
  5
232
330
17
100
AcDbEntity
  8
FURNITURE
100
AcDbPolyline
 90
4
 70
1
 10
10.715000000000002
 20
27.25
 10
11.231000000000002
 20
27.25
 10
11.231000000000002
 20
27.5
 10
10.715000000000002
 20
27.5
  0
LWPOLYLINE
  5
233
330
17
100
AcDbEntity
  8
FURNITURE
100
AcDbPolyline
 90
4
 70
1
 10
9.499
 20
27.2
 10
9.949
 20
27.2
 10
9.949
 20
27.65
 10
9.499
 20
27.65
  0
LWPOLYLINE
  5
234
330
17
100
AcDbEntity
  8
FURNITURE
100
AcDbPolyline
 90
4
 70
1
 10
11.381000000000002
 20
27.2
 10
11.831000000000001
 20
27.2
 10
11.831000000000001
 20
27.65
 10
11.381000000000002
 20
27.65
  0
HATCH
  5
235
330
17
100
AcDbEntity
  8
DOORS
 62
7
100
AcDbHatch
 10
0.0
 20
0.0
 30
0.0
210
0.0
220
0.0
230
1.0
  2
SOLID
 70
1
 71
0
 91
1
 92
3
 72
0
 73
1
 93
4
 10
3.3
 20
28.51
 10
4.1
 20
28.51
 10
4.1
 20
28.73
 10
3.3
 20
28.73
 97
0
 75
1
 76
1
 98
0
  0
LWPOLYLINE
  5
236
330
17
100
AcDbEntity
  8
DOORS
100
AcDbPolyline
 90
4
 70
1
 10
3.3
 20
28.62
 10
3.34
 20
28.62
 10
3.34
 20
29.42
 10
3.3
 20
29.42
  0
ARC
  5
237
330
17
100
AcDbEntity
  8
DOORS
100
AcDbCircle
 10
3.3
 20
28.62
 30
0.0
 40
0.8
100
AcDbArc
 50
0.0
 51
90.0
  0
MTEXT
  5
238
330
17
100
AcDbEntity
  8
ANNOTATIONS
100
AcDbMText
 10
3.6999999999999997
 20
29.82
 30
0.0
 40
0.144
 71
5
  1
P12
  0
LINE
  5
239
330
17
100
AcDbEntity
  8
WINDOWS
100
AcDbLine
 10
4.065
 20
32.07000000000001
 30
0.0
 11
5.265000000000001
 21
32.07000000000001
 31
0.0
  0
LINE
  5
23A
330
17
100
AcDbEntity
  8
WINDOWS
100
AcDbLine
 10
4.065
 20
32.17
 30
0.0
 11
5.265000000000001
 21
32.17
 31
0.0
  0
LINE
  5
23B
330
17
100
AcDbEntity
  8
WINDOWS
100
AcDbLine
 10
4.065
 20
32.07000000000001
 30
0.0
 11
4.065
 21
32.17
 31
0.0
  0
LINE
  5
23C
330
17
100
AcDbEntity
  8
WINDOWS
100
AcDbLine
 10
5.265000000000001
 20
32.07000000000001
 30
0.0
 11
5.265000000000001
 21
32.17
 31
0.0
  0
LINE
  5
23D
330
17
100
AcDbEntity
  8
WINDOWS
  6
DASHED
100
AcDbLine
 10
4.065
 20
32.120000000000005
 30
0.0
 11
5.265000000000001
 21
32.120000000000005
 31
0.0
  0
MTEXT
  5
23E
330
17
100
AcDbEntity
  8
ANNOTATIONS
100
AcDbMText
 10
4.665
 20
32.42
 30
0.0
 40
0.12
 71
5
  1
J10
  0
MTEXT
  5
23F
330
17
100
AcDbEntity
  8
ANNOTATIONS
100
AcDbMText
 10
4.665
 20
32.6
 30
0.0
 40
0.08399999999999999
 71
5
  1
h=1.00
  0
LINE
  5
240
330
17
100
AcDbEntity
  8
WINDOWS
100
AcDbLine
 10
2.95
 20
29.770000000000003
 30
0.0
 11
2.95
 21
30.970000000000002
 31
0.0
  0
LINE
  5
241
330
17
100
AcDbEntity
  8
WINDOWS
100
AcDbLine
 10
3.05
 20
29.770000000000003
 30
0.0
 11
3.05
 21
30.970000000000002
 31
0.0
  0
LINE
  5
242
330
17
100
AcDbEntity
  8
WINDOWS
100
AcDbLine
 10
2.95
 20
29.770000000000003
 30
0.0
 11
3.05
 21
29.770000000000003
 31
0.0
  0
LINE
  5
243
330
17
100
AcDbEntity
  8
WINDOWS
100
AcDbLine
 10
2.95
 20
30.970000000000002
 30
0.0
 11
3.05
 21
30.970000000000002
 31
0.0
  0
LINE
  5
244
330
17
100
AcDbEntity
  8
WINDOWS
  6
DASHED
100
AcDbLine
 10
3.0
 20
29.770000000000003
 30
0.0
 11
3.0
 21
30.970000000000002
 31
0.0
  0
MTEXT
  5
245
330
17
100
AcDbEntity
  8
ANNOTATIONS
100
AcDbMText
 10
3.3
 20
30.370000000000005
 30
0.0
 40
0.12
 71
5
  1
J11
  0
MTEXT
  5
246
330
17
100
AcDbEntity
  8
ANNOTATIONS
100
AcDbMText
 10
3.48
 20
30.370000000000005
 30
0.0
 40
0.08399999999999999
 71
5
  1
h=1.00
  0
LINE
  5
247
330
17
100
AcDbEntity
  8
WINDOWS
100
AcDbLine
 10
6.28
 20
29.770000000000003
 30
0.0
 11
6.28
 21
30.970000000000002
 31
0.0
  0
LINE
  5
248
330
17
100
AcDbEntity
  8
WINDOWS
100
AcDbLine
 10
6.38
 20
29.770000000000003
 30
0.0
 11
6.38
 21
30.970000000000002
 31
0.0
  0
LINE
  5
249
330
17
100
AcDbEntity
  8
WINDOWS
100
AcDbLine
 10
6.28
 20
29.770000000000003
 30
0.0
 11
6.38
 21
29.770000000000003
 31
0.0
  0
LINE
  5
24A
330
17
100
AcDbEntity
  8
WINDOWS
100
AcDbLine
 10
6.28
 20
30.970000000000002
 30
0.0
 11
6.38
 21
30.970000000000002
 31
0.0
  0
LINE
  5
24B
330
17
100
AcDbEntity
  8
WINDOWS
  6
DASHED
100
AcDbLine
 10
6.33
 20
29.770000000000003
 30
0.0
 11
6.33
 21
30.970000000000002
 31
0.0
  0
MTEXT
  5
24C
330
17
100
AcDbEntity
  8
ANNOTATIONS
100
AcDbMText
 10
6.63
 20
30.370000000000005
 30
0.0
 40
0.12
 71
5
  1
J12
  0
MTEXT
  5
24D
330
17
100
AcDbEntity
  8
ANNOTATIONS
100
AcDbMText
 10
6.81
 20
30.370000000000005
 30
0.0
 40
0.08399999999999999
 71
5
  1
h=1.00
  0
MTEXT
  5
24E
330
17
100
AcDbEntity
  8
TEXT
100
AcDbMText
 10
4.665
 20
30.50986
 30
0.0
 40
0.1665
 71
5
  1
03 - QUARTO
  0
MTEXT
  5
24F
330
17
100
AcDbEntity
  8
TEXT
100
AcDbMText
 10
4.665
 20
30.37
 30
0.0
 40
0.11655
 71
5
  1
A=11.7m²
  0
MTEXT
  5
250
330
17
100
AcDbEntity
  8
ANNOTATIONS
100
AcDbMText
 10
4.665
 20
30.230140000000002
 30
0.0
 40
0.0874125
 71
5
  1
Piso: Laminado
  0
MTEXT
  5
251
330
17
100
AcDbEntity
  8
ANNOTATIONS
100
AcDbMText
 10
4.665
 20
30.113590000000002
 30
0.0
 40
0.0874125
 71
5
  1
@PD=2.80m
  0
LWPOLYLINE
  5
252
330
17
100
AcDbEntity
  8
FURNITURE
100
AcDbPolyline
 90
4
 70
1
 10
3.999
 20
30.195000000000004
 10
5.331
 20
30.195000000000004
 10
5.331
 20
31.770000000000003
 10
3.999
 20
31.770000000000003
  0
LWPOLYLINE
  5
253
330
17
100
AcDbEntity
  8
FURNITURE
100
AcDbPolyline
 90
4
 70
1
 10
4.049
 20
31.570000000000004
 10
5.281000000000001
 20
31.570000000000004
 10
5.281000000000001
 20
31.720000000000002
 10
4.049
 20
31.720000000000002
  0
LWPOLYLINE
  5
254
330
17
100
AcDbEntity
  8
FURNITURE
100
AcDbPolyline
 90
4
 70
1
 10
4.099
 20
31.270000000000003
 10
4.615
 20
31.270000000000003
 10
4.615
 20
31.520000000000003
 10
4.099
 20
31.520000000000003
  0
LWPOLYLINE
  5
255
330
17
100
AcDbEntity
  8
FURNITURE
100
AcDbPolyline
 90
4
 70
1
 10
4.715000000000001
 20
31.270000000000003
 10
5.231000000000001
 20
31.270000000000003
 10
5.231000000000001
 20
31.520000000000003
 10
4.715000000000001
 20
31.520000000000003
  0
LWPOLYLINE
  5
256
330
17
100
AcDbEntity
  8
FURNITURE
100
AcDbPolyline
 90
4
 70
1
 10
3.499
 20
31.220000000000002
 10
3.9490000000000003
 20
31.220000000000002
 10
3.9490000000000003
 20
31.67
 10
3.499
 20
31.67
  0
LWPOLYLINE
  5
257
330
17
100
AcDbEntity
  8
FURNITURE
100
AcDbPolyline
 90
4
 70
1
 10
5.381
 20
31.220000000000002
 10
5.831
 20
31.220000000000002
 10
5.831
 20
31.67
 10
5.381
 20
31.67
  0
DIMENSION
  5
258
330
17
100
AcDbEntity
  8
DIMENSIONS
100
AcDbDimension
280
0
  2
*D1
  3
Standard
 10
3.0
 20
33.620000000000005
 30
0.0
 11
4.5
 21
33.620000000000005
 31
0.0
 70
32
 71
5
  1
<>
100
AcDbAlignedDimension
 13
3.0
 23
32.120000000000005
 33
0.0
 14
6.0
 24
32.120000000000005
 34
0.0
 50
0.0
100
AcDbRotatedDimension
  0
DIMENSION
  5
26C
330
17
100
AcDbEntity
  8
DIMENSIONS
100
AcDbDimension
280
0
  2
*D2
  3
Standard
 10
6.0
 20
33.620000000000005
 30
0.0
 11
6.165
 21
34.745000000000005
 31
0.0
 70
32
 71
5
  1
<>
100
AcDbAlignedDimension
 13
6.0
 23
32.120000000000005
 33
0.0
 14
6.33
 24
32.120000000000005
 34
0.0
 50
0.0
100
AcDbRotatedDimension
  0
DIMENSION
  5
27D
330
17
100
AcDbEntity
  8
DIMENSIONS
100
AcDbDimension
280
0
  2
*D3
  3
Standard
 10
6.33
 20
33.620000000000005
 30
0.0
 11
6.665
 21
34.745000000000005
 31
0.0
 70
32
 71
5
  1
<>
100
AcDbAlignedDimension
 13
6.33
 23
32.120000000000005
 33
0.0
 14
7.0
 24
32.120000000000005
 34
0.0
 50
0.0
100
AcDbRotatedDimension
  0
DIMENSION
  5
28E
330
17
100
AcDbEntity
  8
DIMENSIONS
100
AcDbDimension
280
0
  2
*D4
  3
Standard
 10
7.0
 20
33.620000000000005
 30
0.0
 11
7.25
 21
34.745000000000005
 31
0.0
 70
32
 71
5
  1
<>
100
AcDbAlignedDimension
 13
7.0
 23
32.120000000000005
 33
0.0
 14
7.5
 24
32.120000000000005
 34
0.0
 50
0.0
100
AcDbRotatedDimension
  0
DIMENSION
  5
29F
330
17
100
AcDbEntity
  8
DIMENSIONS
100
AcDbDimension
280
0
  2
*D5
  3
Standard
 10
7.5
 20
33.620000000000005
 30
0.0
 11
8.0
 21
34.745000000000005
 31
0.0
 70
32
 71
5
  1
<>
100
AcDbAlignedDimension
 13
7.5
 23
32.120000000000005
 33
0.0
 14
8.5
 24
32.120000000000005
 34
0.0
 50
0.0
100
AcDbRotatedDimension
  0
DIMENSION
  5
2B0
330
17
100
AcDbEntity
  8
DIMENSIONS
100
AcDbDimension
280
0
  2
*D6
  3
Standard
 10
8.5
 20
33.620000000000005
 30
0.0
 11
8.75
 21
34.745000000000005
 31
0.0
 70
32
 71
5
  1
<>
100
AcDbAlignedDimension
 13
8.5
 23
32.120000000000005
 33
0.0
 14
9.0
 24
32.120000000000005
 34
0.0
 50
0.0
100
AcDbRotatedDimension
  0
DIMENSION
  5
2C1
330
17
100
AcDbEntity
  8
DIMENSIONS
100
AcDbDimension
280
0
  2
*D7
  3
Standard
 10
9.0
 20
33.620000000000005
 30
0.0
 11
9.25
 21
34.745000000000005
 31
0.0
 70
32
 71
5
  1
<>
100
AcDbAlignedDimension
 13
9.0
 23
32.120000000000005
 33
0.0
 14
9.5
 24
32.120000000000005
 34
0.0
 50
0.0
100
AcDbRotatedDimension
  0
DIMENSION
  5
2D2
330
17
100
AcDbEntity
  8
DIMENSIONS
100
AcDbDimension
280
0
  2
*D8
  3
Standard
 10
9.5
 20
33.620000000000005
 30
0.0
 11
10.25
 21
34.745000000000005
 31
0.0
 70
32
 71
5
  1
<>
100
AcDbAlignedDimension
 13
9.5
 23
32.120000000000005
 33
0.0
 14
11.0
 24
32.120000000000005
 34
0.0
 50
0.0
100
AcDbRotatedDimension
  0
DIMENSION
  5
2E1
330
17
100
AcDbEntity
  8
DIMENSIONS
100
AcDbDimension
280
0
  2
*D9
  3
Standard
 10
11.0
 20
33.620000000000005
 30
0.0
 11
11.65
 21
34.745000000000005
 31
0.0
 70
32
 71
5
  1
<>
100
AcDbAlignedDimension
 13
11.0
 23
32.120000000000005
 33
0.0
 14
12.3
 24
32.120000000000005
 34
0.0
 50
0.0
100
AcDbRotatedDimension
  0
DIMENSION
  5
2F0
330
17
100
AcDbEntity
  8
DIMENSIONS
100
AcDbDimension
280
0
  2
*D10
  3
Standard
 10
12.3
 20
33.620000000000005
 30
0.0
 11
12.315000000000001
 21
34.745000000000005
 31
0.0
 70
32
 71
5
  1
<>
100
AcDbAlignedDimension
 13
12.3
 23
32.120000000000005
 33
0.0
 14
12.33
 24
32.120000000000005
 34
0.0
 50
0.0
100
AcDbRotatedDimension
  0
DIMENSION
  5
301
330
17
100
AcDbEntity
  8
DIMENSIONS
100
AcDbDimension
280
0
  2
*D11
  3
Standard
 10
12.33
 20
33.620000000000005
 30
0.0
 11
12.665
 21
34.745000000000005
 31
0.0
 70
32
 71
5
  1
<>
100
AcDbAlignedDimension
 13
12.33
 23
32.120000000000005
 33
0.0
 14
13.0
 24
32.120000000000005
 34
0.0
 50
0.0
100
AcDbRotatedDimension
  0
DIMENSION
  5
312
330
17
100
AcDbEntity
  8
DIMENSIONS
100
AcDbDimension
280
0
  2
*D12
  3
Standard
 10
13.0
 20
33.620000000000005
 30
0.0
 11
14.5
 21
33.620000000000005
 31
0.0
 70
32
 71
5
  1
<>
100
AcDbAlignedDimension
 13
13.0
 23
32.120000000000005
 33
0.0
 14
16.0
 24
32.120000000000005
 34
0.0
 50
0.0
100
AcDbRotatedDimension
  0
DIMENSION
  5
322
330
17
100
AcDbEntity
  8
DIMENSIONS
100
AcDbDimension
280
0
  2
*D13
  3
Standard
 10
17.5
 20
5.0
 30
0.0
 11
17.5
 21
6.9
 31
0.0
 70
32
 71
5
  1
<>
100
AcDbAlignedDimension
 13
16.0
 23
5.0
 33
0.0
 14
16.0
 24
8.8
 34
0.0
 50
90.0
100
AcDbRotatedDimension
  0
DIMENSION
  5
332
330
17
100
AcDbEntity
  8
DIMENSIONS
100
AcDbDimension
280
0
  2
*D14
  3
Standard
 10
17.5
 20
8.8
 30
0.0
 11
16.375
 21
9.4
 31
0.0
 70
32
 71
5
  1
<>
100
AcDbAlignedDimension
 13
16.0
 23
8.8
 33
0.0
 14
16.0
 24
10.0
 34
0.0
 50
90.0
100
AcDbRotatedDimension
  0
DIMENSION
  5
341
330
17
100
AcDbEntity
  8
DIMENSIONS
100
AcDbDimension
280
0
  2
*D15
  3
Standard
 10
17.5
 20
10.0
 30
0.0
 11
16.375
 21
11.2
 31
0.0
 70
32
 71
5
  1
<>
100
AcDbAlignedDimension
 13
16.0
 23
10.0
 33
0.0
 14
16.0
 24
12.4
 34
0.0
 50
90.0
100
AcDbRotatedDimension
  0
DIMENSION
  5
350
330
17
100
AcDbEntity
  8
DIMENSIONS
100
AcDbDimension
280
0
  2
*D16
  3
Standard
 10
17.5
 20
12.4
 30
0.0
 11
17.5
 21
13.4
 31
0.0
 70
32
 71
5
  1
<>
100
AcDbAlignedDimension
 13
16.0
 23
12.4
 33
0.0
 14
16.0
 24
14.4
 34
0.0
 50
90.0
100
AcDbRotatedDimension
  0
DIMENSION
  5
360
330
17
100
AcDbEntity
  8
DIMENSIONS
100
AcDbDimension
280
0
  2
*D17
  3
Standard
 10
17.5
 20
14.4
 30
0.0
 11
16.375
 21
14.65
 31
0.0
 70
32
 71
5
  1
<>
100
AcDbAlignedDimension
 13
16.0
 23
14.4
 33
0.0
 14
16.0
 24
14.9
 34
0.0
 50
90.0
100
AcDbRotatedDimension
  0
DIMENSION
  5
371
330
17
100
AcDbEntity
  8
DIMENSIONS
100
AcDbDimension
280
0
  2
*D18
  3
Standard
 10
17.5
 20
14.9
 30
0.0
 11
16.375
 21
15.55
 31
0.0
 70
32
 71
5
  1
<>
100
AcDbAlignedDimension
 13
16.0
 23
14.9
 33
0.0
 14
16.0
 24
16.2
 34
0.0
 50
90.0
100
AcDbRotatedDimension
  0
DIMENSION
  5
380
330
17
100
AcDbEntity
  8
DIMENSIONS
100
AcDbDimension
280
0
  2
*D19
  3
Standard
 10
17.5
 20
16.2
 30
0.0
 11
17.5
 21
17.95
 31
0.0
 70
32
 71
5
  1
<>
100
AcDbAlignedDimension
 13
16.0
 23
16.2
 33
0.0
 14
16.0
 24
19.7
 34
0.0
 50
90.0
100
AcDbRotatedDimension
  0
DIMENSION
  5
38E
330
17
100
AcDbEntity
  8
DIMENSIONS
100
AcDbDimension
280
0
  2
*D20
  3
Standard
 10
17.5
 20
19.7
 30
0.0
 11
16.375
 21
20.2
 31
0.0
 70
32
 71
5
  1
<>
100
AcDbAlignedDimension
 13
16.0
 23
19.7
 33
0.0
 14
16.0
 24
20.7
 34
0.0
 50
90.0
100
AcDbRotatedDimension
  0
DIMENSION
  5
39F
330
17
100
AcDbEntity
  8
DIMENSIONS
100
AcDbDimension
280
0
  2
*D21
  3
Standard
 10
17.5
 20
20.7
 30
0.0
 11
16.375
 21
21.45
 31
0.0
 70
32
 71
5
  1
<>
100
AcDbAlignedDimension
 13
16.0
 23
20.7
 33
0.0
 14
16.0
 24
22.2
 34
0.0
 50
90.0
100
AcDbRotatedDimension
  0
DIMENSION
  5
3AE
330
17
100
AcDbEntity
  8
DIMENSIONS
100
AcDbDimension
280
0
  2
*D22
  3
Standard
 10
17.5
 20
22.2
 30
0.0
 11
16.375
 21
23.4
 31
0.0
 70
32
 71
5
  1
<>
100
AcDbAlignedDimension
 13
16.0
 23
22.2
 33
0.0
 14
16.0
 24
24.6
 34
0.0
 50
90.0
100
AcDbRotatedDimension
  0
DIMENSION
  5
3BD
330
17
100
AcDbEntity
  8
DIMENSIONS
100
AcDbDimension
280
0
  2
*D23
  3
Standard
 10
17.5
 20
24.6
 30
0.0
 11
16.375
 21
25.700000000000003
 31
0.0
 70
32
 71
5
  1
<>
100
AcDbAlignedDimension
 13
16.0
 23
24.6
 33
0.0
 14
16.0
 24
26.8
 34
0.0
 50
90.0
100
AcDbRotatedDimension
  0
DIMENSION
  5
3CC
330
17
100
AcDbEntity
  8
DIMENSIONS
100
AcDbDimension
280
0
  2
*D24
  3
Standard
 10
17.5
 20
26.8
 30
0.0
 11
16.375
 21
27.450000000000003
 31
0.0
 70
32
 71
5
  1
<>
100
AcDbAlignedDimension
 13
16.0
 23
26.8
 33
0.0
 14
16.0
 24
28.1
 34
0.0
 50
90.0
100
AcDbRotatedDimension
  0
DIMENSION
  5
3DB
330
17
100
AcDbEntity
  8
DIMENSIONS
100
AcDbDimension
280
0
  2
*D25
  3
Standard
 10
17.5
 20
28.1
 30
0.0
 11
16.375
 21
28.36
 31
0.0
 70
32
 71
5
  1
<>
100
AcDbAlignedDimension
 13
16.0
 23
28.1
 33
0.0
 14
16.0
 24
28.62
 34
0.0
 50
90.0
100
AcDbRotatedDimension
  0
DIMENSION
  5
3EC
330
17
100
AcDbEntity
  8
DIMENSIONS
100
AcDbDimension
280
0
  2
*D26
  3
Standard
 10
17.5
 20
28.62
 30
0.0
 11
17.5
 21
30.370000000000005
 31
0.0
 70
32
 71
5
  1
<>
100
AcDbAlignedDimension
 13
16.0
 23
28.62
 33
0.0
 14
16.0
 24
32.120000000000005
 34
0.0
 50
90.0
100
AcDbRotatedDimension
  0
DIMENSION
  5
3FA
330
17
100
AcDbEntity
  8
DIMENSIONS
100
AcDbDimension
280
0
  2
*D27
  3
Standard
 10
3.0
 20
8.0
 30
0.0
 11
9.5
 21
8.0
 31
0.0
 70
32
 71
5
  1
<>
100
AcDbAlignedDimension
 13
3.0
 23
5.0
 33
0.0
 14
16.0
 24
5.0
 34
0.0
 50
0.0
100
AcDbRotatedDimension
  0
DIMENSION
  5
40A
330
17
100
AcDbEntity
  8
DIMENSIONS
100
AcDbDimension
280
0
  2
*D28
  3
Standard
 10
6.0
 20
5.0
 30
0.0
 11
6.0
 21
18.560000000000002
 31
0.0
 70
32
 71
5
  1
<>
100
AcDbAlignedDimension
 13
3.0
 23
5.0
 33
0.0
 14
3.0
 24
32.120000000000005
 34
0.0
 50
90.0
100
AcDbRotatedDimension
  0
DIMENSION
  5
41A
330
17
100
AcDbEntity
  8
DIMENSIONS
100
AcDbDimension
280
0
  2
*D29
  3
Standard
 10
0.0
 20
-4.5
 30
0.0
 11
7.5
 21
-4.5
 31
0.0
 70
32
 71
5
  1
<>
100
AcDbAlignedDimension
 13
0.0
 23
0.0
 33
0.0
 14
15.0
 24
0.0
 34
0.0
 50
0.0
100
AcDbRotatedDimension
  0
DIMENSION
  5
42A
330
17
100
AcDbEntity
  8
DIMENSIONS
100
AcDbDimension
280
0
  2
*D30
  3
Standard
 10
-4.5
 20
0.0
 30
0.0
 11
-4.5
 21
17.5
 31
0.0
 70
32
 71
5
  1
<>
100
AcDbAlignedDimension
 13
0.0
 23
0.0
 33
0.0
 14
0.0
 24
35.0
 34
0.0
 50
90.0
100
AcDbRotatedDimension
  0
DIMENSION
  5
43A
330
17
100
AcDbEntity
  8
DIMENSIONS
100
AcDbDimension
280
0
  2
*D31
  3
Standard
 10
0.0
 20
4.6
 30
0.0
 11
1.5
 21
4.6
 31
0.0
 70
32
 71
5
  1
<>
100
AcDbAlignedDimension
 13
0.0
 23
5.0
 33
0.0
 14
3.0
 24
5.0
 34
0.0
 50
0.0
100
AcDbRotatedDimension
  0
DIMENSION
  5
44A
330
17
100
AcDbEntity
  8
DIMENSIONS
100
AcDbDimension
280
0
  2
*D32
  3
Standard
 10
2.6
 20
0.0
 30
0.0
 11
2.6
 21
2.5
 31
0.0
 70
32
 71
5
  1
<>
100
AcDbAlignedDimension
 13
3.0
 23
0.0
 33
0.0
 14
3.0
 24
5.0
 34
0.0
 50
90.0
100
AcDbRotatedDimension
  0
LINE
  5
45A
330
17
100
AcDbEntity
  8
NORTH
100
AcDbLine
 10
19.0
 20
31.120000000000005
 30
0.0
 11
19.0
 21
32.32000000000001
 31
0.0
  0
LINE
  5
45B
330
17
100
AcDbEntity
  8
NORTH
100
AcDbLine
 10
19.0
 20
32.32000000000001
 30
0.0
 11
18.7
 21
31.870000000000008
 31
0.0
  0
LINE
  5
45C
330
17
100
AcDbEntity
  8
NORTH
100
AcDbLine
 10
19.0
 20
32.32000000000001
 30
0.0
 11
19.3
 21
31.870000000000008
 31
0.0
  0
LINE
  5
45D
330
17
100
AcDbEntity
  8
NORTH
100
AcDbLine
 10
18.7
 20
31.870000000000008
 30
0.0
 11
19.3
 21
31.870000000000008
 31
0.0
  0
MTEXT
  5
45E
330
17
100
AcDbEntity
  8
NORTH
100
AcDbMText
 10
19.0
 20
32.71600000000001
 30
0.0
 40
0.308
 71
5
  1
N
  0
MTEXT
  5
45F
330
17
100
AcDbEntity
  8
TEXT
100
AcDbMText
 10
9.5
 20
1.0
 30
0.0
 40
0.35
 71
5
  1
PLANTA BAIXA — PAVIMENTO TÉRREO
  0
MTEXT
  5
460
330
17
100
AcDbEntity
  8
TEXT
100
AcDbMText
 10
9.5
 20
0.20000000000000018
 30
0.0
 40
0.16
 71
5
  1
ESC.: 1/100
  0
ENDSEC
  0
SECTION
  2
OBJECTS
  0
DICTIONARY
  5
A
330
0
100
AcDbDictionary
281
1
  3
ACAD_COLOR
350
B
  3
ACAD_GROUP
350
C
  3
ACAD_LAYOUT
350
D
  3
ACAD_MATERIAL
350
E
  3
ACAD_MLEADERSTYLE
350
F
  3
ACAD_MLINESTYLE
350
10
  3
ACAD_PLOTSETTINGS
350
11
  3
ACAD_PLOTSTYLENAME
350
12
  3
ACAD_SCALELIST
350
14
  3
ACAD_TABLESTYLE
350
15
  3
ACAD_VISUALSTYLE
350
16
  3
EZDXF_META
350
2D
  0
DICTIONARY
  5
B
330
A
100
AcDbDictionary
281
1
  0
DICTIONARY
  5
C
330
A
100
AcDbDictionary
281
1
  0
DICTIONARY
  5
D
330
A
100
AcDbDictionary
281
1
  3
Model
350
1A
  3
Layout1
350
1E
  0
DICTIONARY
  5
E
330
A
100
AcDbDictionary
281
1
  3
ByBlock
350
1F
  3
ByLayer
350
20
  3
Global
350
21
  0
DICTIONARY
  5
F
330
A
100
AcDbDictionary
281
1
  3
Standard
350
2C
  0
DICTIONARY
  5
10
330
A
100
AcDbDictionary
281
1
  3
Standard
350
22
  0
DICTIONARY
  5
11
330
A
100
AcDbDictionary
281
1
  0
ACDBDICTIONARYWDFLT
  5
12
330
A
100
AcDbDictionary
281
1
  3
Normal
350
13
100
AcDbDictionaryWithDefault
340
13
  0
ACDBPLACEHOLDER
  5
13
330
12
  0
DICTIONARY
  5
14
330
A
100
AcDbDictionary
281
1
  0
DICTIONARY
  5
15
330
A
100
AcDbDictionary
281
1
  0
DICTIONARY
  5
16
330
A
100
AcDbDictionary
281
1
  0
LAYOUT
  5
1A
330
D
100
AcDbPlotSettings
  1

  4
A3
  6

 40
7.5
 41
20.0
 42
7.5
 43
20.0
 44
420.0
 45
297.0
 46
0.0
 47
0.0
 48
0.0
 49
0.0
140
0.0
141
0.0
142
1.0
143
1.0
 70
1024
 72
1
 73
0
 74
5
  7

 75
16
 76
0
 77
2
 78
300
147
1.0
148
0.0
149
0.0
100
AcDbLayout
  1
Model
 70
1
 71
0
 10
0.0
 20
0.0
 11
420.0
 21
297.0
 12
0.0
 22
0.0
 32
0.0
 14
1e+20
 24
1e+20
 34
1e+20
 15
-1e+20
 25
-1e+20
 35
-1e+20
146
0.0
 13
0.0
 23
0.0
 33
0.0
 16
1.0
 26
0.0
 36
0.0
 17
0.0
 27
1.0
 37
0.0
 76
1
330
17
  0
LAYOUT
  5
1E
330
D
100
AcDbPlotSettings
  1

  4
A3
  6

 40
7.5
 41
20.0
 42
7.5
 43
20.0
 44
420.0
 45
297.0
 46
0.0
 47
0.0
 48
0.0
 49
0.0
140
0.0
141
0.0
142
1.0
143
1.0
 70
0
 72
1
 73
0
 74
5
  7

 75
16
 76
0
 77
2
 78
300
147
1.0
148
0.0
149
0.0
100
AcDbLayout
  1
Layout1
 70
1
 71
1
 10
0.0
 20
0.0
 11
420.0
 21
297.0
 12
0.0
 22
0.0
 32
0.0
 14
1e+20
 24
1e+20
 34
1e+20
 15
-1e+20
 25
-1e+20
 35
-1e+20
146
0.0
 13
0.0
 23
0.0
 33
0.0
 16
1.0
 26
0.0
 36
0.0
 17
0.0
 27
1.0
 37
0.0
 76
1
330
1B
  0
MATERIAL
  5
1F
102
{ACAD_REACTORS
330
E
102
}
330
E
100
AcDbMaterial
  1
ByBlock
  2

 70
0
 40
1.0
 71
1
 41
1.0
 91
-1023410177
 42
1.0
 72
1
  3

 73
1
 74
1
 75
1
 44
0.5
 73
0
 45
1.0
 46
1.0
 77
1
  4

 78
1
 79
1
170
1
 48
1.0
171
1
  6

172
1
173
1
174
1
140
1.0
141
1.0
175
1
  7

176
1
177
1
178
1
143
1.0
179
1
  8

270
1
271
1
272
1
145
1.0
146
1.0
273
1
  9

274
1
275
1
276
1
 42
1.0
 72
1
  3

 73
1
 74
1
 75
1
 94
63
  0
MATERIAL
  5
20
102
{ACAD_REACTORS
330
E
102
}
330
E
100
AcDbMaterial
  1
ByLayer
  2

 70
0
 40
1.0
 71
1
 41
1.0
 91
-1023410177
 42
1.0
 72
1
  3

 73
1
 74
1
 75
1
 44
0.5
 73
0
 45
1.0
 46
1.0
 77
1
  4

 78
1
 79
1
170
1
 48
1.0
171
1
  6

172
1
173
1
174
1
140
1.0
141
1.0
175
1
  7

176
1
177
1
178
1
143
1.0
179
1
  8

270
1
271
1
272
1
145
1.0
146
1.0
273
1
  9

274
1
275
1
276
1
 42
1.0
 72
1
  3

 73
1
 74
1
 75
1
 94
63
  0
MATERIAL
  5
21
102
{ACAD_REACTORS
330
E
102
}
330
E
100
AcDbMaterial
  1
Global
  2

 70
0
 40
1.0
 71
1
 41
1.0
 91
-1023410177
 42
1.0
 72
1
  3

 73
1
 74
1
 75
1
 44
0.5
 73
0
 45
1.0
 46
1.0
 77
1
  4

 78
1
 79
1
170
1
 48
1.0
171
1
  6

172
1
173
1
174
1
140
1.0
141
1.0
175
1
  7

176
1
177
1
178
1
143
1.0
179
1
  8

270
1
271
1
272
1
145
1.0
146
1.0
273
1
  9

274
1
275
1
276
1
 42
1.0
 72
1
  3

 73
1
 74
1
 75
1
 94
63
  0
MLINESTYLE
  5
22
102
{ACAD_REACTORS
330
10
102
}
330
10
100
AcDbMlineStyle
  2
Standard
 70
0
  3

 62
256
 51
90.0
 52
90.0
 71
2
 49
0.5
 62
256
  6
BYLAYER
 49
-0.5
 62
256
  6
BYLAYER
  0
MLEADERSTYLE
  5
2C
102
{ACAD_REACTORS
330
F
102
}
330
F
100
AcDbMLeaderStyle
179
2
170
2
171
1
172
0
 90
2
 40
0.0
 41
0.0
173
1
 91
-1056964608
 92
-2
290
1
 42
2.0
291
1
 43
8.0
  3
Standard
 44
4.0
300

342
29
174
1
175
1
176
0
178
1
 93
-1056964608
 45
4.0
292
0
297
0
 46
4.0
 94
-1056964608
 47
1.0
 49
1.0
140
1.0
294
1
141
0.0
177
0
142
1.0
295
0
296
0
143
3.75
271
0
272
9
273
9
  0
DICTIONARY
  5
2D
330
A
100
AcDbDictionary
280
1
281
1
  3
CREATED_BY_EZDXF
350
2E
  3
WRITTEN_BY_EZDXF
350
463
  0
DICTIONARYVAR
  5
2E
330
2D
100
DictionaryVariables
280
0
  1
1.4.3 @ 2026-08-27T12:16:28.251878+00:00
  0
DICTIONARYVAR
  5
463
330
2D
100
DictionaryVariables
280
0
  1
1.4.3 @ 2026-08-27T12:16:28.329707+00:00
  0
ENDSEC
  0
EOF
