0
SECTION
2
HEADER
9
$ACADVER
1
AC1015
9
$INSUNITS
70
6
0
ENDSEC
0
SECTION
2
TABLES
0
TABLE
2
LAYER
70
3
0
LAYER
2
LOTES
70
0
62
7
6
CONTINUOUS
0
LAYER
2
VEGETACAO
70
0
62
3
6
CONTINUOUS
0
LAYER
2
TEXTOS
70
0
62
1
6
CONTINUOUS
0
ENDTAB
0
ENDSEC
0
SECTION
2
BLOCKS
0
BLOCK
8
0
2
ARVORE
70
0
10
0
20
0
30
0
3
ARVORE
0
CIRCLE
8
0
10
0
20
0
30
0
40
2.5
0
LINE
8
0
10
0
20
0
30
0
11
0
21
4
31
0
0
ENDBLK
8
0
0
ENDSEC
0
SECTION
2
ENTITIES
0
INSERT
8
VEGETACAO
2
ARVORE
10
700010
20
8790010
30
0
41
1
42
1
43
1
50
0
0
INSERT
8
VEGETACAO
2
ARVORE
10
700030
20
8790015
30
0
41
1
42
1
43
1
50
15
0
INSERT
8
VEGETACAO
2
ARVORE
10
700050
20
8790020
30
0
41
1
42
1
43
1
50
30
0
LWPOLYLINE
8
LOTES
90
4
70
1
10
700000
20
8790000
10
700020
20
8790000
10
700020
20
8790012
10
700000
20
8790012
0
LINE
8
LOTES
10
700000
20
8790012
30
0
11
700060
21
8790012
31
0
0
TEXT
8
TEXTOS
10
700005
20
8790005
30
0
40
2
1
LOTE 01
0
ENDSEC
0
EOF
